<svg width="23" height="18" viewBox="0 0 23 18" fill="none" xmlns="http://www.w3.org/2000/svg">
<path d="M23 2.47182C22.1542 2.80268 21.2456 3.02624 20.2904 3.12728C21.276 2.60666 22.0133 1.78727 22.3649 0.82199C21.4389 1.30754 20.4254 1.64932 19.3686 1.83246C18.6579 1.16257 17.7165 0.718553 16.6907 0.569351C15.6648 0.420149 14.6119 0.574106 13.6953 1.00732C12.7787 1.44053 12.0498 2.12876 11.6217 2.96516C11.1936 3.80156 11.0903 4.73933 11.3278 5.63288C9.4515 5.54971 7.61598 5.11919 5.94036 4.36926C4.26474 3.61933 2.78646 2.56675 1.60147 1.27983C1.19629 1.89684 0.963314 2.61221 0.963314 3.37409C0.962862 4.05995 1.15419 4.7353 1.52031 5.34023C1.88644 5.94516 2.41604 6.46096 3.06214 6.84186C2.31284 6.82081 1.58007 6.64208 0.924822 6.32053V6.37418C0.924746 7.33613 1.30167 8.26847 1.99164 9.01301C2.68161 9.75756 3.64213 10.2684 4.71021 10.459C4.01511 10.625 3.28635 10.6495 2.57897 10.5305C2.88032 11.3582 3.46732 12.082 4.25779 12.6006C5.04827 13.1191 6.00265 13.4065 6.98732 13.4224C5.31578 14.5808 3.25145 15.2091 1.1264 15.2064C0.749968 15.2065 0.373855 15.187 0 15.1482C2.15705 16.3726 4.66801 17.0224 7.23245 17.0198C15.9134 17.0198 20.6591 10.6727 20.6591 5.16788C20.6591 4.98904 20.654 4.80841 20.6449 4.62957C21.568 4.04025 22.3648 3.3105 22.998 2.4745L23 2.47182Z" fill="#4C89D0"/>
</svg>
