<svg width="90" height="90" viewBox="0 0 90 90" fill="none" xmlns="http://www.w3.org/2000/svg">
<path d="M45.1372 29.8896V31.4824C45.1372 31.581 45.0572 31.6608 44.9585 31.6608C44.8598 31.6608 44.7798 31.5811 44.7798 31.4824V29.8896C44.7798 29.7911 44.8598 29.7109 44.9585 29.7109C45.0572 29.7109 45.1372 29.7911 45.1372 29.8896ZM44.9585 34.487C44.8599 34.487 44.7798 34.5667 44.7798 34.6657V36.2579C44.7798 36.3565 44.8598 36.4366 44.9585 36.4366C45.0572 36.4366 45.1372 36.3566 45.1372 36.2579V34.6657C45.1372 34.5668 45.0572 34.487 44.9585 34.487ZM48.1427 32.8951H46.5502C46.4517 32.8951 46.3715 32.9751 46.3715 33.0738C46.3715 33.1727 46.4515 33.2528 46.5502 33.2528H48.1427C48.2413 33.2528 48.3214 33.1729 48.3214 33.0738C48.3213 32.9751 48.2413 32.8951 48.1427 32.8951ZM43.5456 33.0738C43.5456 32.9753 43.4657 32.8951 43.3669 32.8951H41.7745C41.6759 32.8951 41.5958 32.9751 41.5958 33.0738C41.5958 33.1727 41.6757 33.2528 41.7745 33.2528H43.3669C43.4655 33.2527 43.5456 33.1727 43.5456 33.0738ZM46.2104 32.0748L47.3363 30.9486C47.4063 30.8789 47.4063 30.7658 47.3363 30.6961C47.2666 30.6261 47.1535 30.6261 47.0838 30.6961L45.9576 31.822C45.8879 31.892 45.8879 32.0048 45.9576 32.0748C46.0276 32.1445 46.1407 32.1445 46.2104 32.0748ZM43.7068 34.0731L42.5809 35.1987C42.5112 35.269 42.5112 35.3817 42.5809 35.4517C42.6506 35.5214 42.7637 35.5214 42.8334 35.4517L43.9596 34.3255C44.0293 34.2558 44.0293 34.1427 43.9596 34.0731C43.8896 34.0034 43.7765 34.0034 43.7068 34.0731ZM46.2104 34.0731C46.1407 34.0034 46.0276 34.0034 45.9576 34.0731C45.8879 34.1427 45.8879 34.2558 45.9576 34.3255L47.0838 35.4517C47.1535 35.5214 47.2666 35.5214 47.3363 35.4517C47.4063 35.3817 47.4063 35.269 47.3363 35.1987L46.2104 34.0731ZM42.8334 30.6961C42.7637 30.6261 42.6506 30.6261 42.5809 30.6961C42.5112 30.7658 42.5112 30.8789 42.5809 30.9486L43.7068 32.0748C43.7765 32.1445 43.8896 32.1445 43.9596 32.0748C44.0293 32.0048 44.0293 31.892 43.9596 31.822L42.8334 30.6961ZM18.1294 35.9789C18.0308 35.9789 17.9506 36.0589 17.9506 36.1577V37.7504C17.9506 37.849 18.0306 37.9288 18.1294 37.9288C18.2281 37.9288 18.3081 37.8492 18.3081 37.7504V36.1577C18.3081 36.0589 18.2279 35.9789 18.1294 35.9789ZM18.1294 40.755C18.0308 40.755 17.9506 40.8347 17.9506 40.9337V42.5259C17.9506 42.6245 18.0306 42.7046 18.1294 42.7046C18.2281 42.7046 18.3081 42.6246 18.3081 42.5259V40.9337C18.3081 40.8347 18.2279 40.755 18.1294 40.755ZM21.3136 39.163H19.7211C19.6225 39.163 19.5424 39.243 19.5424 39.3417C19.5424 39.4406 19.6223 39.5207 19.7211 39.5207H21.3136C21.4121 39.5207 21.4923 39.4407 21.4923 39.3417C21.4921 39.2431 21.4121 39.163 21.3136 39.163ZM16.7163 39.3417C16.7163 39.2431 16.6364 39.163 16.5376 39.163H14.9453C14.8467 39.163 14.7666 39.243 14.7666 39.3417C14.7666 39.4406 14.8466 39.5207 14.9453 39.5207H16.5378C16.6364 39.5206 16.7163 39.4406 16.7163 39.3417ZM19.3811 38.3426L20.507 37.2164C20.577 37.1467 20.577 37.0336 20.507 36.9639C20.4373 36.8939 20.3242 36.8939 20.2545 36.9639L19.1283 38.0899C19.0586 38.1599 19.0586 38.2726 19.1283 38.3426C19.1983 38.4123 19.3114 38.4123 19.3811 38.3426ZM16.8777 40.3409L15.7518 41.4665C15.6821 41.5368 15.6821 41.6496 15.7518 41.7196C15.8214 41.7893 15.9345 41.7893 16.0042 41.7196L17.1304 40.5934C17.2001 40.5237 17.2001 40.4106 17.1304 40.3409C17.0604 40.2712 16.9474 40.2712 16.8777 40.3409ZM19.3811 40.3409C19.3114 40.2712 19.1983 40.2712 19.1283 40.3409C19.0586 40.4106 19.0586 40.5237 19.1283 40.5934L20.2545 41.7196C20.3242 41.7893 20.4373 41.7893 20.507 41.7196C20.577 41.6496 20.577 41.5368 20.507 41.4665L19.3811 40.3409ZM16.0041 36.9639C15.9344 36.8939 15.8213 36.8939 15.7516 36.9639C15.6819 37.0336 15.6819 37.1467 15.7516 37.2164L16.8775 38.3426C16.9472 38.4123 17.0603 38.4123 17.1303 38.3426C17.2 38.2726 17.2 38.1599 17.1303 38.0899L16.0041 36.9639ZM75.9203 41.3158C75.8217 41.3158 75.7416 41.3958 75.7416 41.4945V43.0873C75.7416 43.1858 75.8215 43.2657 75.9203 43.2657C76.019 43.2657 76.099 43.186 76.099 43.0873V41.4945C76.099 41.3958 76.019 41.3158 75.9203 41.3158ZM75.9203 46.0917C75.8217 46.0917 75.7416 46.1714 75.7416 46.2704V47.8626C75.7416 47.9612 75.8215 48.0413 75.9203 48.0413C76.019 48.0413 76.099 47.9613 76.099 47.8626V46.2704C76.099 46.1715 76.019 46.0917 75.9203 46.0917ZM79.1045 44.4998H77.512C77.4134 44.4998 77.3333 44.5798 77.3333 44.6785C77.3333 44.7774 77.4133 44.8575 77.512 44.8575H79.1045C79.203 44.8575 79.2832 44.7776 79.2832 44.6785C79.2832 44.5798 79.203 44.4998 79.1045 44.4998ZM74.5074 44.6785C74.5074 44.58 74.4274 44.4998 74.3287 44.4998H72.7362C72.6376 44.4998 72.5575 44.5798 72.5575 44.6785C72.5575 44.7774 72.6375 44.8575 72.7362 44.8575H74.3287C74.4273 44.8574 74.5074 44.7774 74.5074 44.6785ZM77.1721 43.6795L78.298 42.5533C78.368 42.4836 78.368 42.3705 78.298 42.3008C78.2283 42.2308 78.1152 42.2308 78.0455 42.3008L76.9193 43.4267C76.8496 43.4967 76.8496 43.6095 76.9193 43.6795C76.9893 43.7492 77.1024 43.7492 77.1721 43.6795ZM74.6686 45.6777L73.5427 46.8033C73.473 46.8736 73.473 46.9864 73.5427 47.0564C73.6124 47.1261 73.7255 47.1261 73.7952 47.0564L74.9214 45.9302C74.9911 45.8605 74.9911 45.7474 74.9214 45.6777C74.8514 45.608 74.7383 45.608 74.6686 45.6777ZM77.1721 45.6777C77.1024 45.608 76.9893 45.608 76.9193 45.6777C76.8496 45.7474 76.8496 45.8605 76.9193 45.9302L78.0455 47.0564C78.1152 47.1261 78.2283 47.1261 78.298 47.0564C78.368 46.9864 78.368 46.8736 78.298 46.8033L77.1721 45.6777ZM73.7952 42.3008C73.7255 42.2308 73.6124 42.2308 73.5427 42.3008C73.473 42.3705 73.473 42.4836 73.5427 42.5533L74.6686 43.6795C74.7383 43.7492 74.8514 43.7492 74.9214 43.6795C74.9911 43.6095 74.9911 43.4967 74.9214 43.4267L73.7952 42.3008Z" fill="#FECC81"/>
<path d="M24.7869 57.0797C24.5504 56.675 24.3412 56.255 24.0852 55.8623C24.164 55.7077 24.3696 55.2901 24.6145 54.6882C24.6882 55.4842 24.7473 56.2814 24.7869 57.0797ZM25.3602 57.0586C25.3903 56.9455 25.5631 57.0008 25.5332 57.1136C25.4302 57.4985 25.2182 57.8337 25.0261 58.1783C25.0218 58.1863 25.0159 58.1904 25.0103 58.1962C25.0332 59.0252 25.0362 59.8551 25.0122 60.6848C25.2504 60.4912 25.5289 60.2228 25.7758 59.8832C25.7719 59.8329 25.7681 59.7827 25.7651 59.7326C25.6936 58.5429 25.8953 57.6975 26.2112 57.0948C26.1916 56.8687 26.168 56.6063 26.1408 56.3185C25.7832 54.8343 25.6307 54.9328 25.6791 53.4509C25.6892 53.1382 25.6972 52.8281 25.6972 52.5291C25.6866 52.4571 25.676 52.3854 25.6653 52.3144C25.6568 52.2589 25.6484 52.2042 25.6397 52.1491C25.6313 52.0952 25.623 52.0407 25.6143 51.9872C25.5962 51.8743 25.5779 51.7627 25.5592 51.6528C25.5374 51.7547 25.5146 51.8554 25.4913 51.9553C25.4858 51.9784 25.4805 52.0017 25.475 52.0247C25.4273 52.2253 25.3767 52.4213 25.3238 52.6124C25.3188 52.6305 25.3138 52.6488 25.3085 52.667C25.2817 52.7627 25.2547 52.8573 25.2268 52.9503C25.2267 52.9509 25.2264 52.9515 25.2262 52.9522C25.0761 53.4556 24.9149 53.9155 24.7615 54.3161C24.8778 55.4928 24.9611 56.6729 25.0011 57.8544C25.1451 57.6001 25.2838 57.3441 25.3602 57.0586ZM18.2718 56.2768C18.806 57.6243 19.8962 58.1356 20.7483 58.3261C20.7878 58.1648 20.8343 58.0142 20.887 57.8735C20.5465 57.3629 20.2175 56.8449 19.8974 56.3213C19.89 56.3195 19.8825 56.3189 19.875 56.3148C19.5263 56.1301 19.1658 55.9647 18.8702 55.6977C18.7833 55.6189 18.8985 55.4786 18.9853 55.5571C19.2041 55.7551 19.4602 55.8945 19.7196 56.0296C18.8178 54.5301 17.995 52.9822 17.2318 51.4083C17.1807 51.3029 17.352 51.2417 17.4028 51.3462C18.0478 52.6762 18.7357 53.9853 19.4776 55.263C19.4507 54.6861 19.3749 54.1123 19.413 53.5337C19.4207 53.4167 19.5996 53.4486 19.592 53.5643C19.553 54.161 19.6424 54.754 19.6634 55.3489C19.6655 55.4044 19.6257 55.4363 19.5833 55.4431C20.0255 56.1978 20.4865 56.9415 20.9701 57.6704C21.0877 57.407 21.2273 57.1821 21.3816 56.991C21.4423 56.5138 21.5241 55.8397 21.6057 55.0757C21.5578 55.0056 21.5083 54.9351 21.4539 54.864C20.4555 53.5593 19.1646 53.1308 18.6168 51.5671C18.0691 50.0035 16.7144 48.5522 15.7852 49.2088C14.8556 49.8656 15.7571 51.2724 16.7545 52.7041C17.751 54.1362 17.3224 53.8821 18.2718 56.2768ZM22.3373 60.9744L22.1249 61.6586C22.4106 61.7126 22.6959 61.7692 22.9805 61.8305C22.8399 61.5735 22.63 61.2598 22.3373 60.9744ZM38.012 65.5672C38.0258 65.6171 38.0401 65.6667 38.051 65.7176H16.0536C16.3047 64.5488 17.3278 63.6608 18.5727 63.6007C18.6175 63.5985 18.6621 63.5973 18.7077 63.5973C18.8451 63.5973 18.9793 63.6085 19.1111 63.6283C19.5515 63.6936 19.9567 63.8634 20.3019 64.1108C20.268 63.9741 20.2486 63.8308 20.2486 63.6831C20.2486 63.5062 20.2754 63.3356 20.3229 63.1739C20.2944 63.1669 20.2672 63.1621 20.2381 63.1544C18.877 62.7918 18.114 61.9095 16.696 61.989C15.2775 62.0678 13.6834 61.4709 13.8985 60.519C14.1143 59.5675 15.5243 59.82 16.9855 60.1402C18.4471 60.4603 18.1049 60.204 20.3133 60.1703C20.4178 60.1687 20.5182 60.1734 20.6163 60.1814C20.6392 60.5737 20.6854 60.9583 20.7447 61.3228C20.5273 61.1398 20.3097 60.9573 20.051 60.8342C19.9603 60.7914 19.8864 60.9285 19.9774 60.9721C20.2065 61.0805 20.4006 61.2371 20.5923 61.3983C19.1091 61.176 17.6133 61.032 16.1156 60.9441C16.0158 60.9382 16.0235 61.0935 16.1228 61.0995C17.3877 61.1736 18.6507 61.2897 19.9057 61.458C19.4399 61.626 18.9611 61.7545 18.5149 61.974C18.4245 62.0185 18.5087 62.1502 18.598 62.106C19.0574 61.8792 19.5565 61.7557 20.0353 61.5764C20.0798 61.5605 20.0919 61.5183 20.0834 61.4824C20.3194 61.515 20.5551 61.5498 20.7905 61.5864C20.8342 61.824 20.8823 62.0511 20.9323 62.2639C21.0264 62.6637 21.1258 63.013 21.211 63.2856C21.3083 63.5976 21.3859 63.8092 21.4139 63.8826L21.2153 63.7015L20.8811 65.567H23.2582L21.4296 63.8971L21.629 63.2549L22.0643 61.8535L22.0782 61.8086C22.4103 61.8714 22.7422 61.9373 23.0726 62.0095C23.101 62.0687 23.1235 62.1198 23.1432 62.166C23.2038 62.2065 23.2617 62.2508 23.3169 62.2979C23.5078 62.3538 23.6971 62.4149 23.8849 62.4804C23.9189 62.3595 23.9635 62.2434 24.0142 62.1307C23.5033 61.4013 23.0989 60.6085 22.6984 59.811L22.8343 59.3731C23.2537 60.2054 23.6657 61.0403 24.1856 61.8091C24.3058 61.6204 24.45 61.4483 24.6145 61.2973C24.6021 61.1989 24.5875 61.1 24.5649 61.0049C24.4946 61.048 24.4531 61.0704 24.4531 61.0704C24.4531 61.0704 23.2623 60.5528 22.964 58.9551L23.8663 56.0495L23.9547 55.9919C24.2171 56.3989 24.4286 56.8372 24.6779 57.253C24.706 57.3005 24.757 57.3056 24.7963 57.2879C24.8492 58.4498 24.8634 59.613 24.8263 60.7761C24.8554 60.8744 24.8764 60.9765 24.8935 61.0775C25.1812 60.8785 25.5108 60.7343 25.8683 60.6649C26.1077 62.189 26.637 63.593 26.7427 63.8639L26.4376 65.5667H28.8146L26.7965 63.724L27.3709 60.6429C27.49 60.6262 27.6117 60.6168 27.7355 60.6168C29.0837 60.6168 30.189 61.6385 30.303 62.9394C30.593 62.2988 31.2419 61.8513 31.9989 61.8513C33.0237 61.8513 33.8549 62.6718 33.8549 63.6826C33.8549 63.8305 33.8356 63.9736 33.8022 64.1103C34.0642 63.9225 34.361 63.7795 34.6813 63.693V65.5667H38.012V65.5672ZM23.8202 62.7965C23.781 62.7826 23.7419 62.7685 23.7029 62.7552C23.7384 62.8149 23.7718 62.8762 23.8005 62.94C23.8048 62.8913 23.8132 62.8441 23.8202 62.7965ZM64.0792 58.4651C64.0573 58.8287 64.0104 59.2801 63.9487 59.7742C64.213 60.1664 64.5257 60.4707 64.789 60.6848C64.765 59.8551 64.7679 59.0252 64.7908 58.1962C64.7852 58.1904 64.7793 58.1863 64.7751 58.1783C64.583 57.8337 64.371 57.4985 64.268 57.1136C64.2381 57.0008 64.4107 56.9455 64.441 57.0586C64.5173 57.3441 64.6561 57.6001 64.8002 57.8547C64.8519 56.3257 64.9751 54.799 65.1501 53.2791C64.8766 52.5877 64.5674 51.6882 64.337 50.6844C64.0775 51.3409 64.0871 52.3818 64.1221 53.451C64.1673 54.8341 64.0373 54.8409 63.729 56.0423C63.9877 56.624 64.143 57.4063 64.0792 58.4651ZM69.1008 57.2554C69.4865 56.6596 69.8593 56.0554 70.2181 55.4431C70.1756 55.4363 70.1358 55.4044 70.138 55.3489C70.159 54.754 70.2482 54.1612 70.2093 53.5643C70.2016 53.4486 70.3806 53.4166 70.3883 53.5337C70.4264 54.1122 70.3507 54.6859 70.3238 55.263C71.0655 53.9853 71.7536 52.6762 72.3985 51.3462C72.4493 51.2418 72.6206 51.3029 72.5695 51.4083C71.8063 52.9822 70.9836 54.5301 70.0817 56.0296C70.3413 55.8945 70.5973 55.7551 70.816 55.5571C70.9028 55.4785 71.018 55.6189 70.9311 55.6977C70.6357 55.9647 70.2751 56.1301 69.9263 56.3148C69.9187 56.3189 69.9112 56.3195 69.9039 56.3213C69.6572 56.7247 69.4045 57.1245 69.1463 57.5204C69.1803 57.7567 69.201 58.0117 69.2054 58.2886C70.0314 58.072 71.0266 57.5454 71.5295 56.2768C72.4788 53.8821 72.0502 54.1364 73.047 52.7043C74.0444 51.2725 74.9461 49.8657 74.0163 49.2089C73.087 48.5522 71.7324 50.0036 71.1846 51.5672C70.6369 53.131 69.346 53.5594 68.3476 54.8642C68.3402 54.8739 68.3343 54.8832 68.3269 54.8928C68.3651 55.2165 68.4008 55.5051 68.431 55.7435C68.7267 56.1097 68.9699 56.6001 69.1008 57.2554ZM69.563 63.1544C69.5339 63.1621 69.5067 63.1669 69.4782 63.1739C69.5255 63.3356 69.5524 63.5062 69.5524 63.6831C69.5524 63.8309 69.533 63.9741 69.4992 64.1108C69.8443 63.8633 70.2495 63.6935 70.6899 63.6283C70.8218 63.6085 70.9559 63.5973 71.0933 63.5973C71.139 63.5973 71.1836 63.5987 71.2283 63.6007C72.4732 63.6607 73.4963 64.5488 73.7474 65.7176H51.75C51.7609 65.6667 51.7752 65.6171 51.7892 65.5672H55.3184V63.7561C55.563 63.8429 55.7916 63.9625 55.9983 64.1108C55.9649 63.9741 55.9455 63.8308 55.9455 63.6831C55.9455 62.6721 56.7767 61.8517 57.8015 61.8517C58.5585 61.8517 59.2074 62.2992 59.4974 62.9398C59.6115 61.639 60.7167 60.6172 62.0649 60.6172C62.1979 60.6172 62.328 60.6284 62.4556 60.6476L62.9389 64.0449L60.3622 65.5672H63.3514L63.1524 64.7574C63.2856 64.0278 63.6017 62.2546 63.8308 60.6504C64.2269 60.7111 64.5923 60.8605 64.907 61.0779C64.924 60.9769 64.9451 60.8749 64.9741 60.7766C64.937 59.6135 64.9514 58.4501 65.0042 57.2884C65.0435 57.3059 65.0946 57.3009 65.1225 57.2534C65.429 56.7424 65.677 56.1966 66.0344 55.7175C66.1039 55.6245 65.9704 55.5001 65.901 55.5943C65.5537 56.0587 65.3052 56.5815 65.0137 57.08C65.071 55.928 65.1667 54.778 65.2926 53.6311C65.5698 54.2928 65.7808 54.6903 65.7808 54.6903L65.9636 54.809L66.8621 58.7977C66.6161 60.5197 65.3472 61.0708 65.3472 61.0708C65.3472 61.0708 65.3056 61.0486 65.2353 61.0053C65.2128 61.1004 65.1981 61.1992 65.1857 61.2977C65.3502 61.4488 65.4945 61.6208 65.6147 61.8095C66.142 61.0298 66.5582 60.1821 66.984 59.3379L67.0942 59.8271C66.6963 60.6192 66.2938 61.4065 65.7864 62.131C65.8372 62.2437 65.8818 62.36 65.9157 62.4807C66.1035 62.4152 66.2928 62.3541 66.4837 62.2982C66.5389 62.251 66.5968 62.2068 66.6574 62.1663C66.6771 62.1199 66.6995 62.0688 66.728 62.0098C67.0008 61.95 67.2741 61.8943 67.5481 61.8413L67.5516 61.8573L67.8517 63.1899L68.0992 64.288L65.9341 65.5672H68.3875H68.9234L68.591 64.2137C68.632 63.9316 68.6763 63.6184 68.7222 63.2847C68.7673 62.9569 68.8135 62.611 68.8587 62.2569C68.8867 62.0389 68.9139 61.8181 68.9405 61.5973C69.1992 61.5567 69.4581 61.5185 69.7173 61.4825C69.7089 61.5185 69.721 61.5607 69.7654 61.5765C70.2442 61.7559 70.7433 61.8794 71.2028 62.1062C71.292 62.1503 71.376 62.0186 71.2858 61.9742C70.8396 61.7546 70.3608 61.6261 69.895 61.4582C71.1502 61.2899 72.4131 61.1738 73.6779 61.0997C73.7772 61.0936 73.7849 60.9384 73.6852 60.9443C72.1875 61.0321 70.6915 61.1762 69.2084 61.3984C69.4003 61.2373 69.5944 61.0805 69.8233 60.9722C69.9143 60.9287 69.8403 60.7916 69.7497 60.8344C69.4546 60.9748 69.2131 61.1925 68.9643 61.4C69.0127 60.9889 69.0571 60.5807 69.0944 60.1921C69.2204 60.1777 69.3498 60.1685 69.4874 60.1705C71.6957 60.2042 71.3537 60.4605 72.8152 60.1404C74.2765 59.8202 75.6864 59.5677 75.9022 60.5191C76.1173 61.471 74.5232 62.0678 73.1047 61.9891C71.6869 61.9093 70.9238 62.7917 69.563 63.1544ZM65.9808 62.7965C65.988 62.8441 65.9963 62.8914 66.0005 62.9398C66.0292 62.876 66.0626 62.8148 66.0983 62.7551C66.0592 62.7685 66.02 62.7826 65.9808 62.7965ZM67.5144 61.6896L67.3738 61.0657C67.1278 61.3256 66.9462 61.6007 66.8206 61.8305C67.0513 61.781 67.2826 61.7345 67.5144 61.6896Z" fill="#C5CECB"/>
<path d="M29.6582 32.4041C29.168 32.6965 29.0767 32.9698 29.027 33.1354C28.9857 33.2734 28.8984 33.4509 28.8705 33.5067C28.8649 33.5179 28.8608 33.5259 28.8608 33.5259C28.8608 33.5259 28.8613 33.5168 28.8619 33.5041C28.8679 33.3741 28.8924 32.6491 28.6803 32.6993C28.2947 32.79 27.9603 34.0157 27.9603 34.0157C27.9679 34.0602 27.981 34.1031 27.9918 34.1467L27.395 36.1356L27.4445 36.1235C27.5102 36.5785 27.799 36.9948 28.3738 37.1671C28.9486 37.3398 29.4187 37.1511 29.7241 36.8073L29.7694 36.8743L30.1247 35.6897C30.8889 35.7822 31.1958 35.0986 31.4546 34.2359L31.7653 33.2005C31.7995 33.0868 31.8209 32.9725 31.8321 32.8588L29.8169 32.2541C29.7744 32.3141 29.7226 32.3657 29.6582 32.4041ZM31.0159 33.5531C31.0354 33.4533 31.1016 33.3821 31.1628 33.3933C31.2245 33.4048 31.2579 33.4949 31.2384 33.5941C31.2183 33.6942 31.1525 33.7657 31.0914 33.7542C31.0298 33.7427 30.9968 33.6526 31.0159 33.5531ZM29.924 33.0215C29.9855 33.033 30.0191 33.1231 29.9997 33.2223C29.9794 33.3224 29.9137 33.3939 29.8528 33.3824C29.7911 33.3711 29.7577 33.2808 29.7772 33.1816C29.7967 33.0818 29.863 33.0103 29.924 33.0215ZM37.2923 43.5156C37.3126 43.6545 37.3044 43.7997 37.2615 43.943C37.1036 44.4688 36.5497 44.7671 36.0237 44.6093C35.8519 44.5577 35.7051 44.4634 35.5898 44.3421C35.3843 44.1258 35.2821 43.8226 35.3267 43.5154C35.3338 43.4675 35.343 43.4194 35.3574 43.3716C35.3914 43.2585 35.4445 43.1566 35.511 43.0668C35.7534 42.7394 36.1824 42.5812 36.5952 42.705C36.9775 42.8201 37.2387 43.1447 37.2923 43.5156ZM58.3793 30.5302C58.3786 30.5305 58.3757 30.5313 58.3757 30.5313L58.379 30.5273C58.3792 30.5281 58.3793 30.5293 58.3793 30.5302ZM57.5092 33.8189C57.8896 34.5419 58.3278 35.0136 59.1094 34.6442L59.4836 34.4673L59.9742 35.5053L60.484 35.2783L61.4822 34.834L61.6114 34.7764C61.6151 34.7746 61.6193 34.7736 61.6229 34.7721L60.7377 32.8994C60.7418 32.8551 60.7483 32.8111 60.7491 32.7665C60.7491 32.7665 60.4055 31.9903 60.0655 31.6942C59.9913 31.6295 59.9174 31.5867 59.8471 31.5811C59.6313 31.5634 59.7627 32.2718 59.7878 32.3983C59.7904 32.4106 59.792 32.4195 59.792 32.4195C59.792 32.4195 59.7869 32.4122 59.7798 32.4021C59.7441 32.3516 59.6321 32.1901 59.571 32.0606C59.4977 31.9057 59.3675 31.6508 58.8433 31.4366C58.7895 31.4145 58.7431 31.3822 58.7006 31.3448C58.4995 31.5278 58.2503 31.7174 58.0013 31.8924C57.9741 31.9116 57.9471 31.9305 57.9198 31.9493C57.471 32.2597 57.0419 32.5138 56.919 32.5856L57.3518 33.5018C57.4037 33.6113 57.4558 33.7176 57.5092 33.8189ZM58.6298 32.2905C58.5957 32.196 58.6149 32.1026 58.6741 32.082C58.7322 32.0616 58.8079 32.1221 58.8418 32.2172C58.8735 32.3062 58.8574 32.3917 58.8064 32.419C58.8032 32.4208 58.8011 32.4245 58.7975 32.4258C58.744 32.4443 58.6765 32.3929 58.6397 32.3099C58.6366 32.3031 58.6324 32.2978 58.6298 32.2905ZM57.5131 32.631C57.5715 32.6104 57.6474 32.6709 57.6811 32.766C57.7144 32.8607 57.6956 32.9541 57.6368 32.9746C57.5785 32.9948 57.503 32.9346 57.4687 32.8393C57.4347 32.7448 57.4542 32.6514 57.5131 32.631ZM57.5723 43.4944C57.4953 43.6098 57.4016 43.681 57.3045 43.6798C56.7831 43.6725 55.6252 43.1727 54.5722 42.5357C55.0578 42.4477 55.5085 42.2596 55.9013 41.9923C56.1323 41.8352 56.3434 41.6509 56.53 41.4443C56.8797 41.5764 57.174 41.7072 57.3033 41.8123C57.8882 42.2865 57.8192 43.1243 57.5723 43.4944ZM62.2434 42.1677C61.8591 42.1624 61.1287 41.8891 60.3498 41.491C59.8058 41.213 59.2388 40.8741 58.7484 40.5225C58.3122 40.2098 57.9365 39.887 57.6935 39.5881C57.5878 39.5828 57.4761 39.5771 57.3943 39.5729C57.3232 39.5694 57.2743 39.5668 57.2741 39.567C57.266 39.5715 57.2587 39.5762 57.2501 39.5803C57.1922 39.6091 57.1208 39.6289 57.0407 39.6421C56.9734 39.6533 56.8893 39.6433 56.8006 39.6202C56.5815 39.5632 56.3316 39.4183 56.219 39.2557C56.0254 38.9763 56.4763 38.0549 56.5017 38.0519C56.5145 38.0505 56.6846 37.9878 56.6993 37.9881C56.7508 37.9897 57.0463 37.9545 57.2824 38.1284C57.2917 38.1352 57.3004 38.1429 57.3095 38.1505C57.4019 38.2267 57.4832 38.3366 57.5334 38.4988C57.5404 38.503 57.5464 38.5076 57.5534 38.5118C57.5602 38.5058 57.5665 38.5006 57.5709 38.4968C57.5745 38.4935 57.733 38.669 57.9085 38.862C58.5261 38.9332 59.4918 39.2968 59.4918 39.2968C59.4918 39.2968 61.8056 39.9454 62.242 40.3001C63.0098 40.9227 62.6522 42.173 62.2434 42.1677Z" fill="#FFD2BB"/>
<path d="M26.7967 63.7249L28.8148 65.5676H26.4378L26.7429 63.8648L26.772 63.7021L26.7967 63.7249ZM21.4137 63.8834L21.2151 63.7023L20.8809 65.5678H23.258L21.4294 63.8979L21.4137 63.8834ZM28.9009 30.6294C28.6546 30.7241 28.5561 30.811 28.5268 30.8822C28.4453 30.945 28.3625 31.0218 28.2776 31.1185C28.2776 31.1185 27.724 31.9676 27.7282 33.1483C27.7303 33.7111 27.916 33.753 27.9601 34.0158C27.9601 34.0158 28.2946 32.7901 28.6801 32.6994C28.8922 32.6492 28.8677 33.3741 28.8617 33.5042C28.8611 33.5169 28.8606 33.5259 28.8606 33.5259C28.8606 33.5259 28.8647 33.5179 28.8703 33.5067C28.8984 33.4509 28.9855 33.2734 29.0268 33.1354C29.0765 32.9699 29.1678 32.6965 29.658 32.4041C29.7224 32.3657 29.7743 32.3141 29.8166 32.2544L31.8318 32.8592H31.8321C31.8321 32.8592 32.0482 32.4156 31.9035 31.8461C31.7311 31.1677 30.0647 30.1824 28.9009 30.6294ZM59.9742 35.5053L58.5904 36.1214L58.5997 36.1469C58.2066 36.2284 57.7393 36.6438 57.539 37.2276C56.7743 36.9095 56.5662 36.4471 56.4852 36.1271C56.2363 35.1471 57.0249 34.364 57.5092 33.8188C57.8896 34.5418 58.3277 35.0135 59.1094 34.6441L59.4836 34.4672L59.9742 35.5053ZM58.599 36.1465L58.5969 36.1426C58.5907 36.1471 58.5913 36.1483 58.599 36.1465ZM71.6158 42.2585C70.6875 43.6967 68.0772 45.8675 68.0772 45.8675L67.9837 45.8581C67.7298 44.3868 67.0273 42.9047 66.7818 42.4172L66.7969 42.4101C66.785 42.3991 66.7741 42.3893 66.7623 42.3784C66.7203 42.2957 66.6953 42.2493 66.6953 42.2493L66.6469 42.273C66.4032 42.0521 66.1823 41.8651 66.0124 41.7266C65.5921 41.2508 65.2276 40.7823 65.0873 40.4549C65.0724 40.4206 65.0543 40.3697 65.0331 40.3048C65.0005 40.2056 64.9604 40.0723 64.9137 39.9138C64.5988 38.843 63.9865 36.5978 63.3637 35.5227C63.2576 35.3394 63.1511 35.1893 63.0459 35.0858C62.9901 35.0312 62.9349 34.9882 62.8799 34.9609C62.4865 34.6774 62.0199 34.59 61.6232 34.7719L60.738 32.8991C60.7421 32.8548 60.7486 32.8108 60.7493 32.7662C60.7493 32.7662 60.4058 31.99 60.0658 31.694C59.9916 31.6293 59.9176 31.5865 59.8473 31.5809C59.6316 31.5632 59.763 32.2715 59.7881 32.3981C59.7906 32.4103 59.7923 32.4192 59.7923 32.4192C59.7923 32.4192 59.7872 32.412 59.7801 32.4018C59.7444 32.3513 59.6324 32.1899 59.5713 32.0603C59.4979 31.9055 59.3678 31.6506 58.8436 31.4363C58.7898 31.4143 58.7434 31.3819 58.7009 31.3446C58.4998 31.5275 58.2506 31.7171 58.0016 31.8922C57.9744 31.9114 57.9473 31.9303 57.9201 31.949C57.4712 32.2594 57.0422 32.5136 56.9193 32.5854C56.8967 32.5987 56.8833 32.6064 56.8833 32.6064C56.8833 32.6064 55.7199 32.3278 56.4303 30.9099C56.665 30.442 58.014 29.9972 58.6976 29.7981C59.0784 29.5959 59.4771 29.5217 60.0079 29.9697C60.0079 29.9697 60.3036 30.3033 60.5522 30.8668C60.7484 31.0688 61.0511 31.2675 61.5163 31.3512C62.1111 31.4583 63.6723 31.0112 64.4285 32.0379C64.5694 32.2296 64.7253 32.5198 64.7122 32.9634L64.7797 32.8772C64.7797 32.8772 64.4703 34.2521 65.5732 34.4503C66.1681 34.5573 67.7294 34.1103 68.4854 35.137C68.745 35.4891 69.0575 36.1717 68.2687 37.5365C68.2337 37.9331 68.2674 38.7415 69.0936 38.8903C69.6884 38.997 71.2497 38.5501 72.0057 39.5768C72.2819 39.9528 72.6191 40.7042 71.6158 42.2585ZM58.3793 30.5303C58.3793 30.5294 58.3791 30.5281 58.379 30.5272L58.3757 30.5312C58.3755 30.5312 58.3785 30.5306 58.3793 30.5303ZM62.9726 64.0255L62.9389 64.0455L60.3621 65.5678H63.3513L63.1523 64.758L62.9726 64.0255ZM68.5447 64.0255L68.0994 64.2886L65.9344 65.5678H68.3877H68.9237L68.5912 64.2143L68.5447 64.0255Z" fill="#222AEF"/>
<path d="M35.59 44.3421C34.3592 44.7367 32.4881 44.8411 31.478 44.6656C31.4171 44.7008 31.3465 44.709 31.2644 44.6809C31.1566 44.6441 31.0492 44.5831 30.9425 44.5047C30.9402 44.5035 30.9375 44.5023 30.9352 44.5013C30.9292 44.4979 30.9254 44.4913 30.9196 44.4871C30.5483 44.2049 30.1876 43.6923 29.8643 43.0624L28.6548 48.8345L28.5992 49.1003L21.8245 47.5178L21.8214 47.517L21.6948 47.4876L25.1912 37.4826C25.4582 36.5929 26.2391 36.04 26.936 36.2491L27.3951 36.1357L27.4446 36.1236C27.5103 36.5786 27.7991 36.9949 28.3739 37.1672C28.9487 37.3399 29.4188 37.1512 29.7242 36.8074L29.7695 36.8744L29.9597 37.156C30.3447 37.2715 30.6221 37.5961 30.7199 38.1105C30.7654 38.1796 30.8082 38.2526 30.8471 38.3311C31.1888 39.0204 31.7711 41.6518 31.7711 41.6518C31.7711 41.6518 31.8165 42.1126 31.8303 42.6757C31.8779 42.6566 31.9261 42.6386 31.9769 42.6256C32.3227 42.5372 33.3279 42.6873 34.0411 42.8141C34.4773 42.8917 34.8045 42.9605 34.8045 42.9605C34.8045 42.9605 35.1298 42.995 35.5113 43.0669C35.4449 43.1567 35.3917 43.2586 35.3577 43.3717C35.3433 43.4195 35.3341 43.4676 35.327 43.5155C35.2824 43.8227 35.3846 44.1257 35.59 44.3421ZM57.6939 39.5881C57.5882 39.5828 57.4765 39.577 57.3947 39.5728C57.3007 40.2878 56.9903 40.9343 56.5302 41.4439C56.8799 41.5761 57.1743 41.7068 57.3035 41.8119C57.8885 42.2865 57.8194 43.1242 57.5725 43.4942C58.0276 43.0547 58.6277 41.6982 58.7486 40.5224C58.3124 40.2096 57.9367 39.8868 57.6939 39.5881ZM66.7623 42.3783C66.7229 42.3421 66.6848 42.3075 66.6467 42.273C66.403 42.0522 66.1821 41.8651 66.0122 41.7266C65.5919 41.2509 65.2274 40.7823 65.0871 40.455C65.0723 40.4207 65.0541 40.3697 65.033 40.3049C65.0003 40.2057 64.9602 40.0723 64.9135 39.9139C64.5986 38.843 63.9863 36.5978 63.3635 35.5227C63.2574 35.3395 63.151 35.1894 63.0457 35.0858C62.9899 35.0312 62.9347 34.9883 62.8797 34.9609C62.4863 34.6774 62.0197 34.5901 61.623 34.7719C61.6194 34.7736 61.6152 34.7745 61.6115 34.7762L61.4823 34.8338L60.4841 35.2781L59.9743 35.505L58.5905 36.1211L58.5998 36.1467C58.2068 36.2282 57.7394 36.6435 57.5391 37.2274C57.4986 37.3453 57.4682 37.4696 57.4526 37.6001C57.4399 37.7065 57.3876 37.9009 57.3099 38.1504C57.4023 38.2266 57.4836 38.3365 57.5338 38.4988C57.5408 38.503 57.5468 38.5075 57.5538 38.5118C57.5606 38.5057 57.5669 38.5006 57.5713 38.4968C57.5749 38.4935 57.7334 38.669 57.9089 38.8619C58.5265 38.9331 59.4922 39.2967 59.4922 39.2967C59.4922 39.2967 61.806 39.9453 62.2424 40.3C63.0099 40.9225 62.6525 42.173 62.2437 42.1677C61.8593 42.1624 61.1289 41.889 60.35 41.4909C60.8553 42.0354 61.3067 42.5644 61.4359 42.8255C61.5819 43.1212 61.7287 43.6091 61.859 44.1241C61.9061 44.309 61.9508 44.4969 61.9927 44.6812L64.3881 43.5489L66.7821 42.4173L66.7972 42.4102C66.7849 42.399 66.774 42.3892 66.7623 42.3783Z" fill="#FF4C2E"/>
<path d="M28.8057 50.8882C28.8131 51.0651 28.8172 51.2404 28.8187 51.4137C28.8187 51.4278 28.8187 51.4417 28.8187 51.4556C28.8198 51.6169 28.8183 51.7763 28.8148 51.9332C28.8145 51.9492 28.814 51.9654 28.8136 51.9813C28.8097 52.139 28.8038 52.2941 28.7957 52.4462C28.7953 52.4571 28.7948 52.4683 28.7942 52.479C28.7865 52.6217 28.7772 52.761 28.7667 52.8979C28.7652 52.9158 28.7643 52.935 28.7631 52.9528H28.7623C28.6344 54.577 28.3354 55.7498 28.3354 55.7498L28.2702 55.8206L27.3714 60.6437L26.797 63.7248L26.7722 63.7021L26.7432 63.8648C26.6375 63.5938 26.1082 62.1899 25.8689 60.6657C25.8282 60.4068 25.7963 60.1446 25.7759 59.8838C25.772 59.8334 25.7682 59.7833 25.7652 59.7332C25.6936 58.5435 25.8953 57.6981 26.2113 57.0954C26.1917 56.8692 26.1681 56.6069 26.1409 56.3191C26.0505 55.3623 25.9191 54.1173 25.7534 52.9214C25.7402 52.8272 25.7269 52.733 25.7135 52.6394C25.7101 52.6155 25.7065 52.5916 25.703 52.5676C25.7011 52.5549 25.6992 52.5423 25.6974 52.5296C25.6868 52.4577 25.6763 52.386 25.6655 52.315C25.6571 52.2595 25.6486 52.2047 25.64 52.1497C25.6315 52.0957 25.6232 52.0413 25.6146 51.9878C25.5964 51.8748 25.5781 51.7633 25.5594 51.6533C25.5376 51.7552 25.5148 51.8559 25.4915 51.9559C25.4861 51.979 25.4808 52.0023 25.4752 52.0253C25.4276 52.2259 25.3769 52.4218 25.324 52.6129C25.319 52.6311 25.314 52.6494 25.3087 52.6675C25.282 52.7632 25.2549 52.8579 25.2271 52.9509C25.2269 52.9515 25.2266 52.9521 25.2265 52.9528C25.0763 53.4561 24.9152 53.916 24.7617 54.3167C24.7118 54.4469 24.6627 54.5716 24.6149 54.6886C24.37 55.2904 24.1644 55.7079 24.0856 55.8628C24.0635 55.9065 24.0508 55.9303 24.0508 55.9303L23.9553 55.9925L23.8668 56.0501L22.9645 58.9556L22.8348 59.3737L22.6989 59.8115L22.3377 60.9746L22.1253 61.6589L22.0786 61.809L22.0646 61.8539L21.6294 63.2553L21.43 63.8976L21.4142 63.8831C21.3863 63.8096 21.3087 63.5981 21.2113 63.286C21.1262 63.0134 21.0267 62.6642 20.9327 62.2643C20.8826 62.0515 20.8346 61.8245 20.7909 61.5868C20.7752 61.5002 20.7596 61.4125 20.7451 61.3233C20.6858 60.9588 20.6397 60.5741 20.6167 60.1818C20.6087 60.0478 20.6036 59.9134 20.6014 59.7783C20.593 59.2163 20.6482 58.737 20.7485 58.3262C20.788 58.1649 20.8346 58.0143 20.8872 57.8736C20.9135 57.8036 20.941 57.7358 20.9702 57.6707C21.0878 57.4073 21.2274 57.1823 21.3817 56.9912C21.4424 56.5141 21.5241 55.8399 21.6058 55.076C21.6767 54.4133 21.7471 53.6831 21.8037 52.9527C21.8197 52.7461 21.8345 52.5401 21.848 52.3352C21.8481 52.3339 21.8481 52.3326 21.8483 52.3314C21.8548 52.2321 21.861 52.1331 21.8667 52.0348C21.867 52.0303 21.8673 52.0256 21.8675 52.0212C21.8729 51.9287 21.8779 51.8367 21.8828 51.7454C21.8834 51.7342 21.884 51.723 21.8846 51.7117C21.889 51.6252 21.893 51.5394 21.8967 51.4542C21.8973 51.44 21.898 51.4258 21.8986 51.4116C21.902 51.3304 21.9051 51.2501 21.908 51.1701C21.9086 51.1526 21.9092 51.1348 21.9098 51.1171C21.9124 51.0419 21.9144 50.9679 21.9162 50.8939C21.9168 50.8726 21.9174 50.8513 21.9178 50.8301C21.9194 50.761 21.9206 50.6931 21.9213 50.6254C21.9216 50.6012 21.9221 50.5767 21.9224 50.5525C21.923 50.4889 21.9231 50.4264 21.9231 50.3645C21.9231 50.3382 21.9233 50.3115 21.9233 50.2857C21.923 50.2267 21.9222 50.1694 21.9213 50.1123C21.921 50.0849 21.9207 50.0571 21.9203 50.0302C21.9192 49.9759 21.9174 49.9234 21.9159 49.8708C21.915 49.8427 21.9144 49.814 21.9133 49.7865C21.9113 49.7373 21.9089 49.69 21.9064 49.6425C21.9048 49.6138 21.9036 49.584 21.9021 49.5559C21.8992 49.5108 21.8959 49.4679 21.8926 49.4247C21.8903 49.3965 21.8887 49.3675 21.8862 49.3402C21.8826 49.2972 21.8781 49.2567 21.8737 49.2157C21.871 49.1906 21.8689 49.1643 21.866 49.14C21.8608 49.0972 21.8549 49.0571 21.8491 49.0168C21.8462 48.9968 21.8438 48.9755 21.8406 48.9561C21.8314 48.8976 21.8214 48.8421 21.8103 48.7895C21.7379 48.4445 21.7376 48.0921 21.7863 47.7434C21.796 47.6683 21.8082 47.5927 21.8218 47.5168L21.825 47.5176L28.5997 49.1001L28.6553 48.8343C28.7227 49.5325 28.7787 50.2425 28.8057 50.8882ZM69.2052 58.289C69.201 58.0121 69.1801 57.757 69.1461 57.5209C69.1328 57.4297 69.1178 57.3412 69.1007 57.256C68.9698 56.6007 68.7267 56.1103 68.4308 55.7439C68.4006 55.5055 68.3647 55.2169 68.3266 54.8932C68.0735 52.7496 67.706 49.0307 68.0057 47.6015C68.1172 47.0696 68.0887 46.4648 67.9837 45.8581C67.7297 44.3867 67.0273 42.9046 66.7818 42.4172L64.3878 43.5488L61.9924 44.6811C61.9507 44.4968 61.9058 44.3089 61.8587 44.124C61.6076 45.0149 61.0497 47.2678 61.0606 49.6846C61.0718 52.266 61.5275 54.5111 61.5275 54.5111L61.5922 54.5814L62.4556 60.6479L62.939 64.0451L62.9727 64.0252L63.1525 64.7577C63.2857 64.028 63.6018 62.2549 63.8309 60.6506C63.8738 60.3498 63.9136 60.0554 63.9485 59.7746C64.0102 59.2804 64.0572 58.8291 64.079 58.4655C64.1428 57.4067 63.9875 56.6245 63.7288 56.0427C63.699 55.9754 63.6686 55.9092 63.6361 55.8472C63.7442 54.6049 63.9692 52.2856 64.2834 50.4446C64.3005 50.5253 64.3184 50.6055 64.3367 50.685C64.567 51.6887 64.8763 52.5883 65.1498 53.2797C65.1988 53.4038 65.2469 53.5213 65.2929 53.6314C65.57 54.2931 65.781 54.6906 65.781 54.6906L65.9638 54.8093L66.8624 58.798L66.9842 59.3382L67.0944 59.8274L67.3737 61.0661L67.5143 61.6901L67.5485 61.8415L67.5519 61.8576L67.852 63.1902L68.0995 64.2882L68.5448 64.0252L68.5912 64.214C68.6322 63.9319 68.6765 63.6186 68.7224 63.285C68.7675 62.9572 68.8138 62.6113 68.859 62.2572C68.8869 62.0392 68.9141 61.8184 68.9408 61.5975C68.9488 61.5316 68.9566 61.4658 68.9643 61.4001C69.0127 60.989 69.0572 60.5808 69.0945 60.1922C69.1562 59.5507 69.1985 58.9635 69.2052 58.5102C69.2067 58.4351 69.2062 58.3616 69.2052 58.289ZM66.6953 42.2494L66.6469 42.2731C66.685 42.3077 66.7231 42.3422 66.7624 42.3783C66.7202 42.2958 66.6953 42.2494 66.6953 42.2494ZM58.6744 32.082C58.6151 32.1026 58.5959 32.196 58.6301 32.2905C58.6327 32.2978 58.6369 32.3031 58.6399 32.3099C58.6768 32.3929 58.7441 32.4443 58.7978 32.4258C58.8012 32.4245 58.8034 32.4209 58.8067 32.419C58.8576 32.3917 58.8738 32.3063 58.8421 32.2172C58.8082 32.1221 58.7325 32.0618 58.6744 32.082ZM57.5134 32.631C57.4543 32.6514 57.4348 32.7449 57.469 32.8393C57.5034 32.9346 57.5789 32.9946 57.6371 32.9747C57.6959 32.9541 57.7146 32.8607 57.6814 32.766C57.6477 32.6709 57.5718 32.6104 57.5134 32.631ZM29.853 33.3824C29.9138 33.3939 29.9797 33.3226 30 33.2223C30.0193 33.1231 29.9858 33.033 29.9242 33.0215C29.8633 33.0103 29.7969 33.0817 29.7774 33.1816C29.7579 33.2808 29.7913 33.3711 29.853 33.3824ZM31.0917 33.7542C31.1526 33.7657 31.2186 33.6943 31.2387 33.5941C31.2582 33.4949 31.2248 33.4048 31.1631 33.3933C31.102 33.3821 31.0356 33.4532 31.0161 33.5531C30.9971 33.6526 31.03 33.7427 31.0917 33.7542Z" fill="#FBC02D"/>
<path d="M35.511 43.0671C35.7533 42.7397 36.1824 42.5815 36.5951 42.7053C36.9775 42.8201 37.2386 43.1447 37.2923 43.5156C38.734 43.0913 39.7867 41.759 39.7867 40.1799C39.7867 38.2593 38.2299 36.7025 36.3094 36.7025C34.3888 36.7025 32.832 38.2593 32.832 40.1799C32.832 41.2334 33.301 42.1765 34.0408 42.8142C34.477 42.8918 34.8041 42.9605 34.8041 42.9605C34.8041 42.9605 35.1295 42.995 35.511 43.0671ZM35.5923 38.7588C35.7332 38.6123 35.9444 38.5219 36.2261 38.4872V38.1635H36.6387V38.4823C36.9031 38.4996 37.1697 38.5768 37.438 38.7138L37.201 39.387C36.9231 39.239 36.6727 39.1649 36.4494 39.1649C36.3431 39.1649 36.2684 39.1804 36.2252 39.2111C36.1821 39.2417 36.1603 39.2871 36.1603 39.3468C36.1603 39.3988 36.176 39.4418 36.2073 39.4756C36.2385 39.5097 36.2926 39.5475 36.3697 39.589C36.4468 39.6308 36.5537 39.6793 36.6907 39.7343C36.9683 39.8509 37.1675 39.9835 37.2886 40.1324C37.4094 40.2812 37.4699 40.473 37.4699 40.7078C37.4699 40.9724 37.3992 41.1874 37.2576 41.3528C37.1161 41.5182 36.9098 41.6206 36.6387 41.6599V42.1159H36.2261V41.6741C35.935 41.6584 35.6547 41.5813 35.385 41.4426V40.6582C35.5392 40.7511 35.7066 40.8286 35.8873 40.8909C36.0679 40.9531 36.2267 40.9842 36.3637 40.9842C36.4765 40.9842 36.5593 40.968 36.6118 40.9358C36.6644 40.9035 36.6905 40.8496 36.6905 40.7741C36.6905 40.722 36.6715 40.6779 36.6337 40.6418C36.5957 40.6055 36.5327 40.5645 36.4442 40.5188C36.356 40.473 36.2367 40.418 36.0865 40.3533C35.9178 40.2794 35.7816 40.1962 35.678 40.1041C35.5745 40.0121 35.4989 39.9089 35.4517 39.7946C35.4045 39.6805 35.3809 39.5384 35.3809 39.3683C35.3811 39.1085 35.4514 38.9054 35.5923 38.7588ZM39.4915 57.326H39.3976V56.451H39.5205C39.636 56.451 39.7219 56.4856 39.7786 56.5547C39.835 56.6238 39.8634 56.7298 39.8634 56.873C39.8634 57.0262 39.8336 57.14 39.7736 57.2144C39.7139 57.2888 39.6197 57.326 39.4915 57.326ZM34.6818 63.6941V65.5677H38.0118H51.7889H55.3181V63.7566V47.3505H34.6818V63.6941ZM49.5369 56.1101H50.0882L50.6566 57.1956H50.6632C50.6532 57.0382 50.648 56.9119 50.648 56.8163V56.1101H51.0242V57.6722H50.4708L49.9004 56.5717H49.8907C49.9043 56.7449 49.9111 56.8771 49.9111 56.9681V57.6722H49.5369V56.1101V56.1101ZM47.9306 56.2912C48.0607 56.1541 48.2494 56.0856 48.4975 56.0856C48.7462 56.0856 48.9346 56.1535 49.0627 56.2897C49.1909 56.4256 49.2548 56.6257 49.2548 56.8892C49.2548 57.1519 49.1904 57.3518 49.0615 57.4885C48.9326 57.6253 48.7437 57.6936 48.4954 57.6936C48.2503 57.6936 48.0625 57.6249 47.9316 57.4874C47.8007 57.35 47.7355 57.1498 47.7355 56.8869C47.7357 56.6269 47.8007 56.4284 47.9306 56.2912ZM47.0314 56.1101H47.4558V57.6722H47.0314V56.1101ZM45.6245 56.1101H46.8083V56.4553H46.4279V57.6722H46.0059V56.4553H45.6245V56.1101V56.1101ZM44.4907 56.1037H45.0539L45.57 57.6722H45.1085L45.0313 57.3793H44.5238L44.445 57.6722H43.9812L44.4907 56.1037ZM42.3251 56.1101H42.8763L43.4448 57.1956H43.4513C43.4413 57.0382 43.4361 56.9119 43.4361 56.8163V56.1101H43.8123V57.6722H43.2587L42.6882 56.5717H42.6787C42.692 56.7449 42.6988 56.8771 42.6988 56.9681V57.6722H42.3249V56.1101H42.3251ZM40.7187 56.2912C40.8485 56.1541 41.0375 56.0856 41.2853 56.0856C41.534 56.0856 41.7224 56.1535 41.8505 56.2897C41.979 56.4256 42.0429 56.6257 42.0429 56.8892C42.0429 57.1519 41.9782 57.3518 41.8496 57.4885C41.7205 57.6253 41.5318 57.6936 41.2832 57.6936C41.0381 57.6936 40.8504 57.6249 40.7197 57.4874C40.589 57.35 40.5236 57.1498 40.5236 56.8869C40.5238 56.6269 40.5888 56.4284 40.7187 56.2912ZM38.9753 56.1101H39.516C39.7666 56.1101 39.9603 56.1742 40.0968 56.3024C40.2332 56.4306 40.3015 56.6157 40.3015 56.858C40.3015 57.1187 40.2297 57.3196 40.0862 57.4605C39.9428 57.6014 39.7408 57.672 39.4809 57.672H38.9753V56.1101ZM44.9438 57.0333H44.6116C44.6767 56.7882 44.7182 56.624 44.7371 56.5405C44.756 56.4572 44.7687 56.3975 44.7752 56.3611C44.7823 56.4002 44.7972 56.4651 44.8195 56.5555C44.8419 56.6459 44.8608 56.7197 44.8765 56.7767L44.9438 57.0333ZM40.9683 56.889C40.9683 56.5841 41.074 56.4317 41.2855 56.4317C41.3896 56.4317 41.4677 56.4689 41.5203 56.5434C41.5726 56.6178 41.5989 56.733 41.5989 56.889C41.5989 57.0441 41.5729 57.1586 41.5212 57.2321C41.4695 57.3052 41.3904 57.3421 41.2835 57.3421C41.0734 57.342 40.9683 57.1909 40.9683 56.889ZM48.1802 56.889C48.1802 56.5841 48.2858 56.4317 48.4977 56.4317C48.6017 56.4317 48.6798 56.4689 48.7322 56.5434C48.7845 56.6178 48.8108 56.733 48.8108 56.889C48.8108 57.0441 48.7851 57.1586 48.7334 57.2321C48.6817 57.3052 48.6023 57.3421 48.4957 57.3421C48.2852 57.342 48.1802 57.1909 48.1802 56.889ZM57.2741 39.5671C57.2659 39.5716 57.2586 39.5763 57.25 39.5804C57.1921 39.6093 57.1208 39.6291 57.0406 39.6422C56.9733 39.6534 56.8893 39.6435 56.8005 39.6203C56.5815 39.5633 56.3315 39.4185 56.2189 39.2558C56.0254 38.9764 56.4762 38.0551 56.5016 38.052C56.5145 38.0507 56.6846 37.9879 56.6992 37.9882C56.7508 37.9899 57.0462 37.9547 57.2824 38.1285C56.8569 36.6888 55.5256 35.6377 53.9477 35.6377C52.0272 35.6377 50.4704 37.1945 50.4704 39.115C50.4704 41.0356 52.0272 42.5924 53.9477 42.5924C54.1609 42.5924 54.3693 42.5721 54.5718 42.5354C55.0575 42.4474 55.5082 42.2593 55.901 41.992C56.132 41.8349 56.343 41.6506 56.5296 41.444C56.9897 40.9343 57.3001 40.2878 57.3941 39.5729C57.3232 39.5695 57.2742 39.567 57.2741 39.5671ZM55.2492 39.7472C55.2028 39.9597 55.0696 40.1477 54.8496 40.311L55.0656 40.7125L54.7702 40.8714L54.7023 40.908L54.6665 40.8413L54.4931 40.519C54.3685 40.5777 54.2389 40.622 54.1056 40.6542C53.9568 40.6901 53.8027 40.7109 53.6428 40.7139L53.5185 40.4829L53.2712 40.0232C53.4508 40.032 53.6349 40.0208 53.8236 39.9901C54.0123 39.9591 54.1668 39.9114 54.2875 39.8465C54.3866 39.793 54.452 39.7395 54.483 39.6862C54.5138 39.6327 54.5114 39.573 54.4755 39.5065C54.451 39.4607 54.4133 39.4309 54.3629 39.4168C54.3123 39.4028 54.2373 39.3967 54.1378 39.3984C54.0385 39.4 53.9074 39.4081 53.7444 39.4223C53.5607 39.4371 53.4013 39.4283 53.2666 39.3963C53.1316 39.3644 53.0163 39.3093 52.9206 39.231C52.825 39.1528 52.7369 39.0388 52.6563 38.889C52.5332 38.6601 52.4989 38.4479 52.5535 38.2522C52.6081 38.0564 52.7514 37.8767 52.9829 37.7126L52.8295 37.4276L53.1927 37.2321L53.3439 37.5129C53.5849 37.4027 53.8563 37.3445 54.1574 37.338L54.2677 38.0433C53.9529 38.0446 53.6974 38.098 53.5007 38.2038C53.4071 38.2543 53.3486 38.3032 53.325 38.3508C53.3017 38.3981 53.304 38.4485 53.3324 38.5011C53.3569 38.5469 53.3912 38.5773 53.4346 38.5922C53.4783 38.6074 53.5439 38.6149 53.6315 38.6151C53.7191 38.6154 53.8362 38.6074 53.983 38.591C54.2826 38.5622 54.5211 38.5845 54.6981 38.658C54.875 38.7318 55.0191 38.8721 55.1303 39.0788C55.2558 39.3116 55.2953 39.5344 55.2492 39.7472Z" fill="#0984E3"/>
</svg>
