<svg width="80" height="80" viewBox="0 0 80 80" fill="none" xmlns="http://www.w3.org/2000/svg">
<path fill-rule="evenodd" clip-rule="evenodd" d="M22.6987 33.746L25.3194 32.9665C25.3194 32.9665 25.5613 34.7808 24.3383 34.9421C23.1153 35.1034 22.6987 33.746 22.6987 33.746ZM37.5759 30.9775C37.5759 31.7033 38.1672 32.2946 38.8929 32.2946C39.6186 32.2946 40.2099 31.7033 40.2099 30.9775H37.5759ZM53.4609 34.418L50.7328 34.3239C50.7328 34.3239 50.9478 36.1382 52.1708 35.9903C53.3937 35.8425 53.4609 34.418 53.4609 34.418Z" fill="#E96257"/>
<path d="M16.6783 39.4361C15.2672 40.0543 12.9557 41.3041 11.4908 43.1856C11.2758 43.2528 11.1414 43.2528 11.1145 43.1587C10.8726 42.5136 10.8726 40.6053 12.5659 39.4226C14.4743 38.1056 16.1945 38.7641 16.6783 39.4361ZM24.7956 44.9461C24.7956 44.9461 24.1505 43.5619 23.6667 43.199C23.1829 42.8362 23.0753 43.9651 23.371 45.1074C23.6667 46.2497 23.586 46.2497 23.1829 46.9351C22.7797 47.6205 19.5946 50.9265 17.5384 50.0127C17.4443 49.9724 17.3637 49.932 17.2831 49.8649C17.2831 49.8783 15.5091 52.7946 15.5629 56.8935C18.2373 58.1568 21.0998 56.2484 22.4437 54.9314C24.3789 53.0365 26.0857 49.4886 26.0857 49.4886C26.0857 49.4886 30.3056 45.8734 28.1957 43.3737C26.0723 40.8741 24.7956 44.9461 24.7956 44.9461ZM33.5713 27.6499C32.6171 27.6499 31.8511 28.416 31.8511 29.3702C31.8511 30.3243 32.6171 31.0904 33.5713 31.0904V27.6499ZM13.6814 32.1252C13.7217 31.3726 14.2458 30.9291 15.1194 30.9425L16.8127 31.3457C16.8127 31.3457 16.9874 31.2651 16.8127 30.069C16.638 28.8729 16.4095 28.3219 16.8127 27.8381C17.2159 27.3543 18.9495 27.9322 20.8176 27.529C23.2232 27.0183 24.5671 26.1985 25.0778 24.9218C26.0185 26.6286 27.5237 29.8271 27.2549 32.609C26.8652 36.6273 24.6074 37.4068 23.0753 37.4068C22.7797 37.4068 22.4571 37.3933 22.1077 37.3396C22.0674 37.8234 22.054 38.1997 22.054 38.1997C22.054 38.1997 22.3899 38.5357 22.3631 39.3017C22.3362 40.0677 21.7717 40.565 20.831 40.7665C19.2317 41.116 17.6056 40.5112 17.8206 39.1807C18.0357 37.8503 17.2562 34.3426 17.2562 34.3426C16.9471 34.4905 16.3961 34.6383 15.6301 34.4502C14.3668 34.1276 13.6814 33.4825 13.6814 32.1252ZM22.6856 33.8588C22.6856 33.8588 23.1022 35.2162 24.3252 35.0549C25.5481 34.8936 25.3062 33.0794 25.3062 33.0794L22.6856 33.8588ZM45.7875 29.3702C45.7875 28.416 45.0215 27.6499 44.0673 27.6499V31.0904C45.0215 31.0904 45.7875 30.3243 45.7875 29.3702ZM33.9745 28.7788V27.744C33.9745 27.744 34.5792 26.3463 34.9018 23C34.9018 23 39.0679 24.774 43.2072 23.887L43.6507 27.6634V28.7788C43.6507 31.4532 41.487 33.6169 38.8126 33.6169C36.1382 33.6169 33.9745 31.4532 33.9745 28.7788ZM37.5627 31.0904C37.5627 31.8161 38.1541 32.4074 38.8798 32.4074C39.6055 32.4074 40.1968 31.8161 40.1968 31.0904H37.5627ZM57.2914 39.4226C57.5064 40.7531 56.1356 41.5057 54.5229 41.1563C53.5822 40.9547 52.8565 40.5918 52.8296 39.8258C52.8027 39.0598 53.1656 38.9791 53.1656 38.9791C53.1656 38.9791 53.1925 38.6566 53.1521 38.1862C51.7007 38.2937 49.8461 37.6487 48.6904 34.4502C47.7496 31.843 48.3813 28.416 48.8651 26.5211C50.209 27.865 54.9261 26.978 56.2028 27.0855C57.7887 27.2199 58.4337 28.752 58.4337 30.0556C58.4337 31.3591 58.716 31.4532 58.716 31.4532C58.716 31.4532 59.1594 31.6145 59.6298 30.9829C60.2883 30.7678 60.6378 31.0097 60.7856 31.4532C61.014 32.1252 60.7856 33.16 59.697 33.6035C59.0519 33.8588 58.4337 33.5497 58.4337 33.5497C58.2187 34.383 57.8962 35.0683 57.5064 35.6328C57.3452 36.7751 57.157 38.5625 57.2914 39.4226ZM53.4478 34.5308L50.7197 34.4367C50.7197 34.4367 50.9347 36.251 52.1577 36.1032C53.3806 35.9553 53.4478 34.5308 53.4478 34.5308ZM42.8174 42.4733C43.8657 41.8014 42.5083 38.9791 41.9842 38.7372C41.4601 38.4953 38.1675 40.6456 38.1675 40.6456C38.1675 40.6456 37.294 37.9712 36.8773 39.2076C36.4607 40.444 36.8773 42.1911 36.8773 42.1911C36.7161 42.9706 36.2995 44.6236 35.9366 46.0884L35.2512 48.83C35.2512 48.83 34.6196 50.819 32.7112 52.7677C34.1895 54.0847 36.407 55.4824 38.1675 54.2191C41.0972 52.1361 39.5383 44.0054 39.5383 44.0054C39.5383 44.0054 41.7692 43.1453 42.8174 42.4733ZM73.9963 45.6584C73.0555 46.4244 71.8998 46.4244 71.8998 46.4244C71.8998 46.4244 72.4642 45.6315 72.397 44.7714C72.3164 43.9113 71.4966 44.9999 70.7037 46.0616C69.9108 47.1233 69.4941 48.5881 69.4941 48.5881C69.4941 48.5881 66.1881 50.1471 64.8039 49.1257L64.6964 49.0316C64.6964 49.0316 63.9707 50.6443 60.8797 52.1226C61.5919 53.1306 61.7398 53.2784 62.9224 54.0982C65.8253 56.1275 70.7171 51.3163 70.7171 51.3163C70.7171 51.3163 73.9963 51.6523 75.5955 49.6901C77.1813 47.728 74.9236 44.8924 73.9963 45.6584ZM62.2773 43.2125C62.3445 43.3065 62.3983 43.4006 62.452 43.4947C62.452 43.4947 63.4062 43.8038 63.5809 42.9303C63.7556 42.0567 63.339 39.8392 61.3635 38.67C59.3879 37.5008 57.493 39.4898 57.493 39.4898L57.6811 39.5033C57.6811 39.5033 60.6109 40.9278 62.2773 43.2125ZM53.7838 45.4031C52.8565 45.8062 51.4051 46.8679 51.2169 46.5319C51.0288 46.196 51.5798 44.422 51.0288 44.2338C50.4778 44.0457 49.8058 46.5185 49.5773 47.3114C49.4026 47.9027 48.005 48.615 47.3061 48.9375L46.9164 49.1123C46.9164 49.1123 45.8278 49.0316 42.4008 51.6657C41.4332 57.7805 48.7307 52.7677 48.7307 52.7677L50.7062 51.2894C50.7062 51.2894 54.4154 50.2008 54.738 49.1123C55.0605 48.0237 54.7111 44.9999 53.7838 45.4031Z" fill="#FFD2BB"/>
<path d="M48.6091 24.9966C49.1736 22.8329 51.4986 21.0321 54.8718 21.0321C57.5193 21.0321 61.2823 22.7389 60.6237 27.7382C60.3953 29.4744 60.0213 30.3861 59.6666 30.8626C59.6584 30.8651 59.6509 30.8669 59.6427 30.8695C59.1723 31.5012 58.7288 31.3399 58.7288 31.3399C58.7288 31.3399 58.7165 31.3351 58.6974 31.3173C58.6178 31.2288 58.46 30.9304 58.46 29.9557C58.46 29.3025 58.2946 28.592 57.9319 28.0288C57.5727 27.4611 57.0132 27.0398 56.2157 26.9722C55.102 26.8784 51.3708 27.5411 49.544 26.8197C49.5198 26.8099 49.4963 26.7996 49.4727 26.7893C49.4553 26.7818 49.4383 26.774 49.4213 26.7663C48.7382 26.4485 48.373 25.9034 48.6091 24.9966ZM16.8289 31.23C16.8514 31.2122 16.9866 31.0573 16.8256 29.9557C16.6509 28.7596 16.4224 28.2086 16.8256 27.7248C16.9647 27.5579 17.2622 27.5174 17.6689 27.5193C18.0746 27.5202 18.5907 27.5649 19.168 27.5686C19.6856 27.5713 20.2515 27.5407 20.8306 27.4157C21.2716 27.322 21.6763 27.2177 22.0473 27.1024C22.0652 27.0969 22.083 27.0913 22.1007 27.0856C22.3313 27.0127 22.5484 26.9351 22.7524 26.853C22.7705 26.8457 22.7886 26.8383 22.8067 26.831C24.0045 26.3383 24.7422 25.6799 25.0908 24.8085C25.0941 24.8147 25.0978 24.8213 25.1011 24.8274C25.2733 24.4073 25.3528 23.9371 25.3461 23.4108C25.3192 21.3143 23.1287 20.8036 22.1745 20.8305C21.2203 20.8574 19.4732 19.8629 16.2747 22.7254C13.0762 25.588 14.3395 27.5366 15.1458 30.8292L16.8289 31.23ZM33.0313 27.6282C32.9988 27.5818 32.5225 26.8624 32.5225 24.5128C32.5225 21.0321 33.6648 20.1451 34.3502 19.9838C34.9819 17.0944 40.8951 17.6589 42.9378 18.5459C44.9806 19.4328 44.8059 21.489 45.1687 23.7737C45.5184 25.9754 44.6828 27.515 44.6216 27.624C44.4515 27.5681 44.2698 27.5366 44.0802 27.5366V27.5783L44.0667 27.577V30.4933C44.0667 33.3961 41.7149 35.748 38.812 35.748C36.0723 35.748 33.8245 33.6528 33.5803 30.9769C33.5816 30.9769 33.5828 30.9771 33.5842 30.9771V27.5366C33.3903 27.5366 33.2048 27.5697 33.0313 27.6282ZM33.9874 28.6655C33.9874 31.3399 36.1511 33.5036 38.8254 33.5036C41.4998 33.5036 43.6635 31.3399 43.6635 28.6655V27.5501L43.22 23.7737C39.0808 24.6607 34.9147 22.8867 34.9147 22.8867C34.5921 26.233 33.9874 27.6307 33.9874 27.6307V28.6655Z" fill="#222AEF"/>
<path fill-rule="evenodd" clip-rule="evenodd" d="M17.0944 59.9521C16.4628 59.1188 15.8715 58.0303 15.5489 56.767L15.5758 56.7804C18.2502 58.0168 21.0859 56.1219 22.4298 54.8049C24.365 52.9099 26.0718 49.362 26.0718 49.362C26.0718 49.362 30.3051 45.7603 28.1817 43.2472C26.0718 40.7475 24.7816 44.8196 24.7816 44.8196C24.7816 44.8196 24.15 43.4488 23.6527 43.0725C23.1689 42.7096 23.0614 43.8385 23.3571 44.9809C23.6527 46.1232 23.5721 46.1232 23.1689 46.8086C22.7658 47.494 19.5807 50.8 17.5245 49.8861C17.4304 49.8458 17.3498 49.7921 17.2691 49.7383L17.2423 49.7249C15.3877 48.3541 14.4604 42.1855 11.3694 43.5832C11.1947 43.6638 10.9931 43.7982 10.8184 44.0267C12.7536 40.5325 17.8336 38.8257 17.8605 38.8123C17.8605 38.9064 17.847 38.987 17.8336 39.0676C17.6186 40.3981 19.2313 40.9894 20.844 40.6534C21.7847 40.4519 22.3491 39.9546 22.376 39.1886C22.4029 38.4225 22.0669 38.0866 22.0669 38.0866H22.0804C22.2282 38.0866 25.9105 38.5435 25.8971 38.5435C25.8971 38.5435 28.007 35.3853 31.8506 33.8936L31.4609 42.5484C30.5336 41.2716 29.5256 40.1428 28.5715 39.5514C29.5794 40.3309 30.0229 41.8764 30.6814 44.0267C31.8237 47.7762 32.536 52.3589 32.5629 52.5068C33.2752 56.4176 33.7993 60.1536 34.0412 61.9814C29.8347 62.1292 25.4939 62.1158 22.4298 61.4707C20.6693 61.1078 18.855 60.6106 17.0944 59.9521ZM45.4913 43.8116C46.5396 39.6724 45.8273 35.0628 45.8004 34.9284C47.6685 35.8557 49.4962 37.213 51.3239 39.1214C50.9476 39.1886 47.7894 40.21 45.4913 43.8116Z" fill="#FF4C2E"/>
<path fill-rule="evenodd" clip-rule="evenodd" d="M14.3531 25.4675C13.8962 27.0937 14.6219 28.6795 15.146 30.8163L16.8394 31.2195L15.146 30.8163C14.2591 30.8163 13.7349 31.2464 13.7349 32.0124C13.7349 33.3698 14.4069 34.0283 15.6836 34.3374C16.4496 34.5255 16.9872 34.3777 17.3097 34.2299C17.3097 34.2299 18.0086 37.3477 17.9011 38.8126C17.8876 38.8126 16.705 39.2964 16.705 39.2964C16.2212 38.6245 14.501 37.9659 12.5926 39.283C10.8858 40.4656 10.8993 42.374 11.1412 43.0191C11.1815 43.1131 11.3159 43.1131 11.5175 43.0459C11.2756 43.355 11.0605 43.6776 10.8724 44.0136C10.8724 44.0001 10.8858 44.0001 10.8858 43.9867C10.1467 44.9005 9.73006 47.2658 12.2835 52.8968C13.2511 55.0202 14.3934 56.2029 15.5761 56.7539C15.8986 58.0037 16.4899 59.0923 17.1216 59.9389C17.2022 59.9658 10.5498 56.7942 8.39958 53.7435C5.64456 49.8865 4.44848 44.578 4.03186 39.9146C3.70932 36.2995 3.15832 31.5286 5.8999 28.6257C8.17112 26.2201 11.1815 25.6019 14.3531 25.4675ZM61.6992 56.7539C62.0486 55.7862 62.3309 54.7649 62.5728 53.7301C62.5728 53.7301 62.7878 53.8779 62.9222 53.972C63.2985 54.2407 63.7151 54.3886 64.1452 54.4423C63.3926 55.2756 62.5862 56.0282 61.7799 56.7135L61.6992 56.7539ZM60.6913 26.8786C63.4463 27.2146 66.0804 27.8866 68.1635 29.8353C70.3406 31.878 70.8378 34.8077 71.026 37.6568C71.2813 41.2451 70.0449 45.344 67.9887 49.0264C66.9271 49.3489 65.5697 49.5774 64.8037 48.9995L64.6693 48.892L64.4408 48.6232C63.5538 47.3868 63.285 44.6452 62.183 42.9787C62.2099 43.0191 62.2502 43.0728 62.2771 43.1131C62.3443 43.1938 62.3981 43.2878 62.4518 43.3954C62.4518 43.3954 63.3926 43.7045 63.5807 42.8309C63.7554 41.9574 63.3522 39.7399 61.3633 38.5707C59.3877 37.4015 57.4928 39.3905 57.4928 39.3905L57.3181 39.3771C57.3181 39.3636 57.3181 39.3502 57.3181 39.3367C57.1702 38.4766 57.3718 36.6892 57.5331 35.5469C57.9228 34.9825 58.2454 34.2971 58.4604 33.4638C58.4604 33.4638 59.092 33.7729 59.7237 33.5176C60.8122 33.0875 61.0407 32.0527 60.8122 31.3673C60.6644 30.9238 60.315 30.6819 59.6565 30.897C60.0059 30.4266 60.3822 29.5127 60.6241 27.7791C60.6644 27.4565 60.6779 27.1609 60.6913 26.8786ZM44.9809 22.2959C46.298 22.9007 47.5209 23.6801 48.8111 24.3924C48.7305 24.594 48.6498 24.7956 48.5961 25.0106C48.4348 25.6288 48.5557 26.0857 48.8648 26.4083L48.8783 26.4217C48.3945 28.3166 47.7628 31.7436 48.7036 34.3508C49.8593 37.5493 51.7139 38.181 53.1654 38.0869C53.1923 38.4363 53.2057 38.7051 53.2057 38.826V38.8798C53.2057 38.8798 52.6144 38.8798 51.3242 39.1217C49.5234 37.2402 47.7225 35.8963 45.8948 34.969L45.8007 34.9287C44.8465 34.4583 43.8924 34.082 42.9113 33.8132C43.6505 32.9128 44.0805 31.7571 44.0805 30.5072V30.991C45.0347 30.991 45.8007 30.225 45.8007 29.2708C45.8007 28.5182 45.3035 27.8731 44.6315 27.6447C44.6315 27.6447 45.5454 26.0723 45.1825 23.7876C45.1019 23.2635 45.0481 22.7663 44.9809 22.2959ZM32.6976 22.4169C32.59 22.9813 32.5228 23.6667 32.5228 24.4999C32.5228 26.919 33.0335 27.6178 33.0335 27.6178C32.3481 27.8463 31.8643 28.4913 31.8643 29.2439C31.8643 30.1981 32.6304 30.9641 33.5845 30.9641V30.4803C33.5845 31.4883 33.8668 32.429 34.364 33.2219C33.4905 33.3429 32.6841 33.5713 31.945 33.8536L31.8778 33.8804C28.0207 35.3722 25.9242 38.5304 25.9242 38.5304C25.9377 38.5304 22.2553 38.0735 22.1075 38.0735H22.0941C22.0941 38.0735 22.1075 37.6972 22.1478 37.2133C22.4972 37.2671 22.8198 37.2805 23.1154 37.2805C24.6475 37.2805 26.9187 36.5145 27.295 32.4828C27.5504 29.7815 26.1527 26.6905 25.212 24.9434C27.4294 24.379 29.5259 23.4382 31.7031 22.7125C32.0122 22.6319 32.3481 22.5244 32.6976 22.4169Z" fill="#FBC02D"/>
<path d="M64.6692 48.8912L64.4408 48.6224C63.3388 47.0904 63.1775 43.2065 61.2154 41.9835C61.2154 41.9835 61.1153 41.9584 60.9599 41.9586C61.1311 41.955 61.2423 41.9835 61.2423 41.9835C61.3632 42.0641 61.4842 42.1448 61.5917 42.2388C59.9252 40.4649 57.7212 39.3897 57.7212 39.3897L57.3583 39.3494C57.5465 40.653 56.1757 41.3787 54.5899 41.0428C53.6491 40.8412 52.9234 40.4783 52.8966 39.7123C52.8697 38.9462 53.2325 38.8656 53.2325 38.8656C53.2191 38.8656 52.5971 38.8006 51.3242 39.121C48.4079 39.8549 47.0399 41.4731 45.4916 43.8112C46.5398 39.672 45.841 35.0623 45.8141 34.9279C44.8734 34.4576 43.9058 34.0947 42.9247 33.8125C41.9705 35.0086 40.4922 35.7612 38.8526 35.7612C36.9577 35.7612 35.3047 34.7532 34.3774 33.248C33.477 33.3824 32.6438 33.6109 31.8777 33.9066L31.488 42.5614C33.3292 45.0879 34.8881 48.1924 35.2778 48.7031L35.9632 45.9749C36.3261 44.5101 36.7293 42.857 36.904 42.0776C36.904 42.0776 36.4874 40.3305 36.904 39.0941C37.3206 37.8711 38.1941 40.5321 38.1941 40.5321C38.1941 40.5321 41.4867 38.3818 42.0108 38.6237C42.535 38.8656 43.8923 41.6878 42.8441 42.3598C41.7958 43.0452 39.5649 43.8919 39.5649 43.8919C39.5649 43.8919 41.1239 52.0091 38.1941 54.1056C36.447 55.3554 34.2565 53.9846 32.7647 52.681L32.7244 52.6542C34.1489 51.1893 34.8612 49.711 35.13 49.0525L35.2644 48.7031C34.6865 47.9236 31.4477 41.3115 28.5851 39.5644C30.0903 40.5724 31.5283 46.7409 32.5766 52.5198C33.2754 56.4306 33.813 60.1667 34.0549 61.9944C38.1941 61.8465 42.199 61.524 44.739 61.4971C45.1018 61.4837 45.4781 61.4837 45.841 61.4702C45.8413 61.4658 45.8414 61.4608 45.8417 61.4564C50.6216 61.3212 55.5214 60.7287 59.6968 58.1911C60.3822 57.7745 61.0541 57.2907 61.7126 56.7531C62.062 55.7989 62.3577 54.7641 62.5862 53.7293C61.7126 53.1111 61.5245 52.8961 60.8928 51.9957L60.8794 51.9756C63.9589 50.4991 64.6827 48.9046 64.6692 48.8912ZM54.7512 48.9853C54.4286 50.0739 50.7194 51.1624 50.7194 51.1624L48.7439 52.6407C48.7439 52.6407 47.6284 53.4068 46.3382 53.9712C46.3376 53.9779 46.337 53.9845 46.3365 53.9911C44.31 54.8734 41.8376 55.2655 42.4276 51.5522C45.438 49.2272 47.3194 48.8106 47.3194 48.8106C48.0048 48.488 49.416 47.7758 49.5907 47.1844C49.8326 46.3781 50.4911 43.9187 51.0421 44.1069C51.5931 44.3085 51.0421 46.069 51.2302 46.405C51.4184 46.7409 52.8698 45.6793 53.7971 45.2761C54.7243 44.8729 55.0737 47.8967 54.7512 48.9853ZM17.2828 49.7513V49.7648C17.2963 49.7648 15.5223 52.681 15.5492 56.78C14.3665 56.229 13.2242 55.0463 12.2566 52.923C9.11182 45.9884 10.4692 44.0128 11.3965 43.5962C14.5009 42.1985 15.4148 48.4208 17.2828 49.7513ZM35.1434 49.039L35.2778 48.7031C35.2778 48.7031 35.2375 48.824 35.1434 49.039Z" fill="#222AEF"/>
</svg>
