<svg width="90" height="90" viewBox="0 0 90 90" fill="none" xmlns="http://www.w3.org/2000/svg">
<path d="M15.6955 32.573V31.2737C15.6955 31.1618 15.7864 31.071 15.8982 31.071C16.0103 31.071 16.101 31.1618 16.101 31.2737V32.573C16.101 32.6851 16.0103 32.7758 15.8982 32.7758C15.7864 32.7758 15.6955 32.6851 15.6955 32.573ZM15.8982 37.4856C16.0103 37.4856 16.101 37.3948 16.101 37.2827V35.9834C16.101 35.8714 16.0103 35.7805 15.8982 35.7805C15.7864 35.7805 15.6955 35.8714 15.6955 35.9834V37.2827C15.6955 37.3949 15.7864 37.4856 15.8982 37.4856ZM12.8938 34.4811H14.1931C14.305 34.4811 14.3959 34.3902 14.3959 34.2782C14.3959 34.1663 14.305 34.0754 14.1931 34.0754H12.8938C12.7819 34.0754 12.6909 34.1663 12.6909 34.2782C12.6909 34.3903 12.7819 34.4811 12.8938 34.4811ZM17.4008 34.2783C17.4008 34.3903 17.4916 34.4812 17.6035 34.4812H18.9028C19.0149 34.4812 19.1057 34.3903 19.1057 34.2783C19.1057 34.1664 19.0149 34.0756 18.9028 34.0756H17.6035C17.4916 34.0756 17.4008 34.1663 17.4008 34.2783ZM14.5492 33.2161C14.5888 33.2557 14.6405 33.2755 14.6925 33.2755C14.7444 33.2755 14.7962 33.2557 14.8358 33.2161C14.9151 33.1367 14.9151 33.0085 14.8358 32.9292L13.9169 32.0105C13.8378 31.9312 13.7095 31.9312 13.6303 32.0105C13.5512 32.0895 13.5512 32.2181 13.6303 32.2971L14.5492 33.2161ZM17.8794 36.5465C17.919 36.5861 17.9709 36.6059 18.0228 36.6059C18.0746 36.6059 18.1266 36.5861 18.1661 36.5465C18.2453 36.4672 18.2453 36.3389 18.1661 36.2596L17.2475 35.3409C17.1681 35.2618 17.0397 35.2618 16.9605 35.3409C16.8814 35.4201 16.8814 35.5485 16.9605 35.6275L17.8794 36.5465ZM14.5492 35.3407L13.6303 36.2595C13.5512 36.3387 13.5512 36.4671 13.6303 36.5463C13.67 36.5859 13.7217 36.6057 13.7737 36.6057C13.8257 36.6057 13.8776 36.5859 13.9169 36.5463L14.8358 35.6274C14.9151 35.5483 14.9151 35.4199 14.8358 35.3407C14.7568 35.2615 14.6283 35.2615 14.5492 35.3407ZM17.104 33.2755C17.1558 33.2755 17.2079 33.2557 17.2475 33.2161L18.1661 32.2971C18.2453 32.2181 18.2453 32.0895 18.1661 32.0105C18.087 31.9312 17.9585 31.9312 17.8794 32.0105L16.9605 32.9292C16.8814 33.0085 16.8814 33.1367 16.9605 33.2161C17.0003 33.2557 17.0521 33.2755 17.104 33.2755ZM62.9142 21.7663C63.0262 21.7663 63.1169 21.6756 63.1169 21.5636V20.2643C63.1169 20.1524 63.0262 20.0615 62.9142 20.0615C62.8023 20.0615 62.7115 20.1524 62.7115 20.2643V21.5636C62.7116 21.6756 62.8023 21.7663 62.9142 21.7663ZM62.9142 26.4762C63.0262 26.4762 63.1169 26.3853 63.1169 26.2733V24.974C63.1169 24.8619 63.0262 24.7711 62.9142 24.7711C62.8023 24.7711 62.7115 24.8619 62.7115 24.974V26.2733C62.7116 26.3855 62.8023 26.4762 62.9142 26.4762ZM59.9098 23.4716H61.2091C61.321 23.4716 61.4118 23.3807 61.4118 23.2687C61.4118 23.1568 61.321 23.066 61.2091 23.066H59.9098C59.7979 23.066 59.7069 23.1568 59.7069 23.2687C59.707 23.3807 59.7979 23.4716 59.9098 23.4716ZM64.4169 23.2687C64.4169 23.3807 64.5077 23.4716 64.6196 23.4716H65.9189C66.031 23.4716 66.1218 23.3807 66.1218 23.2687C66.1218 23.1568 66.031 23.066 65.9189 23.066H64.6196C64.5076 23.066 64.4169 23.1568 64.4169 23.2687ZM61.5653 22.2066C61.6049 22.2462 61.6566 22.266 61.7086 22.266C61.7605 22.266 61.8123 22.2462 61.8519 22.2066C61.9312 22.1272 61.9312 21.999 61.8519 21.9198L60.933 21.001C60.8539 20.9218 60.7256 20.9218 60.6464 21.001C60.5673 21.0801 60.5673 21.2086 60.6464 21.2877L61.5653 22.2066ZM64.8955 25.5368C64.9352 25.5765 64.987 25.5963 65.0389 25.5963C65.0907 25.5963 65.1427 25.5765 65.1822 25.5368C65.2614 25.4576 65.2614 25.3293 65.1822 25.25L64.2636 24.3313C64.1842 24.2522 64.0558 24.2522 63.9766 24.3313C63.8975 24.4105 63.8975 24.5388 63.9766 24.6179L64.8955 25.5368ZM61.5653 24.3313L60.6464 25.25C60.5673 25.3293 60.5673 25.4576 60.6464 25.5368C60.6861 25.5765 60.7378 25.5963 60.7898 25.5963C60.8419 25.5963 60.8937 25.5765 60.933 25.5368L61.8519 24.6179C61.9312 24.5388 61.9312 24.4105 61.8519 24.3313C61.7729 24.252 61.6444 24.252 61.5653 24.3313ZM64.1201 22.2659C64.1719 22.2659 64.224 22.2461 64.2636 22.2064L65.1822 21.2875C65.2614 21.2084 65.2614 21.0799 65.1822 21.0009C65.1031 20.9216 64.9746 20.9216 64.8955 21.0009L63.9766 21.9196C63.8975 21.9989 63.8975 22.1271 63.9766 22.2064C64.0162 22.2462 64.0681 22.2659 64.1201 22.2659ZM74.5597 40.5179C74.6717 40.5179 74.7625 40.4272 74.7625 40.3152V39.0158C74.7625 38.9039 74.6717 38.8131 74.5597 38.8131C74.4478 38.8131 74.357 38.9039 74.357 39.0158V40.3152C74.357 40.4272 74.4478 40.5179 74.5597 40.5179ZM74.5597 45.2277C74.6717 45.2277 74.7625 45.1369 74.7625 45.0249V43.7255C74.7625 43.6135 74.6717 43.5226 74.5597 43.5226C74.4478 43.5226 74.357 43.6135 74.357 43.7255V45.0249C74.357 45.137 74.4478 45.2277 74.5597 45.2277ZM71.5553 42.2232H72.8546C72.9665 42.2232 73.0573 42.1323 73.0573 42.0203C73.0573 41.9084 72.9665 41.8175 72.8546 41.8175H71.5553C71.4434 41.8175 71.3524 41.9084 71.3524 42.0203C71.3524 42.1324 71.4434 42.2232 71.5553 42.2232ZM76.0622 42.0204C76.0622 42.1324 76.1531 42.2233 76.265 42.2233H77.5643C77.6763 42.2233 77.7672 42.1324 77.7672 42.0204C77.7672 41.9085 77.6763 41.8177 77.5643 41.8177H76.265C76.1531 41.8177 76.0622 41.9084 76.0622 42.0204ZM73.2106 40.9582C73.2503 40.9978 73.302 41.0176 73.354 41.0176C73.4058 41.0176 73.4577 40.9978 73.4973 40.9582C73.5765 40.8788 73.5765 40.7506 73.4973 40.6714L72.5784 39.7526C72.4993 39.6734 72.3709 39.6734 72.2917 39.7526C72.2127 39.8316 72.2127 39.9602 72.2917 40.0392L73.2106 40.9582ZM76.5409 44.2886C76.5805 44.3282 76.6324 44.348 76.6842 44.348C76.7361 44.348 76.7881 44.3282 76.8276 44.2886C76.9068 44.2093 76.9068 44.081 76.8276 44.0018L75.9089 43.083C75.8296 43.0039 75.7012 43.0039 75.622 43.083C75.5429 43.1622 75.5429 43.2906 75.622 43.3696L76.5409 44.2886ZM73.2106 43.0828L72.2917 44.0016C72.2127 44.0808 72.2127 44.2092 72.2917 44.2884C72.3315 44.328 72.3832 44.3478 72.4352 44.3478C72.4872 44.3478 72.5391 44.328 72.5784 44.2884L73.4973 43.3695C73.5765 43.2904 73.5765 43.162 73.4973 43.0828C73.4182 43.0038 73.2897 43.0038 73.2106 43.0828ZM75.7654 41.0176C75.8173 41.0176 75.8693 40.9978 75.9089 40.9582L76.8276 40.0392C76.9068 39.9602 76.9068 39.8316 76.8276 39.7526C76.7485 39.6734 76.62 39.6734 76.5409 39.7526L75.622 40.6714C75.5429 40.7506 75.5429 40.8788 75.622 40.9582C75.6617 40.9978 75.7136 41.0176 75.7654 41.0176Z" fill="#2CB492"/>
<path d="M48.0851 23.3214C48.085 23.3219 48.0848 23.3223 48.0845 23.3226C48.0649 23.3556 48.0433 23.3873 48.0209 23.418C47.9994 23.4478 47.9749 23.4753 47.9513 23.5033L48.01 24.7254L45.8182 24.5235L45.929 24.0969C45.9912 24.1126 46.0574 24.1259 46.1315 24.1325L46.6898 24.1823C46.7303 24.1859 46.7634 24.1195 46.7934 24.0248C46.7639 24.0244 46.7341 24.0229 46.7043 24.0204L46.1461 23.9705C46.0719 23.9638 46.0058 23.9507 45.9437 23.9339C45.5447 23.8282 45.3976 23.5272 45.3624 23.1249C45.3527 23.0147 45.3509 22.8967 45.3554 22.7728C45.3586 22.6636 45.3669 22.5504 45.3773 22.4336L45.4555 21.5572C45.4637 21.4665 45.4809 21.3789 45.5043 21.2943C45.6554 21.3935 45.8481 21.4666 46.0941 21.4854C46.6783 21.53 47.0205 21.3287 47.2153 21.126C47.1839 21.2934 47.1907 21.4635 47.2888 21.5918C47.5709 21.961 47.5573 22.1952 47.5448 22.3354C47.5324 22.4755 47.5523 22.681 47.5523 22.681C47.5523 22.681 47.7794 21.9987 47.9388 22.1107C48.2006 22.2944 48.0869 23.306 48.0851 23.3214ZM47.5076 20.3513C47.5074 20.3512 47.5073 20.351 47.5071 20.351C47.4975 20.3466 47.4872 20.3431 47.4773 20.3391C47.4875 20.3433 47.4973 20.3478 47.5074 20.3522L47.5076 20.3513ZM47.0425 20.2304C47.0871 20.2343 47.1311 20.2405 47.1747 20.2483C47.1311 20.2403 47.087 20.234 47.0422 20.23C46.6398 20.1944 46.2615 20.3251 45.9739 20.5649C45.9736 20.5652 45.9733 20.5655 45.973 20.5658C45.9733 20.5655 45.9739 20.5654 45.9742 20.5651C46.2619 20.3253 46.6401 20.1944 47.0425 20.2304ZM37.5634 22.5992C37.5829 22.5862 37.602 22.5723 37.6215 22.5591C37.5103 22.3357 37.4276 22.129 37.3852 21.9498C37.4302 22.1508 37.4911 22.3701 37.5634 22.5992ZM38.0162 21.1163C38.0229 21.0962 38.0285 21.0714 38.0336 21.0445C38.0941 20.7238 38.039 19.9767 37.8274 19.9854C37.6455 19.993 37.9034 20.4656 37.6895 20.4582C37.452 20.4502 37.1045 19.4463 36.9234 19.5843C36.7172 19.741 37.3517 20.3165 37.1721 20.4097C37.1623 20.4148 37.1517 20.415 37.141 20.4136C37.1395 20.4134 37.1381 20.4148 37.1366 20.4143C36.9491 20.3775 36.6278 19.4668 36.4301 19.628C36.2195 19.7996 36.9886 20.4449 36.8223 20.5595C36.6558 20.6748 36.3409 19.8122 36.1451 19.9624C35.9263 20.1295 36.7682 20.8185 36.657 20.8842C36.4712 20.9942 36.2065 20.3008 36.0279 20.4215C35.9224 20.4928 36.1418 20.8102 36.4305 21.1183C36.6859 21.3907 36.9924 21.6349 37.2226 21.6818C37.2628 21.6899 37.3 21.6955 37.3357 21.6996C37.3471 21.7701 37.3617 21.8446 37.3787 21.9217C37.7076 21.7888 37.9866 21.5487 38.1668 21.2427C38.1131 21.2039 38.0599 21.1665 38.0096 21.1348C38.0117 21.1283 38.0141 21.123 38.0162 21.1163ZM56.37 22.6081C56.6588 22.2998 56.8781 21.9825 56.7726 21.9111C56.5941 21.7905 56.3293 22.4837 56.1435 22.3739C56.0325 22.3083 56.8742 21.6195 56.6554 21.4521C56.4597 21.302 56.1447 22.1645 55.9783 22.0493C55.812 21.9347 56.5811 21.2893 56.3705 21.1177C56.1727 20.9568 55.8514 21.8671 55.6639 21.904C55.6623 21.9045 55.6611 21.9033 55.6596 21.9034C55.649 21.9046 55.6384 21.9045 55.6286 21.8995C55.449 21.8064 56.0833 21.2308 55.8773 21.074C55.6962 20.936 55.3487 21.9402 55.1112 21.948C54.8971 21.9554 55.1552 21.4827 54.9733 21.4752C54.7617 21.4663 54.7065 22.2137 54.7671 22.5342C54.7722 22.5611 54.7778 22.5859 54.7845 22.606C54.7867 22.6126 54.789 22.6181 54.791 22.6246C54.7406 22.6563 54.6876 22.6937 54.6339 22.7325C54.8141 23.0385 55.0931 23.2786 55.4219 23.4115C55.4387 23.3344 55.4533 23.2597 55.4647 23.1893C55.5005 23.1853 55.5377 23.1798 55.5778 23.1714C55.8082 23.1247 56.1146 22.8806 56.37 22.6081ZM55.2373 24.0889C55.3097 23.859 55.3708 23.6392 55.4158 23.4378C55.3735 23.6174 55.2907 23.8249 55.1792 24.0488C55.1986 24.0619 55.2176 24.0759 55.2373 24.0889ZM12.8102 44.2598C12.8102 44.2602 12.8102 44.2607 12.8104 44.2611C12.8149 44.2918 12.8213 44.3221 12.8288 44.352C12.8356 44.3807 12.8455 44.4089 12.8544 44.4371L12.4342 45.3307L12.1979 45.8341L13.3832 46.2L13.913 46.3642L14.0544 46.4077L14.1315 45.855L14.18 45.5026C14.1291 45.4952 14.0755 45.4847 14.0182 45.4669L13.5861 45.3316C13.5548 45.322 13.5508 45.2623 13.5576 45.1826C13.5798 45.1914 13.6023 45.1994 13.6256 45.2065L14.0571 45.3417C14.1145 45.3597 14.1682 45.3701 14.2195 45.3765C14.55 45.4203 14.7524 45.241 14.9021 44.9521C14.9435 44.8729 14.981 44.785 15.0159 44.691C15.0471 44.6089 15.0758 44.5218 15.1042 44.4314L15.3154 43.7538C15.3328 43.6981 15.3445 43.642 15.3532 43.5861C15.2261 43.5927 15.0664 43.5704 14.8613 43.5034C14.5131 43.3898 14.263 43.2117 14.0872 43.04C14.0535 43.1126 14.006 43.1753 13.9374 43.2152C13.6132 43.4034 13.5509 43.5828 13.5173 43.6909C13.4836 43.7991 13.405 43.9465 13.405 43.9465C13.405 43.9465 13.446 43.3673 13.2927 43.4019C13.0411 43.4582 12.8143 44.2454 12.8102 44.2598ZM13.6495 42.354C13.6365 42.3608 13.6224 42.3655 13.6097 42.3728C13.6224 42.3655 13.6363 42.3608 13.6495 42.354C13.6495 42.3542 13.6495 42.3542 13.6495 42.354ZM21.3839 45.516C21.2948 45.379 22.0676 45.1341 21.9631 44.9418C21.8651 44.7607 21.3452 45.3411 21.1935 45.3112C21.1928 45.3107 21.1919 45.3093 21.1911 45.3089C21.1826 45.3065 21.1748 45.303 21.169 45.2965C21.064 45.1716 21.7141 44.9374 21.6087 44.7573C21.5162 44.5981 20.9477 45.2406 20.7684 45.1736C20.6062 45.1128 20.9441 44.8397 20.8109 44.7787C20.6558 44.7062 20.3847 45.2472 20.3311 45.505C20.3265 45.5264 20.323 45.5467 20.3218 45.5638C20.3213 45.5695 20.3212 45.5742 20.3212 45.5795C20.2737 45.5878 20.2227 45.599 20.1706 45.6114C20.1706 45.6113 20.1706 45.6111 20.1706 45.611C20.1674 45.6119 20.1638 45.6128 20.1605 45.6137C20.1432 45.6178 20.1251 45.6229 20.1075 45.6274C20.0864 45.6329 20.0661 45.6376 20.044 45.6439C20.0276 45.6482 20.0111 45.6533 19.9938 45.6578C19.9863 45.6603 19.9781 45.6627 19.9703 45.6651C19.9595 45.6683 19.9488 45.6714 19.9379 45.6749C19.9337 45.6763 19.9296 45.6773 19.9254 45.6787C19.9179 45.6814 19.9096 45.6832 19.901 45.686C19.8758 45.694 19.849 45.703 19.8229 45.712C19.8008 45.7192 19.7795 45.726 19.7571 45.7337C19.7439 45.7377 19.7306 45.7426 19.7173 45.7473C19.7092 45.7502 19.7011 45.7528 19.6931 45.7557C19.6819 45.7597 19.6705 45.7634 19.659 45.7673C19.6565 45.7681 19.6546 45.7693 19.6513 45.7705C19.634 45.777 19.6156 45.7838 19.5983 45.7897C19.5915 45.7922 19.5847 45.795 19.5779 45.7975C19.5335 45.814 19.4887 45.8314 19.4437 45.8488C19.4289 45.8545 19.4145 45.8598 19.3995 45.8656C19.3927 45.8686 19.3858 45.8718 19.3784 45.8742C19.3781 45.8743 19.3776 45.8745 19.3773 45.8746C19.3496 45.8858 19.3224 45.8964 19.2949 45.9076C19.2898 45.9099 19.2849 45.9118 19.2798 45.9138C19.2758 45.9155 19.2718 45.9168 19.2678 45.9186C19.2495 45.9259 19.2305 45.9341 19.2125 45.9416C19.2039 45.9451 19.1963 45.9477 19.1882 45.9507C19.1677 45.9602 19.1467 45.969 19.1256 45.9779C19.1209 45.9799 19.1165 45.9818 19.1118 45.9838C19.1106 45.9844 19.1092 45.985 19.108 45.9856C19.0513 46.0097 18.9949 46.0341 18.9384 46.0592C18.9363 46.0601 18.9342 46.0612 18.932 46.0621L18.9295 46.0633C18.8876 46.0818 18.8462 46.1005 18.8047 46.1194C18.7917 46.1252 18.7789 46.1311 18.7654 46.1367C18.752 46.1428 18.7396 46.1492 18.7261 46.1554C18.6026 46.2128 18.4803 46.2714 18.3633 46.3285C18.3621 46.3291 18.3607 46.3297 18.3595 46.3303C18.3548 46.3326 18.3503 46.3349 18.3456 46.3373C18.325 46.3473 18.3046 46.3575 18.2847 46.3677C18.2298 46.3949 18.1764 46.4218 18.1241 46.4486C18.1171 46.452 18.1102 46.4557 18.1034 46.4591C17.97 46.5279 17.8497 46.5925 17.7432 46.6516C17.7304 46.6587 17.7181 46.6657 17.7057 46.6726C17.6766 46.6891 17.6483 46.7051 17.6217 46.7204C17.615 46.7242 17.607 46.7287 17.6005 46.7323C17.5801 46.744 17.5612 46.7555 17.5432 46.7662C17.5411 46.7676 17.5385 46.7691 17.5366 46.7701C17.5332 46.7721 17.5298 46.7741 17.5272 46.7757C17.5115 46.7851 17.4968 46.794 17.4826 46.8023C17.475 46.807 17.469 46.8111 17.4619 46.8156C17.4581 46.8181 17.4546 46.8203 17.451 46.8226C17.4244 46.8395 17.4014 46.855 17.382 46.8687C17.3802 46.8699 17.3772 46.8717 17.3755 46.8729L14.3515 46.4998L16.6382 46.7819C16.5212 47.2692 16.372 47.7497 16.2258 48.2279C16.1385 48.5132 16.0555 48.797 15.9764 49.0806C16.6219 48.9489 17.3701 48.7906 17.8893 48.6648C18.2252 48.584 18.4649 48.5156 18.5179 48.4774C18.7302 48.3269 19.317 47.7882 19.846 47.2146C19.8679 47.1915 19.8895 47.1682 19.9105 47.1445L19.917 47.1377C19.9433 47.1088 19.97 47.079 19.9963 47.0497C19.9991 47.0456 20.0031 47.0409 20.0065 47.0371C20.0203 47.0214 20.035 47.006 20.0481 46.9907C20.0545 46.9839 20.0598 46.9773 20.0661 46.9702C20.0772 46.9569 20.0886 46.9438 20.0992 46.9314C20.1107 46.9195 20.1215 46.9068 20.1316 46.8937C20.1479 46.8751 20.1639 46.8568 20.1792 46.8383C20.1862 46.8292 20.1928 46.8215 20.2001 46.8137C20.2164 46.7942 20.2327 46.7741 20.2483 46.7552C20.2533 46.7493 20.2571 46.7435 20.2613 46.7391C20.2729 46.7245 20.2847 46.711 20.2961 46.6967L20.3311 46.6524C20.3349 46.6484 20.338 46.6434 20.3417 46.6389C20.3667 46.6079 20.3904 46.5768 20.4142 46.5465C20.4332 46.5208 20.4529 46.4948 20.471 46.4697C20.4851 46.4517 20.4979 46.4334 20.5109 46.4153L20.5489 46.3615C20.5472 46.3598 20.5458 46.3581 20.5443 46.3566C20.5842 46.3067 20.6195 46.2571 20.6494 46.2085C20.6771 46.2166 20.7067 46.2242 20.7392 46.2305C20.9253 46.2667 21.2294 46.1785 21.5035 46.0541C21.8139 45.9129 22.0754 45.7439 22.0183 45.6578C21.9223 45.5128 21.5113 45.9486 21.4064 45.8096C21.344 45.7263 22.184 45.4717 22.0725 45.2794C21.9728 45.1064 21.4725 45.6533 21.3839 45.516ZM8.73417 42.5392L10.6213 42.1817L10.7577 42.1558L10.7631 42.179C11.1001 41.7745 11.5212 41.212 11.8116 40.7091C11.805 40.7003 11.7991 40.6908 11.7924 40.6819L12.1787 40.1872C12.1839 40.1883 12.1887 40.1892 12.1943 40.1904C12.2111 40.1935 12.2313 40.1951 12.2533 40.196C12.5165 40.2076 13.1075 40.0782 13.076 39.9098C13.0493 39.7657 12.7012 40.0259 12.6823 39.8544C12.6618 39.6635 13.4242 39.2713 13.2933 39.1423C13.1445 38.9957 12.7572 39.5678 12.6621 39.4353C12.6571 39.4281 12.6554 39.4196 12.6554 39.4111C12.6554 39.4095 12.6544 39.4087 12.6547 39.4078C12.6622 39.2536 13.353 38.893 13.2023 38.753C13.0411 38.6048 12.6132 39.2925 12.503 39.1729C12.3916 39.0534 13.0449 38.7028 12.9023 38.5637C12.7437 38.4078 12.2895 39.1593 12.2245 39.0784C12.1155 38.9425 12.6392 38.6516 12.5222 38.5226C12.4534 38.4464 12.2248 38.6579 12.0113 38.9237C11.8231 39.1588 11.6627 39.4317 11.6517 39.6213C11.6502 39.6541 11.65 39.6843 11.6509 39.7134C11.5176 39.7548 11.3717 39.8284 11.2205 39.9199C10.3412 40.3003 9.0934 41.1417 8.81218 41.3935C8.4705 41.6991 8.38538 42.1826 8.5727 42.5698L8.73417 42.5392ZM14.2942 55.22C14.2966 55.2246 14.299 55.2296 14.3014 55.2345C14.2444 55.2609 14.1888 55.2901 14.1342 55.3208C13.5616 55.3454 13.036 55.5763 12.6309 55.9408C12.6364 55.9553 12.6415 55.9703 12.647 55.9845C12.6595 56.0173 12.6674 56.0539 12.6728 56.0923C12.6745 56.1037 12.6758 56.1153 12.6769 56.1271C12.6798 56.1585 12.6805 56.1915 12.6793 56.226C12.6787 56.2437 12.6775 56.2617 12.676 56.2799C12.6731 56.3121 12.669 56.345 12.6631 56.3793C12.6587 56.4051 12.6533 56.4319 12.6473 56.459C12.6433 56.4768 12.6386 56.4949 12.6339 56.5132C12.6214 56.5624 12.6058 56.6138 12.5889 56.6662C12.5844 56.68 12.5795 56.6942 12.5747 56.7081C12.5597 56.7521 12.5432 56.7972 12.5251 56.8433C12.5221 56.851 12.5193 56.8584 12.5163 56.866C12.4542 56.8378 12.3958 56.8123 12.3394 56.7879C11.9752 56.6331 11.7013 56.5612 11.2113 56.5436C10.8951 56.5324 10.6272 56.5878 10.3647 56.6785C10.3647 56.6782 10.3649 56.6779 10.3649 56.6776C10.1203 57.5563 8.07861 61.6512 8.07861 61.6512L8.83033 62.0918C8.83033 62.0918 11.0926 59.4924 12.1489 57.6152C11.8717 58.6755 11.4291 60.0689 11.4291 60.0689L12.2247 60.4237C12.2247 60.4237 15.1361 56.8511 14.5472 55.7143C14.4695 55.5639 14.3838 55.3962 14.2942 55.22ZM62.2702 63.5508C62.2919 63.456 62.3057 63.3594 62.3075 63.2617C62.308 63.2253 62.308 63.1878 62.3054 63.1506C62.3054 63.1501 62.3054 63.1498 62.3052 63.1494C62.2974 63.1347 61.8322 62.2711 61.5234 62.269C61.3357 62.2687 61.5305 62.9344 61.5305 62.9344C61.5305 62.9344 61.4014 62.782 61.3348 62.6642C61.267 62.5464 61.1492 62.3528 60.7224 62.2147C60.5741 62.1671 60.4752 62.0359 60.4081 61.8857C60.3649 62.1538 60.2042 62.5017 59.7161 62.7876C59.5465 62.8866 59.3861 62.935 59.237 62.9519C59.2054 62.9554 59.1737 62.9593 59.143 62.9602C59.1628 63.0171 59.1871 63.073 59.2148 63.1282C59.2261 63.1506 59.2362 63.1734 59.2488 63.1955L59.6686 63.9338C59.7244 64.0322 59.7804 64.1265 59.838 64.215C59.9024 64.3158 59.9688 64.4082 60.0369 64.4907C60.286 64.7904 60.5681 64.9479 60.9429 64.8125C61.0011 64.7919 61.061 64.7659 61.1238 64.7308L61.5937 64.4631C61.6191 64.449 61.6435 64.4339 61.6671 64.418C61.6953 64.5095 61.7055 64.5804 61.6713 64.5999L61.2011 64.8667C61.1931 64.8805 61.6619 65.5333 61.6619 65.5333L61.6987 65.6485L61.7097 65.6656L62.1888 66.4131L62.3054 65.6656L62.5092 64.3597C62.5092 64.3597 62.5281 64.3442 62.5592 64.3203L62.2702 63.5508ZM59.6556 61.3484C59.3837 61.5418 59.1986 61.8185 59.1142 62.1234C59.1141 62.1239 59.1141 62.1245 59.1139 62.1251C59.1141 62.1243 59.1145 62.1239 59.1148 62.1231C59.1991 61.8182 59.384 61.5421 59.6556 61.3484ZM59.8915 61.2126C59.879 61.2184 59.8664 61.225 59.8539 61.2312C59.8368 61.2397 59.8197 61.2483 59.8028 61.2577C59.82 61.2483 59.8374 61.2399 59.8548 61.2312C59.8672 61.2252 59.8791 61.2182 59.8915 61.2126ZM60.214 61.1103C60.2231 61.1082 60.2324 61.1071 60.2418 61.1055C60.2323 61.107 60.2228 61.1082 60.2132 61.1103C60.2004 61.1127 60.1875 61.1163 60.1747 61.1192C60.1878 61.1163 60.2011 61.1141 60.2144 61.1114L60.214 61.1103ZM61.7549 61.8903L61.7034 61.7994C61.6639 61.73 61.6188 61.6661 61.5702 61.6062C61.6188 61.6661 61.6637 61.73 61.7032 61.7994L61.7549 61.8903ZM58.2045 68.9767C58.1185 68.9551 58.0539 68.941 58.0452 68.9461C58.0406 68.9416 58.0366 68.9375 58.0313 68.9327C58.0172 68.9183 57.9983 68.903 57.977 68.8869C57.8715 68.8079 57.6926 68.715 57.5142 68.6469C57.2664 68.5523 57.0195 68.5062 56.9717 68.615C56.9655 68.6288 56.9652 68.6409 56.967 68.6521C56.9864 68.7729 57.4117 68.7688 57.3228 68.9354C57.2144 69.138 56.1967 69.0113 56.2394 69.2275C56.2874 69.4727 57.0563 69.1684 57.0602 69.3634C57.0606 69.3735 57.0561 69.3831 57.0507 69.3917C57.0499 69.3931 57.0507 69.3949 57.0494 69.3961C56.9598 69.5134 56.3484 69.4671 56.1373 69.5674C56.085 69.5922 56.0564 69.6257 56.0675 69.6732C56.126 69.9287 57.013 69.5371 57.0411 69.7299C57.0702 69.9236 56.189 69.8286 56.2359 70.0624C56.2873 70.3233 57.2425 69.8873 57.252 70.0113C57.2681 70.2193 56.5549 70.1532 56.5835 70.3595C56.6001 70.4813 56.9687 70.4261 57.3588 70.3071C57.7038 70.2018 58.0456 70.0404 58.1838 69.8608C58.1923 69.8499 58.2766 69.8043 58.3829 69.7499C58.3988 69.5326 58.3811 69.3107 58.3197 69.0914C58.3185 69.0869 58.3166 69.0827 58.3152 69.0781C58.3415 69.0619 58.3713 69.0452 58.4027 69.0285C58.3336 69.0102 58.2641 68.9918 58.2045 68.9767Z" fill="#FFD2BB"/>
<path d="M76.6444 55.8033C75.7864 57.4161 73.641 58.0233 73.641 58.0233C73.641 58.0233 73.8553 57.9933 74.1463 57.9654C73.7916 58.2736 73.5541 58.7101 73.5107 59.2022C73.2986 58.7328 72.8225 58.4049 72.2676 58.4049C71.7639 58.4049 71.3253 58.6753 71.0897 59.0765C70.5098 58.4782 69.7915 57.6069 70.5875 57.6609C71.11 57.6964 71.4199 57.8309 71.6042 57.9722C70.9648 57.0361 69.4555 54.6647 70.3338 54.3279C71.0649 54.0476 71.5784 54.641 71.8401 55.0692C71.3008 53.9978 69.925 51.0964 71.051 51.4825C72.4276 51.9548 72.5824 53.7685 72.5824 53.7685C72.5824 53.7685 73.0012 53.368 72.9156 52.1299C72.8299 50.892 72.0148 47.3163 73.8447 48.1208C75.6747 48.9248 75.6367 51.1565 74.8859 52.3065C74.1347 53.4563 76.0034 50.8433 76.6298 51.8727C77.1585 52.7416 75.8558 54.7328 75.2653 55.3614C76.0199 55.0435 77.2587 54.6492 76.6444 55.8033ZM20.7874 54.7579C20.2165 54.539 19.8155 55.0022 19.6111 55.3365C20.0323 54.4998 21.1064 52.2344 20.2272 52.5361C19.1523 52.9049 19.0313 54.3212 19.0313 54.3212C19.0313 54.3212 18.7043 54.0086 18.7711 53.0417C18.8381 52.0749 19.4746 49.2829 18.0457 49.911C16.6167 50.5389 16.6463 52.2817 17.2326 53.1796C17.8192 54.0774 16.3599 52.0369 15.8708 52.8409C15.4579 53.5195 16.4751 55.0742 16.9363 55.5652C16.3472 55.3171 15.3798 55.0092 15.8595 55.9104C16.1768 56.5068 16.7198 56.9271 17.2034 57.2044C17.2512 57.2009 17.299 57.1972 17.3477 57.1972C18.3083 57.1972 19.0981 57.9046 19.2197 58.8193C19.2369 58.8221 19.2534 58.8246 19.27 58.8273C19.4971 58.3979 19.9487 58.1025 20.4736 58.1025C20.4909 58.1025 20.5077 58.1045 20.5247 58.1051C20.8513 57.7135 21.0612 57.329 20.5893 57.3609C20.1812 57.3887 19.939 57.4938 19.7953 57.6039C20.2945 56.8729 21.4732 55.0209 20.7874 54.7579ZM47.5609 20.3758C47.5439 20.3677 47.526 20.3587 47.508 20.3514V20.3516L47.5078 20.3525C47.4978 20.3481 47.4879 20.3436 47.4777 20.3393C47.4579 20.3309 47.438 20.323 47.4179 20.3154C47.3949 20.307 47.3714 20.2994 47.3479 20.292C47.332 20.2872 47.3161 20.2819 47.2998 20.2772C47.2691 20.2689 47.2378 20.2618 47.2063 20.2553C47.1959 20.2531 47.1856 20.2506 47.1752 20.2485C47.1318 20.2406 47.0878 20.2344 47.0431 20.2305C46.6404 20.1946 46.2625 20.3254 45.9746 20.5652C45.9743 20.5655 45.9737 20.5657 45.9734 20.566C45.686 20.8029 45.0112 20.0617 44.9754 20.4634C44.9754 20.4634 45.0507 20.9964 45.5047 21.2944C45.6557 21.3936 45.8485 21.4667 46.0945 21.4855C46.6787 21.5301 47.0208 21.3289 47.2157 21.1261C47.1843 21.2935 47.1911 21.4636 47.2892 21.5919C47.5713 21.9611 47.5577 22.1953 47.5452 22.3355C47.5328 22.4756 47.5527 22.6811 47.5527 22.6811C47.5527 22.6811 47.7798 21.9988 47.9392 22.1108C48.201 22.2947 48.0873 23.3063 48.0855 23.3217C48.0855 23.3218 48.0854 23.3232 48.0854 23.3232C48.1981 23.1378 48.2713 22.9248 48.2919 22.6939L48.37 21.8175C48.4252 21.1976 48.0866 20.6346 47.5609 20.3758ZM12.8106 44.2599C12.8147 44.2455 13.0415 43.4583 13.2929 43.402C13.4462 43.3674 13.4052 43.9466 13.4052 43.9466C13.4052 43.9466 13.4839 43.7991 13.5176 43.691C13.5511 43.5827 13.6134 43.4036 13.9376 43.2153C14.0062 43.1753 14.0538 43.1127 14.0874 43.0401C14.2632 43.212 14.5132 43.3899 14.8615 43.5035C15.0667 43.5703 15.2265 43.5928 15.3535 43.5862C15.6962 43.5687 15.7955 43.3354 15.8586 43.1533C16.0036 42.7347 15.5326 42.7253 15.3925 42.4582C15.2514 42.1904 14.9905 41.8065 14.5451 42.1142C14.4214 42.1996 13.8853 41.6445 13.6302 42.0064C13.5747 42.0852 13.6074 42.233 13.6497 42.3543C13.6497 42.3545 13.6497 42.3545 13.6497 42.3545C13.6367 42.3611 13.6227 42.3658 13.61 42.373C13.3567 42.5152 13.1553 42.7507 13.0619 43.0502L12.8504 43.7282C12.7947 43.9069 12.7834 44.0887 12.8103 44.2613C12.8103 44.2613 12.8106 44.26 12.8106 44.2599ZM81.2743 63.2966C81.3357 63.0288 80.7858 62.9372 80.7858 62.9372L78.3692 62.4744L78.2591 63.6959L78.3158 63.7066L79.0356 63.8442L79.0684 63.8504C79.0684 63.8504 79.5492 63.4934 79.7409 63.4563C80.1469 63.3779 81.179 63.7086 81.2743 63.2966ZM82.4909 65.9521L80.4229 64.4095L79.7604 65.5115L79.7789 65.5253L80.4527 66.0281C80.4527 66.0281 80.4725 66.0244 80.505 66.0186C80.6574 65.992 81.1049 65.9202 81.2678 65.9636C81.6866 66.0749 82.5087 66.8598 82.7871 66.5144C82.9681 66.2907 82.4909 65.9521 82.4909 65.9521ZM63.7637 62.216C62.9789 62.2696 62.0926 61.8822 61.5707 61.6065C61.6194 61.6663 61.6644 61.7303 61.7039 61.7997L61.7554 61.8905L61.7037 61.7997C61.6643 61.7303 61.6194 61.6663 61.5707 61.6065C61.5702 61.6059 61.5698 61.6055 61.5693 61.6049C61.4389 61.4445 61.2778 61.3189 61.0997 61.2313C60.8445 61.1062 60.5548 61.0582 60.2696 61.1009C60.2606 61.1022 60.2514 61.104 60.2423 61.1056C60.233 61.1072 60.2236 61.1084 60.2145 61.1104L60.215 61.1115C60.2017 61.1142 60.1884 61.1164 60.1752 61.1193C60.1592 61.1228 60.143 61.1263 60.127 61.1304C60.1007 61.1372 60.0744 61.145 60.0482 61.1533C60.0354 61.1574 60.0224 61.1612 60.0097 61.1656C59.9815 61.1754 59.9539 61.1869 59.9262 61.1985C59.9149 61.2034 59.9034 61.2076 59.892 61.2128C59.8796 61.2183 59.8677 61.2253 59.8554 61.2313C59.8381 61.24 59.8207 61.2484 59.8034 61.2578C59.7954 61.262 59.7871 61.2657 59.7789 61.2702C59.7363 61.2946 59.6953 61.3207 59.6562 61.3487C59.3845 61.5422 59.1994 61.8183 59.1154 62.1234C59.1152 62.1241 59.1148 62.1246 59.1145 62.1253C59.0157 62.4705 58.074 62.2538 58.2664 62.5921C58.2664 62.5921 58.6192 62.9734 59.1432 62.9605C59.1737 62.9596 59.2055 62.9558 59.2372 62.9522C59.3863 62.9353 59.5469 62.8869 59.7164 62.7878C60.2044 62.5019 60.3651 62.1542 60.4083 61.886C60.4755 62.0361 60.5743 62.1672 60.7227 62.215C61.1496 62.353 61.2674 62.5465 61.335 62.6645C61.4017 62.7822 61.5308 62.9347 61.5308 62.9347C61.5308 62.9347 61.3357 62.269 61.5237 62.2693C61.8324 62.2715 62.2976 63.1351 62.3055 63.1496C62.3055 63.1501 62.3056 63.1504 62.3056 63.1509C62.3082 63.188 62.3083 63.2255 62.3077 63.262C62.3059 63.3596 62.2922 63.4563 62.2704 63.5511L62.5592 64.3208C62.7246 64.1933 63.2772 63.791 63.6663 63.7928C64.3176 63.7955 65.6868 64.7347 65.7119 64.729C66.6883 65.4161 67.3298 65.5301 67.8231 65.5038C67.9544 64.797 67.833 64.0164 67.3431 63.2747C65.9667 61.1887 64.3748 62.1739 63.7637 62.216ZM61.1646 66.5662C61.0361 66.212 61.2136 65.8757 61.3725 65.6657C61.475 65.5304 61.5698 65.4473 61.5698 65.4473L61.6989 65.6487L61.6622 65.5334C61.6622 65.5334 61.1933 64.8806 61.2013 64.8669L61.6715 64.6C61.7057 64.5805 61.6956 64.5096 61.6673 64.4181C61.6437 64.4338 61.6194 64.4491 61.594 64.4632L61.1241 64.7309C61.061 64.766 61.0013 64.792 60.9431 64.8126C60.5683 64.948 60.2862 64.7905 60.0372 64.4908C59.9688 64.4083 59.9025 64.3159 59.8382 64.2151C59.7806 64.1266 59.7247 64.0323 59.6689 63.9339L59.249 63.1956C59.2365 63.1735 59.2263 63.1507 59.215 63.1283C59.103 64.105 59.2514 64.9598 59.4973 65.6657C59.7808 66.48 60.1929 67.0961 60.4826 67.4705C60.5802 67.5967 60.7166 67.6995 60.884 67.7824C61.0943 67.8867 61.3537 67.9599 61.6484 68.0086C61.8578 67.9569 62.0273 67.9171 62.1342 67.8931C62.1376 67.8841 62.1411 67.8751 62.1448 67.866C62.1209 67.8392 62.0956 67.8113 62.0693 67.7822C61.7641 67.4469 61.3141 66.9788 61.1646 66.5662ZM15.5275 61.7339C14.7073 61.7339 13.1187 62.3988 11.9795 63.219L8.22912 65.9193C7.08991 66.7395 6.83138 67.4044 7.65158 67.4044C8.47178 67.4044 10.0603 66.7395 11.1994 65.9193L14.9498 63.219C16.0892 62.399 16.3477 61.7339 15.5275 61.7339Z" fill="#222AEF"/>
<path d="M14.3515 46.4996L16.6382 46.7817C16.5212 47.269 16.372 47.7495 16.2258 48.2277C16.1386 48.513 16.0556 48.7968 15.9765 49.0804C15.9765 49.0806 15.9765 49.0806 15.9765 49.0806C15.3005 49.2186 14.7378 49.3279 14.6701 49.3411C14.6655 49.342 14.6633 49.3424 14.6633 49.3424C14.387 50.0554 13.5141 51.465 12.9061 52.5047L11.893 52.3721C11.8923 52.3656 11.8917 52.3614 11.8917 52.3614L10.6498 52.2093L9.36407 52.041C9.36482 52.0446 9.36558 52.0486 9.36634 52.052L8.19099 51.9083C8.35624 51.1597 8.87346 49.5995 9.02828 48.8993C9.02828 48.8993 9.35409 47.2534 9.60779 46.2431L8.52708 42.579L8.57214 42.5704L8.73421 42.5397L10.6214 42.1821L10.7577 42.1562L10.7632 42.1794L11.5766 45.6425L11.5426 45.6321L12.1978 45.8344L13.3831 46.2003L13.9129 46.3645L14.0543 46.408L14.3495 46.4993L14.3515 46.4996ZM8.18555 51.9322C8.18691 51.9326 8.18948 51.9335 8.19099 51.9338C8.19038 51.9285 8.18948 51.9232 8.18887 51.9178C8.18781 51.9223 8.18645 51.9276 8.18555 51.9322ZM67.8231 65.5037C67.3298 65.53 66.6881 65.416 65.7119 64.7288C65.6868 64.7346 64.3176 63.7952 63.6663 63.7927C63.2771 63.7908 62.7245 64.1932 62.5591 64.3206C62.5281 64.3445 62.5091 64.3599 62.5091 64.3599L62.3053 65.6659L62.1887 66.4134L61.7096 65.6659L61.6986 65.6488L61.5694 65.4474C61.5694 65.4474 61.4746 65.5307 61.3721 65.6659C61.2132 65.8759 61.0356 66.2121 61.1643 66.5664C61.3138 66.979 61.7637 67.4471 62.0688 67.7825C62.0951 67.8114 62.1204 67.8395 62.1443 67.8663C62.1408 67.8754 62.1372 67.8844 62.1337 67.8934C62.0268 67.9173 61.8573 67.9572 61.6479 68.0089C60.7319 68.2346 59.0444 68.6873 58.4026 69.0289C58.3712 69.0456 58.3414 69.0624 58.3151 69.0785C58.3165 69.0831 58.3184 69.0873 58.3196 69.0918C58.381 69.3111 58.3989 69.5332 58.3828 69.7503C58.3797 69.7935 58.3772 69.8368 58.3712 69.8794C58.4058 69.8795 58.4416 69.8792 58.4814 69.8774C59.247 69.8476 62.3301 69.387 62.5201 69.3489C62.6084 69.3312 62.6884 69.2962 62.7613 69.2521C62.9723 69.1922 63.2062 69.0569 63.4499 68.7914C63.451 68.7902 63.4521 68.789 63.453 68.788C63.6595 68.8295 63.8675 68.8271 64.0805 68.7861C64.4221 68.7201 64.9358 68.6717 65.3545 68.7095C66.9577 68.8537 67.5351 69.4512 68.2218 70.066C68.2597 69.9675 68.3415 69.6857 68.4452 69.3106C68.5239 69.0262 68.615 68.6885 68.71 68.3332C68.7995 67.9984 68.8922 67.6498 68.9803 67.3179C69.1251 66.7729 69.2573 66.2756 69.3431 65.9656C69.385 65.8147 69.4162 65.7066 69.4319 65.6609C68.8693 65.1874 68.4761 65.4686 67.8231 65.5037Z" fill="#FF4C2E"/>
<path d="M78.5829 61.239H67.8301C67.8353 61.2153 67.8424 61.1921 67.8484 61.1689C68.1915 61.0361 68.435 60.704 68.435 60.3142V60.1996C68.766 59.9007 69.1987 59.7099 69.6773 59.6868C69.7102 59.6851 69.743 59.6842 69.7759 59.6842C69.8768 59.6842 69.9753 59.6923 70.072 59.7067C70.3947 59.7548 70.6921 59.8792 70.9451 60.0608C70.9204 59.96 70.9062 59.8552 70.9062 59.7471C70.9062 59.5025 70.9736 59.2736 71.0896 59.0761C71.3252 58.675 71.7638 58.4045 72.2675 58.4045C72.8222 58.4045 73.2983 58.7324 73.5106 59.2019C73.554 58.7098 73.7915 58.2733 74.1462 57.965C74.4791 57.6756 74.9149 57.499 75.3935 57.499C76.4381 57.499 77.285 58.3345 77.285 59.3653C77.285 59.5891 77.2429 59.8029 77.1694 60.0017C77.2075 59.9985 77.2459 59.9959 77.285 59.9959C77.9893 59.9959 78.5615 60.5493 78.5829 61.239ZM22.8023 59.3892C22.7574 59.3928 22.7129 59.3978 22.669 59.4045C22.3462 59.4526 22.0488 59.577 21.7958 59.7586C21.8205 59.6577 21.8347 59.5529 21.8347 59.4448C21.8347 58.7203 21.2523 58.1315 20.5245 58.1047C20.5074 58.1041 20.4906 58.1021 20.4734 58.1021C19.9485 58.1021 19.4968 58.3976 19.2698 58.8269C19.2569 58.8513 19.2418 58.8743 19.2305 58.8995C19.228 58.8721 19.223 58.8458 19.2194 58.8189C19.0979 57.9041 18.308 57.1968 17.3474 57.1968C17.2987 57.1968 17.2509 57.2004 17.2032 57.2041C16.2263 57.2769 15.4559 58.0805 15.4559 59.0631C15.4559 59.2869 15.498 59.5006 15.5715 59.6995C15.5334 59.6963 15.495 59.6937 15.4559 59.6937C14.7516 59.6937 14.1795 60.2471 14.1582 60.9368H23.0474C22.8959 60.7732 22.8025 60.5549 22.8025 60.3143V59.3892H22.8023ZM44.1811 31.3271H45.4494L46.0236 26.7143L45.8767 26.7012L45.9474 25.9077L46.3685 25.6701L46.7409 25.9785L46.6703 26.7721L46.5232 26.7589L46.2766 31.3271H47.8872L48.4173 25.379L49.1805 25.4492L48.0399 25.3444L48.0103 24.7253L45.8185 24.5234L45.6626 25.1255L44.1912 24.99L44.7362 25.0996C44.8188 25.2352 44.7725 25.5685 44.6578 25.9794L44.1811 31.3271ZM24.9974 34.9055H66.3908V58.3191H24.9974V34.9055ZM47.7992 45.7705H36.6112V56.0898H47.7992V45.7705ZM61.3341 55.5419H49.9158V55.8462H61.3341V55.5419ZM60.9527 49.5887V39.2694H49.7647V49.5887H60.9527ZM61.3341 54.03H49.9158V54.3343H61.3341V54.03ZM61.3341 52.5181H49.9158V52.8225H61.3341V52.5181ZM61.3341 51.0062H49.9158V51.3106H61.3341V51.0062ZM36.46 38.1991H61.9389V37.0549H36.46V38.1991ZM36.46 39.8202H47.8783V39.5158H36.46V39.8202ZM36.46 41.3321H47.8783V41.0277H36.46V41.3321ZM36.46 42.844H47.8783V42.5396H36.46V42.844ZM36.46 44.3559H47.8783V44.0515H36.46V44.3559ZM28.5981 42.3207H34.7248V37.1665H28.5981V42.3207ZM28.5981 48.9475H34.7248V43.7933H28.5981V48.9475ZM28.5981 56.0652H34.7248V50.911H28.5981V56.0652ZM61.5827 34.4451C61.7357 34.4451 61.8598 34.3211 61.8598 34.168C61.8598 34.0148 61.7357 33.8908 61.5827 33.8908C61.4295 33.8908 61.3055 34.0148 61.3055 34.168C61.3055 34.3211 61.4295 34.4451 61.5827 34.4451ZM58.8613 34.4451C59.0143 34.4451 59.1384 34.3211 59.1384 34.168C59.1384 34.0148 59.0143 33.8908 58.8613 33.8908C58.7081 33.8908 58.5841 34.0148 58.5841 34.168C58.5841 34.3211 58.7081 34.4451 58.8613 34.4451ZM56.1399 34.4451C56.2929 34.4451 56.417 34.3211 56.417 34.168C56.417 34.0148 56.2929 33.8908 56.1399 33.8908C55.9867 33.8908 55.8627 34.0148 55.8627 34.168C55.8627 34.3211 55.9867 34.4451 56.1399 34.4451ZM42.1296 52.4366C42.9229 52.4366 43.5659 51.7936 43.5659 51.0003C43.5659 50.207 42.9229 49.564 42.1296 49.564C41.3363 49.564 40.6933 50.207 40.6933 51.0003C40.6933 51.7936 41.3363 52.4366 42.1296 52.4366ZM55.3587 43.2897C54.5654 43.2897 53.9224 43.9327 53.9224 44.726C53.9224 45.5193 54.5654 46.1623 55.3587 46.1623C56.152 46.1623 56.795 45.5193 56.795 44.726C56.795 43.9327 56.1518 43.2897 55.3587 43.2897Z" fill="#FBC02D"/>
<path d="M67.5183 31.3273H49.1892C49.3756 30.2783 49.5527 29.2682 49.6975 28.4371C50.7845 28.1642 52.8217 27.4667 52.9078 27.3292C53.1248 26.9838 54.5714 25.2715 55.1795 24.049C55.2909 23.8251 55.3737 23.6177 55.4161 23.4381C55.418 23.4294 55.4209 23.4204 55.4227 23.4119C55.4226 23.4119 55.4224 23.4118 55.4223 23.4116C55.0934 23.2787 54.8143 23.0386 54.6343 22.7326C54.6341 22.7323 54.634 22.7322 54.6338 22.7319C54.627 22.7368 54.6189 22.7427 54.6119 22.7479C54.6075 22.7511 54.6025 22.7548 54.598 22.758C54.0103 23.1868 52.8386 24.1538 51.9541 24.9397C51.6673 25.1946 49.9427 25.3056 49.1806 25.4493L48.4174 25.3792L47.8873 31.3273H46.2767L46.5233 26.7591L46.6704 26.7722L46.741 25.9786L46.3686 25.6702L45.9475 25.9079L45.8768 26.7013L46.0237 26.7145L45.4495 31.3273H44.1812L44.6579 25.9797C44.7726 25.5686 44.8188 25.2356 44.7364 25.0999L44.1913 24.9903L41.9607 24.5419C41.6928 24.1152 39.167 21.9715 38.2045 21.2693C38.1988 21.2652 38.1929 21.2608 38.1874 21.2569C38.1811 21.2522 38.1738 21.2469 38.1676 21.2422C38.1675 21.2423 38.1673 21.2426 38.1673 21.2428C37.9871 21.5488 37.7082 21.7889 37.3792 21.9218C37.379 21.9219 37.3789 21.9221 37.3787 21.9221C37.3807 21.9312 37.3837 21.9407 37.3858 21.9499C37.4283 22.1292 37.511 22.3359 37.6221 22.5592C38.2302 23.7817 39.6767 25.4941 39.8938 25.8394C40.0809 26.138 42.7121 28.1186 42.7121 28.1186C42.6893 29.1576 42.667 30.3631 42.6617 31.3273H23.7195C23.2129 31.3273 22.8026 31.7379 22.8026 32.2442V59.3894V60.3142C22.8026 60.5547 22.896 60.7731 23.0475 60.9366C23.215 61.1173 23.4537 61.2312 23.7195 61.2312H43.7173V65.6655H14.3113C13.7268 65.6655 13.253 66.1394 13.253 66.7239C13.253 67.3084 13.7268 67.7822 14.3113 67.7822H51.8176V68.7999C51.7133 68.8839 51.6457 69.0115 51.6471 69.1559C51.6496 69.4064 51.8545 69.6074 52.105 69.6054L52.1353 69.6051C52.1785 69.6188 52.2234 69.6281 52.2712 69.6281C52.322 69.6281 52.3699 69.6179 52.4156 69.6024L56.1379 69.5673C56.3489 69.4671 56.9602 69.5135 57.05 69.396C57.0512 69.3946 57.0503 69.3928 57.0512 69.3916C57.0568 69.383 57.0613 69.3736 57.0607 69.3633C57.0568 69.1683 56.288 69.4726 56.2399 69.2274C56.1973 69.0112 57.2149 69.1379 57.3233 68.9353C57.4122 68.7687 56.9869 68.7728 56.9676 68.652L52.7248 68.6924V67.782H60.884C60.7168 67.699 60.5804 67.5962 60.4826 67.4701C60.1928 67.0958 59.7808 66.4797 59.4973 65.6654H52.7248V63.5052C52.7248 63.2547 52.5217 63.0516 52.2712 63.0516C52.0207 63.0516 51.8176 63.2547 51.8176 63.5052V65.6654H46.7411V61.231H59.8542C59.8668 61.2248 59.8792 61.2182 59.8919 61.2124C59.9032 61.2073 59.9146 61.203 59.9261 61.1982C59.9537 61.1864 59.9814 61.1752 60.0095 61.1652C60.0222 61.1609 60.0352 61.1571 60.0481 61.153C60.0742 61.1445 60.1004 61.1368 60.1268 61.13C60.1429 61.1259 60.159 61.1225 60.1751 61.119C60.1879 61.1161 60.2008 61.1125 60.2136 61.1101C60.2231 61.1078 60.2325 61.1067 60.2422 61.1052C60.2514 61.1037 60.2606 61.1019 60.2694 61.1005C60.5547 61.0581 60.8444 61.1058 61.0996 61.231H67.5183C67.6349 61.231 67.746 61.2085 67.8487 61.1687C68.1917 61.036 68.4353 60.7038 68.4353 60.314V60.1994V32.2442C68.4353 31.7379 68.0247 31.3273 67.5183 31.3273ZM66.3912 33.4832V34.9056V58.3193H24.9977V34.9056V33.4832V33.4625H66.3911V33.4832H66.3912ZM12.7949 61.8019L10.9185 60.9575L11.4295 60.0691L12.0581 60.3517C12.0581 60.3517 12.2154 60.8276 12.3289 60.9445C12.5693 61.1934 13.4346 61.4625 13.3012 61.7901C13.2149 62.0031 12.7949 61.8019 12.7949 61.8019ZM9.74979 63.5684C9.64048 63.7707 9.24497 63.5241 9.24497 63.5241L7.47363 62.4783L8.07915 61.6516L8.67272 62.0015C8.67272 62.0015 8.77688 62.4916 8.87667 62.6207C9.08788 62.8947 9.91791 63.2574 9.74979 63.5684ZM10.3766 56.6352C10.3815 56.6152 10.3857 56.5968 10.3878 56.5818C10.4259 56.3174 8.67967 53.7697 8.67967 53.7697C8.67967 53.7697 8.31062 52.9785 8.19118 51.9336C8.19057 51.9283 8.18967 51.923 8.18906 51.9176C8.18876 51.9143 8.18815 51.9109 8.18785 51.9076L8.19133 51.9081L9.36667 52.0519C9.36592 52.0484 9.36516 52.0444 9.36441 52.0408L10.6501 52.2091L11.892 52.3612C11.892 52.3612 11.8924 52.3654 11.8934 52.3719L12.9065 52.5045L12.9396 52.5087C12.9396 52.5087 12.9422 52.5139 12.9459 52.5215C12.9479 52.5254 12.9503 52.5302 12.953 52.5361C12.9579 52.5456 12.9641 52.5582 12.9712 52.5727C12.9722 52.5751 12.9731 52.5766 12.9744 52.5791C13.1027 52.8389 13.5669 53.7774 14.0136 54.6644C14.0157 54.6686 14.0179 54.6729 14.02 54.6771C14.0348 54.7066 14.0498 54.7362 14.0644 54.7656C14.074 54.7841 14.0833 54.8027 14.0927 54.8213C14.1034 54.8427 14.1142 54.8638 14.1248 54.8848C14.1387 54.9125 14.1524 54.9397 14.1662 54.9671C14.1719 54.9784 14.1778 54.9899 14.1834 55.0013C14.2235 55.0803 14.2631 55.1583 14.3018 55.2345C14.2448 55.261 14.1892 55.2902 14.1346 55.3209C13.562 55.3455 13.0363 55.5764 12.6313 55.9409C12.6367 55.9554 12.6419 55.9704 12.6473 55.9846C12.6599 56.0174 12.6676 56.0541 12.6732 56.0924C12.6748 56.1037 12.6762 56.1154 12.6773 56.1272C12.6803 56.1586 12.6807 56.1917 12.6797 56.226C12.6791 56.2437 12.678 56.2617 12.6764 56.28C12.6736 56.3121 12.6693 56.3452 12.6635 56.3793C12.6591 56.4052 12.6538 56.432 12.6476 56.459C12.6437 56.4767 12.6389 56.4952 12.6343 56.5133C12.6064 56.6229 12.5674 56.7405 12.5172 56.8662C12.455 56.8379 12.3965 56.8124 12.34 56.788C11.9757 56.6332 11.7018 56.5612 11.2118 56.5437C10.8957 56.5325 10.6277 56.5878 10.3653 56.6785C10.3653 56.6782 10.3654 56.6779 10.3654 56.6776C10.3697 56.6627 10.3734 56.6483 10.3766 56.6352ZM58.2049 68.9767C58.1189 68.9551 58.0543 68.9411 58.0456 68.9462C58.041 68.9417 58.0369 68.9376 58.0317 68.9327C58.0176 68.9184 57.9987 68.9031 57.9774 68.8869C57.8718 68.808 57.693 68.715 57.5146 68.647L57.7653 68.6446C57.975 68.6429 58.1511 68.7843 58.2049 68.9767ZM80.505 66.0186C80.157 66.5083 79.5937 67.1307 79.1998 67.6845C78.5739 68.5626 77.7743 69.3038 77.3499 69.2471C77.093 69.3068 76.7442 69.3463 76.336 69.368C74.3863 69.6724 70.9685 69.8041 69.845 69.6243C69.3429 69.5439 68.8627 69.4394 68.4459 69.3106C68.5245 69.0262 68.6157 68.6884 68.7106 68.3331C68.8001 67.9984 68.8928 67.6498 68.9809 67.3179C69.1258 66.7729 69.2579 66.2756 69.3438 65.9655C69.791 65.7041 70.2996 65.6028 70.8348 65.8476C71.6122 66.2035 73.5718 66.8612 75.2187 67.5076C75.7845 67.5601 76.3242 67.6315 76.7702 67.7358C76.7796 67.1666 76.8717 66.5724 77.0702 66.2354C77.3355 65.7848 77.8629 64.5602 78.3161 63.7067L79.0359 63.8443C78.9389 64.5466 78.7334 65.4917 78.5163 66.2906C78.911 66.0298 79.3732 65.7404 79.779 65.5251L80.4529 66.028C80.4527 66.0281 80.4725 66.0242 80.505 66.0186Z" fill="#0984E3"/>
</svg>
