<svg width="224" height="222" viewBox="0 0 224 222" fill="none" xmlns="http://www.w3.org/2000/svg">
<path d="M114.804 118.851C114.804 118.813 114.804 118.813 114.804 118.851C114.917 118.776 114.992 118.739 115.067 118.701C115.18 118.664 115.293 118.664 115.405 118.664L123.684 113.928C125.377 110.236 127.108 106.432 127.484 105.798C128.199 104.456 131.21 103.188 131.21 103.188C130.871 102.964 130.683 102.815 130.683 102.815C130.683 102.815 131.172 102.255 131.661 100.987C131.849 100.503 131.962 100.167 132.038 99.9433C131.962 100.167 131.849 100.428 131.736 100.801C131.511 100.577 131.21 100.204 131.059 99.6077C130.834 98.7871 130.834 97.4447 130.834 96.8105C130.608 96.4749 130.457 96.0276 130.495 95.4308C130.608 94.3493 131.586 93.6781 131.586 93.6781V92.4475L125.566 88.9791L132.603 84.9887V61.1592L74.0908 94.6101V142.419L114.39 119.298L114.578 119.074C114.653 118.925 114.729 118.887 114.804 118.851Z" fill="#FF4C2E"/>
<path d="M204.922 149.43V155.919L93.7318 219.502L6.43457 169.456V164.048L93.7318 213.833L204.922 149.43ZM67.5802 188.363L67.0908 188.102C67.0908 188.102 65.36 189.668 66.978 190.861C67.1662 190.974 67.3544 191.122 67.6176 191.234L96.1776 174.714C96.1021 174.602 96.0271 174.49 95.9517 174.416C95.9517 174.378 95.914 174.378 95.914 174.341C95.8386 174.229 95.8012 174.155 95.7635 174.043V174.005C95.7258 173.893 95.6881 173.819 95.6508 173.707V173.669C95.6131 173.557 95.6131 173.483 95.6131 173.371C95.6131 173.333 95.6131 173.333 95.6131 173.296C95.6131 173.184 95.6131 173.11 95.6131 172.998C95.6131 172.998 95.6131 172.998 95.6131 172.961C95.6131 172.886 95.6131 172.774 95.6508 172.699V172.662C95.6508 172.588 95.6885 172.475 95.7262 172.401V172.364C95.7639 172.289 95.7639 172.177 95.8016 172.102L67.5802 188.363ZM46.7344 177.958L44.8528 176.914C44.8151 177.324 44.7024 177.697 44.5142 178.108C44.4015 178.406 44.2133 178.667 44.0251 178.965C42.7834 180.867 40.5632 182.247 40.5632 182.247L42.4825 181.986L42.5953 183.478C43.7239 182.694 44.8155 181.128 45.6054 179.86C45.7936 179.562 45.9441 179.264 46.0949 179.04C46.5085 178.406 46.7344 177.958 46.7344 177.958ZM69.9132 52.3213V56.8708C69.9132 56.8708 70.8917 58.2879 72.848 59.8167V53.9992L69.9132 52.3213ZM82.4057 59.5185L73.7888 54.5587L73.7511 54.596V60.5257C75.8204 61.9801 78.7179 63.3599 82.4057 63.6955C82.4057 63.6955 90.6463 63.2855 94.9359 56.8712V52.3217L82.4057 59.5185ZM136.741 93.7528V93.2681V92.1118L133.919 93.7528L131.586 92.4104V93.641C131.586 93.641 133.204 95.7293 136.741 93.7528Z" fill="#222AEF"/>
<path d="M123.646 123.362L125.753 124.518L123.684 134.549C123.684 134.549 124.963 134.289 126.807 136.675C127.333 137.346 128.35 137.943 129.666 138.353C129.666 138.353 129.328 138.577 129.666 139.099C130.005 139.621 130.908 140.479 130.908 140.479C130.419 140.18 129.177 139.472 128.725 139.51C128.161 139.51 127.559 140.293 127.634 141.038C127.71 141.784 130.757 143.276 131.209 143.686C131.66 144.097 132.451 144.134 132.865 144.059C133.278 144.022 133.58 143.873 133.58 143.873L133.505 142.307C133.73 142.456 134.031 142.568 134.408 142.493C135.123 142.344 135.198 140.741 135.123 140.517C135.084 140.442 135.009 140.293 134.934 140.106L135.273 138.801C137.681 138.466 140.165 137.422 142.159 135.296C142.159 135.296 140.804 126.718 140.503 122.505L140.428 121.125C140.428 121.088 140.428 121.05 140.428 121.05C140.428 121.05 140.465 121.05 140.503 121.013C140.541 121.013 140.541 120.976 140.578 120.976C140.578 120.976 140.616 120.976 140.653 120.938C140.691 120.938 140.691 120.901 140.729 120.901C140.766 120.901 140.804 120.863 140.841 120.827C140.841 120.827 140.879 120.827 140.879 120.789C140.954 120.751 140.992 120.714 141.068 120.677C141.293 120.528 141.594 120.378 141.895 120.155C141.895 120.155 141.895 120.155 141.933 120.155C142.008 120.08 142.121 120.043 142.234 119.968C142.272 119.968 142.272 119.931 142.309 119.931C142.385 119.856 142.497 119.819 142.573 119.744C142.611 119.707 142.648 119.707 142.648 119.67C142.723 119.596 142.798 119.558 142.874 119.483L161.8 130.336L107.465 161.4L80.1474 145.811L119.092 123.66L119.055 123.697C118.791 123.921 118.942 124.555 119.13 124.741C119.355 124.928 120.635 125.189 120.823 125.301C120.973 125.413 121.726 125.45 121.989 125.413C122.064 125.413 122.178 125.339 122.291 125.301L124.172 126.383L125.15 124.182L123.646 123.362ZM128.275 151.741L138.66 157.857L155.555 148.198L145.057 141.822L128.275 151.741ZM42.5953 177.025C42.5953 177.025 40.9018 175.795 42.5576 174.676C42.5576 174.676 43.2348 174.527 43.837 174.937L67.5802 188.399L95.7635 172.14C96.1399 171.245 96.8548 170.648 96.8548 170.648L67.5048 187.318L43.498 173.856C43.4603 173.818 43.3852 173.818 43.3475 173.781C43.1594 173.707 42.7831 173.557 42.3317 173.594L40.7891 174.489C40.6386 174.863 40.5632 175.198 40.6009 175.497C40.6386 176.317 41.09 176.951 41.5794 177.399C41.6548 177.473 41.7299 177.548 41.8049 177.585C41.9177 177.66 42.0308 177.772 42.1062 177.809C42.4071 177.995 42.633 178.107 42.633 178.107L44.1005 178.928C44.2887 178.667 44.4392 178.368 44.5896 178.07L42.5953 177.025ZM96.8548 175.347C96.742 175.235 96.6293 175.161 96.5162 175.049C96.4785 175.011 96.4785 175.011 96.4411 174.974C96.328 174.862 96.253 174.788 96.1776 174.676L67.6176 191.196C67.354 191.084 67.1662 190.973 66.978 190.823L46.1699 179.002C46.0195 179.262 45.8687 179.524 45.6805 179.822L67.6553 192.315L96.8548 175.347ZM43.3102 173.744C43.3479 173.781 43.4229 173.781 43.4607 173.818L72.6975 156.738L71.719 156.179L42.2563 173.557C42.2944 173.557 42.7834 173.483 43.3102 173.744ZM80.0727 173.184L85.9803 169.828L72.6975 161.922L66.4513 165.39L80.0727 173.184Z" fill="#D0E7DF"/>
<path d="M67.6556 145.962V129.255V93.4546L134.784 55.1182L136.779 56.2744L69.9508 94.6852V147.081L69.1982 146.708C69.1228 146.67 69.01 146.596 68.9346 146.558L67.6556 145.962ZM115.819 173.483L69.9131 147.081V149.467L115.782 175.721L182.609 137.534V136.601V135.072L115.819 173.483ZM68.7091 146.521C68.0696 146.447 67.5425 146.931 67.5425 147.603C67.5425 148.311 68.0693 148.945 68.7091 149.057C69.3487 149.169 69.8758 148.684 69.8758 147.976C69.8758 147.454 69.6122 146.969 69.1986 146.708C69.1232 146.67 69.0104 146.595 68.935 146.558C68.8596 146.558 68.7842 146.521 68.7091 146.521Z" fill="#B4CAC1"/>
<path d="M130.833 96.7734C131.021 97.0717 131.246 97.2955 131.397 97.482C131.736 97.9293 131.736 98.2653 131.736 98.2653C131.736 98.2653 131.698 97.4446 132.149 97.3702C132.601 97.2955 132.789 98.7873 132.451 99.0856C132.413 99.1229 132.413 99.1229 132.413 99.1603C132.413 99.1603 132.413 99.1603 132.375 99.1977L132.337 99.235C132.337 99.235 132.337 99.235 132.3 99.2724C132.3 99.2724 132.3 99.3098 132.262 99.3098C132.262 99.3098 132.262 99.3472 132.224 99.3472C132.224 99.3472 132.224 99.3845 132.186 99.3845C132.186 99.3845 132.186 99.4219 132.148 99.4219V99.4593C132.148 99.4593 132.148 99.4966 132.111 99.4966V99.534V99.5714V99.6087V99.6461C132.111 99.6461 132.111 99.6835 132.073 99.6835V99.7209C132.073 99.7582 132.073 99.7582 132.035 99.7956V99.833C132.035 99.8703 131.997 99.8703 131.997 99.9077C131.997 99.9077 131.997 99.9077 131.997 99.9451C131.922 100.169 131.809 100.43 131.696 100.803C131.47 100.579 131.169 100.206 131.019 99.6095C130.833 98.75 130.833 97.3702 130.833 96.7734ZM130.569 138.615L131.171 142.046C131.171 142.046 131.886 142.829 133.203 142.046V141.225V138.913C133.165 138.913 133.128 138.913 133.128 138.913C132.94 138.913 132.751 138.913 132.563 138.876C132.525 138.876 132.488 138.876 132.45 138.876C132.262 138.876 132.074 138.838 131.924 138.838C131.886 138.838 131.848 138.838 131.81 138.838C131.397 138.801 131.02 138.727 130.644 138.652C130.607 138.615 130.607 138.615 130.569 138.615ZM133.73 138.951C133.692 138.951 133.692 138.951 133.655 138.951C133.505 138.951 133.354 138.951 133.203 138.951V141.263C133.505 141.897 134.596 141.486 134.596 141.486L134.934 140.144L135.272 138.839C135.084 138.876 134.934 138.876 134.746 138.913C134.596 138.913 134.407 138.951 134.257 138.951H134.219C134.031 138.913 133.881 138.913 133.73 138.951ZM119.131 124.742C119.356 124.929 120.635 125.19 120.824 125.302C120.974 125.414 121.727 125.451 121.99 125.414C122.065 125.414 122.178 125.34 122.292 125.302C122.404 125.228 122.48 125.153 122.592 125.078C122.63 125.041 122.668 125.004 122.706 124.967C122.706 124.967 122.706 124.967 122.743 124.929C122.781 124.892 122.818 124.855 122.818 124.817C122.969 124.594 123.232 124.556 123.308 124.146C123.308 124.109 123.346 124.034 123.346 123.997C123.346 123.997 123.346 123.997 123.346 123.96C123.346 123.922 123.384 123.885 123.384 123.848C123.384 123.81 123.421 123.773 123.421 123.736C123.421 123.698 123.459 123.661 123.459 123.624C123.459 123.624 123.459 123.624 123.459 123.586C123.459 123.549 123.497 123.511 123.497 123.511C123.497 123.474 123.534 123.474 123.534 123.437C123.534 123.437 123.534 123.4 123.572 123.4L122.594 122.878L121.54 122.281L120.939 121.946C120.939 121.946 120.826 121.908 120.675 121.871C120.675 121.871 120.675 121.871 120.637 121.871C120.6 121.871 120.525 121.834 120.449 121.834C120.411 121.834 120.411 121.834 120.374 121.834H120.336C120.298 121.834 120.261 121.834 120.261 121.796C120.223 121.796 120.223 121.796 120.186 121.796C120.149 121.796 120.148 121.796 120.111 121.796C120.073 121.796 120.073 121.796 120.036 121.796C119.998 121.796 119.96 121.796 119.922 121.759H119.885C119.847 121.759 119.81 121.759 119.81 121.721C119.772 121.721 119.772 121.721 119.734 121.721H119.697C119.659 121.721 119.622 121.721 119.622 121.684C119.583 121.684 119.583 121.684 119.546 121.684C119.509 121.684 119.508 121.684 119.471 121.684C119.434 121.684 119.396 121.684 119.396 121.646H119.358C119.32 121.646 119.32 121.646 119.283 121.609H119.245C119.207 121.609 119.17 121.572 119.132 121.572C118.643 121.422 118.68 122.019 118.793 122.019C118.907 122.019 119.207 122.504 119.433 122.578C119.471 122.578 119.471 122.616 119.471 122.653V122.69C119.471 122.728 119.471 122.728 119.471 122.765C119.471 122.765 119.471 122.803 119.471 122.839C119.471 122.877 119.471 122.914 119.433 122.951C119.433 122.989 119.433 122.989 119.395 123.026C119.395 123.063 119.358 123.1 119.358 123.138C119.358 123.176 119.32 123.176 119.32 123.213C119.32 123.25 119.282 123.287 119.282 123.324C119.282 123.362 119.244 123.362 119.244 123.399C119.206 123.436 119.206 123.474 119.169 123.548C119.131 123.585 119.131 123.622 119.094 123.66C119.094 123.697 119.056 123.697 119.056 123.735C119.018 123.772 119.018 123.809 118.981 123.847L118.943 123.884C118.792 123.922 118.942 124.556 119.131 124.742Z" fill="#FFD2BB"/>
<path d="M204.922 149.429L182.609 136.564V137.496L115.782 175.683L69.9132 149.429V147.043L69.1605 146.67C69.5746 146.93 69.8378 147.416 69.8378 147.938C69.8378 148.646 69.311 149.131 68.6711 149.019C68.0312 148.907 67.5044 148.236 67.5044 147.565C67.5044 146.856 68.0312 146.371 68.6711 146.483C68.7465 146.483 68.8216 146.52 68.8593 146.52L67.6176 145.887V129.18L6.43457 164.048L93.7318 213.833L204.922 149.429ZM42.6326 183.477L42.5198 181.985L40.6009 182.247C40.6009 182.247 42.8208 180.867 44.0625 178.965L42.5949 178.144C42.5949 178.144 42.369 178.032 42.0681 177.846C41.9554 177.771 41.88 177.697 41.7672 177.622C41.6918 177.548 41.6168 177.51 41.5413 177.436C41.0523 176.988 40.6005 176.354 40.5628 175.534C40.5628 175.235 40.6005 174.9 40.751 174.527L71.719 156.254L72.6975 156.813L96.8171 170.686C96.8171 170.686 96.1021 171.282 95.7258 172.177C95.6881 172.252 95.6504 172.326 95.6504 172.438V172.476C95.6127 172.55 95.6127 172.662 95.575 172.737V172.774C95.575 172.849 95.5373 172.961 95.5373 173.035C95.5373 173.035 95.5373 173.035 95.5373 173.073C95.5373 173.185 95.5373 173.259 95.5373 173.371C95.5373 173.408 95.5373 173.408 95.5373 173.446C95.5373 173.557 95.575 173.632 95.575 173.744V173.782C95.6127 173.893 95.6504 173.968 95.6877 174.08V174.117C95.7254 174.229 95.8009 174.304 95.8382 174.416C95.8382 174.453 95.8759 174.453 95.8759 174.49C95.9513 174.602 96.0264 174.714 96.1018 174.789C96.1772 174.901 96.2522 174.975 96.3653 175.087C96.403 175.125 96.4031 175.125 96.4408 175.162C96.5535 175.274 96.6663 175.348 96.7794 175.46L67.5425 192.466L45.5677 179.973C44.8528 181.128 43.7239 182.694 42.6326 183.477Z" fill="#FBBB1B"/>
<path d="M73.7884 54.5956V60.5252V68.6922C75.4814 69.7363 75.1428 72.4588 75.1428 72.4588L74.9924 71.7502C74.8419 72.2353 75.1051 73.9876 75.1051 73.9876C74.2397 73.3908 74.0893 71.7502 74.0893 71.7502C73.5625 72.6826 74.4279 74.8457 74.4279 74.8457C73.412 74.0624 73.412 72.4962 73.412 72.4962C73.1108 73.7642 72.3585 74.9574 72.3585 74.9574C72.6221 74.3236 72.584 72.6079 72.584 72.6079C72.4335 73.2791 71.3423 74.7336 71.3423 74.7336C71.3423 74.7336 71.7936 74.0994 71.9068 72.8314C72.0195 71.6008 71.5682 70.7431 71.9068 69.7733C72.2454 68.8036 72.8853 68.6918 72.8853 68.6918V59.7789V53.9614L81.5399 43.6317C82.4053 43.4826 82.443 44.0417 82.443 44.0417L73.7884 54.5956ZM133.203 142.045C131.924 142.828 131.172 142.045 131.172 142.045L130.908 140.479C130.419 140.181 129.177 139.472 128.725 139.51C128.161 139.51 127.559 140.293 127.634 141.039C127.71 141.785 130.757 143.276 131.209 143.686C131.66 144.097 132.451 144.134 132.865 144.059C133.278 144.022 133.58 143.873 133.58 143.873L133.505 142.307C133.316 142.195 133.203 142.045 133.203 142.045ZM129.666 138.354C129.666 138.354 129.328 138.577 129.666 139.1C130.005 139.622 130.908 140.48 130.908 140.48L130.569 138.577H130.607C130.306 138.54 129.967 138.465 129.666 138.354ZM134.595 141.486C134.595 141.486 133.504 141.896 133.203 141.263V142.083C133.203 142.083 133.316 142.232 133.542 142.344C133.767 142.494 134.069 142.605 134.445 142.531C135.16 142.382 135.235 140.778 135.16 140.554C135.122 140.48 135.047 140.331 134.972 140.144L134.595 141.486ZM115.631 118.701C115.443 118.664 115.255 118.664 115.067 118.701C114.991 118.738 114.916 118.775 114.841 118.813C114.841 118.813 114.803 118.813 114.803 118.851C114.728 118.888 114.653 118.962 114.615 119.037L114.427 119.26L114.351 119.335C114.314 119.373 114.276 119.447 114.239 119.484C114.239 119.522 114.239 119.522 114.201 119.559C114.201 119.596 114.163 119.633 114.163 119.671C114.163 119.708 114.163 119.708 114.125 119.745C114.125 119.783 114.125 119.82 114.125 119.82C114.125 119.857 114.125 119.895 114.125 119.932V119.969C114.125 120.156 114.201 120.379 114.351 120.529C115.744 120.192 115.669 118.925 115.631 118.701ZM120.56 120.789C120.523 120.863 120.523 120.901 120.485 120.975C120.41 121.162 120.335 121.311 120.297 121.386C120.259 121.46 120.259 121.46 120.259 121.46L121.614 122.206L122.667 122.803L123.646 123.325L125.753 124.481L126.656 122.952C123.721 122.616 120.899 120.08 120.899 120.08C120.748 120.379 120.673 120.602 120.56 120.789ZM140.39 120.081C140.39 120.081 133.843 121.721 130.757 117.917V120.117C130.757 120.117 133.203 123.772 140.503 122.504L140.428 121.125L140.39 120.081ZM140.503 121.013C140.541 121.013 140.541 120.975 140.578 120.975C140.578 120.975 140.616 120.975 140.653 120.938C140.691 120.938 140.691 120.901 140.729 120.901C140.767 120.901 140.804 120.863 140.842 120.826C140.842 120.826 140.88 120.826 140.88 120.789C140.955 120.751 140.992 120.714 141.068 120.676C141.293 120.528 141.595 120.378 141.896 120.155C141.896 120.155 141.896 120.155 141.933 120.155C142.009 120.08 142.121 120.043 142.235 119.968C142.272 119.968 142.272 119.931 142.31 119.931C142.385 119.856 142.498 119.819 142.573 119.744C142.611 119.707 142.648 119.707 142.648 119.67C142.724 119.595 142.799 119.558 142.874 119.483C142.912 119.445 142.949 119.409 142.987 119.409C143.062 119.334 143.137 119.297 143.213 119.222C143.25 119.185 143.288 119.148 143.325 119.11C143.401 119.036 143.476 118.961 143.551 118.886C143.589 118.849 143.626 118.812 143.664 118.775C143.739 118.7 143.815 118.626 143.89 118.551C143.927 118.513 143.965 118.476 144.003 118.439C144.078 118.365 144.153 118.253 144.228 118.178C144.266 118.14 144.304 118.103 144.341 118.066C144.454 117.954 144.529 117.805 144.642 117.656C144.642 117.656 144.604 117.581 144.567 117.432C144.567 117.395 144.529 117.32 144.492 117.246C144.454 117.134 144.417 117.022 144.379 116.873V116.835V116.798C144.341 116.649 144.266 116.462 144.229 116.276C143.927 117.282 142.987 118.998 140.466 119.893L140.503 121.013Z" fill="#E84393"/>
<path d="M117.701 119.894L122.141 117.358C121.652 118.439 121.238 119.371 120.899 120.08C120.786 120.341 120.674 120.565 120.598 120.751C120.56 120.826 120.56 120.863 120.523 120.938C120.448 121.124 120.373 121.273 120.335 121.348C120.297 121.385 120.297 121.422 120.297 121.422L121.652 122.168L121.05 121.833C121.05 121.833 120.937 121.795 120.786 121.758C120.899 121.796 121.012 121.833 121.05 121.833L120.184 121.348L117.701 119.894ZM115.857 118.812L117.7 119.931L122.141 117.395C122.63 116.313 123.157 115.12 123.721 113.927L115.443 118.663C115.593 118.664 115.744 118.701 115.857 118.812ZM72.8476 54.0361L57.42 45.1232L82.405 30.5049L107.465 45.1606L94.9729 52.3208L82.405 59.5184L73.7881 54.5586L82.405 44.1168C82.405 44.1168 82.3673 43.5204 81.5019 43.7069L72.8476 54.0361ZM132.602 84.9515L125.565 88.9416L131.585 92.4099L133.918 93.7523L136.741 92.1114H136.778L141.67 89.2772L136.778 86.5177L133.279 84.5412L132.602 84.9515ZM69.9129 94.6473L136.741 56.2365V86.5177L133.241 84.5412L132.564 84.9141V61.0846L74.0524 94.5356V142.344L114.352 119.223L114.276 119.297C114.239 119.335 114.201 119.41 114.163 119.446C114.163 119.484 114.163 119.484 114.126 119.521C114.126 119.558 114.088 119.596 114.088 119.633C114.088 119.67 114.088 119.67 114.05 119.707C114.05 119.745 114.05 119.782 114.05 119.782C114.05 119.82 114.05 119.857 114.05 119.894V119.931C114.05 120.118 114.126 120.342 114.276 120.491C114.351 120.565 114.426 120.64 114.501 120.715L115.292 121.2L69.8367 147.043V94.6473H69.9129ZM42.5195 174.639C40.9015 175.795 42.5572 176.988 42.5572 176.988L44.4762 178.07C44.6643 177.697 44.7771 177.287 44.8148 176.877L46.696 177.921C46.696 177.921 46.4705 178.368 46.0942 179.002L66.9023 190.824C65.2843 189.63 67.0154 188.064 67.0154 188.064L67.5045 188.325L43.8367 174.9C43.1971 174.527 42.5195 174.639 42.5195 174.639ZM43.498 173.818L67.5049 187.281L96.8548 170.611L72.7353 156.739L43.498 173.818ZM80.0724 173.184L66.4509 165.353L72.6972 161.885L85.98 169.791L80.0724 173.184ZM115.33 118.664C115.255 118.664 115.18 118.664 115.067 118.701C115.142 118.664 115.255 118.664 115.33 118.664ZM143.1 112.659C141.895 108.818 140.39 104.045 140.24 103.597C140.127 103.336 139.976 103.113 139.788 102.926C139.788 102.926 139.75 102.926 139.75 102.963C139.525 103.075 139.337 103.187 139.111 103.299C139.073 103.336 138.998 103.374 138.96 103.374C138.885 103.411 138.772 103.449 138.697 103.486C138.659 103.523 138.584 103.523 138.547 103.56C138.359 103.635 138.208 103.709 138.02 103.784C137.982 103.784 137.945 103.821 137.907 103.821C137.832 103.858 137.719 103.896 137.644 103.896C137.606 103.896 137.531 103.933 137.493 103.933C137.418 103.971 137.305 103.971 137.23 104.008C137.192 104.008 137.155 104.008 137.117 104.045C136.967 104.083 136.778 104.12 136.628 104.157C136.59 104.157 136.552 104.157 136.477 104.195C136.402 104.195 136.327 104.232 136.252 104.232C136.214 104.232 136.138 104.232 136.101 104.232C135.838 104.27 135.574 104.27 135.348 104.27C135.311 104.27 135.235 104.27 135.198 104.27C135.123 104.27 135.048 104.27 135.01 104.27C134.972 104.27 134.897 104.27 134.859 104.27C134.747 104.27 134.634 104.27 134.521 104.232C134.483 104.232 134.408 104.232 134.37 104.232C134.295 104.232 134.258 104.232 134.182 104.195C134.144 104.195 134.069 104.195 134.032 104.157C133.994 104.157 133.919 104.157 133.882 104.12C133.806 104.12 133.769 104.083 133.694 104.083C133.618 104.083 133.543 104.045 133.468 104.045C133.43 104.045 133.355 104.008 133.318 104.008C133.279 104.008 133.204 103.971 133.167 103.971C133.13 103.971 133.054 103.933 133.017 103.933C132.979 103.933 132.942 103.896 132.904 103.896C132.828 103.858 132.753 103.858 132.678 103.821C132.64 103.821 132.603 103.784 132.565 103.784C132.527 103.784 132.49 103.746 132.452 103.746C132.414 103.746 132.377 103.709 132.339 103.709C132.301 103.709 132.264 103.672 132.226 103.672C132.151 103.634 132.113 103.634 132.076 103.597C132.038 103.597 132 103.56 131.963 103.56C131.925 103.56 131.888 103.522 131.85 103.522C131.812 103.522 131.812 103.485 131.775 103.485C131.737 103.447 131.7 103.447 131.662 103.41C131.662 103.41 131.624 103.41 131.624 103.373C131.549 103.335 131.474 103.298 131.398 103.261C131.398 103.261 131.398 103.261 131.361 103.261C131.323 103.223 131.285 103.223 131.247 103.186C131.247 103.186 128.275 104.454 127.522 105.797C127.184 106.468 125.415 110.234 123.722 113.926C123.157 115.119 122.631 116.35 122.141 117.394C121.652 118.476 121.238 119.408 120.9 120.116C120.9 120.116 123.722 122.652 126.657 122.988L125.754 124.517L123.684 134.548C123.684 134.548 124.963 134.288 126.807 136.674C127.334 137.345 128.35 137.942 129.667 138.352C129.968 138.464 130.307 138.539 130.645 138.613C131.022 138.688 131.398 138.762 131.812 138.8C131.85 138.8 131.887 138.8 131.925 138.8C132.113 138.837 132.301 138.837 132.451 138.837C132.489 138.837 132.526 138.837 132.565 138.837C132.753 138.837 132.941 138.875 133.129 138.875C133.505 138.875 133.882 138.875 134.258 138.875C134.408 138.875 134.596 138.837 134.747 138.837C134.935 138.837 135.085 138.8 135.274 138.762C137.682 138.427 140.166 137.383 142.16 135.257C142.16 135.257 140.805 126.68 140.503 122.466C133.204 123.734 130.758 120.079 130.758 120.079V117.879C133.806 121.72 140.391 120.042 140.391 120.042L140.428 121.086C140.428 121.049 140.428 121.012 140.428 121.012C140.428 121.012 140.466 121.012 140.504 120.974L140.428 119.781C142.912 118.886 143.89 117.17 144.191 116.164C144.266 116.35 144.304 116.537 144.342 116.686V116.723V116.761C144.379 116.91 144.417 117.022 144.454 117.134C144.493 117.208 144.493 117.282 144.53 117.32C144.568 117.469 144.605 117.544 144.605 117.544C144.492 117.693 144.417 117.805 144.304 117.954C144.266 117.991 144.229 118.028 144.191 118.066C144.116 118.14 144.04 118.252 143.965 118.327C143.927 118.364 143.89 118.401 143.852 118.439C143.777 118.513 143.702 118.588 143.627 118.663C143.589 118.7 143.551 118.737 143.514 118.774C143.439 118.849 143.363 118.923 143.288 118.998C143.25 119.036 143.213 119.072 143.175 119.11C143.1 119.184 143.025 119.259 142.95 119.296C142.912 119.334 142.875 119.371 142.837 119.371L161.763 130.223L107.428 161.287L80.1105 145.699L119.055 123.548C119.093 123.51 119.093 123.473 119.131 123.436C119.131 123.398 119.168 123.398 119.168 123.361C119.206 123.323 119.206 123.286 119.244 123.249C119.281 123.212 119.281 123.175 119.319 123.1C119.319 123.063 119.356 123.063 119.356 123.025C119.394 122.988 119.394 122.951 119.394 122.913C119.394 122.876 119.432 122.876 119.432 122.839C119.432 122.802 119.47 122.764 119.47 122.727C119.47 122.69 119.47 122.69 119.508 122.652C119.508 122.615 119.546 122.578 119.546 122.541C119.546 122.503 119.546 122.503 119.546 122.466C119.546 122.429 119.546 122.391 119.546 122.391V122.354C119.546 122.317 119.508 122.279 119.508 122.279C119.282 122.168 118.943 121.72 118.868 121.72C118.755 121.72 118.718 121.123 119.207 121.273C119.244 121.273 119.282 121.273 119.319 121.31H119.357C119.395 121.31 119.395 121.31 119.433 121.347H119.47C119.508 121.347 119.508 121.347 119.546 121.385C119.583 121.385 119.583 121.385 119.621 121.385C119.658 121.385 119.658 121.385 119.696 121.385C119.734 121.385 119.771 121.385 119.771 121.422H119.809C119.847 121.422 119.847 121.422 119.884 121.422C119.922 121.422 119.959 121.422 119.959 121.46H119.997C120.035 121.46 120.072 121.46 120.11 121.497C120.148 121.497 120.148 121.497 120.185 121.497C120.223 121.497 120.223 121.497 120.261 121.497C120.298 121.497 120.298 121.497 120.336 121.497C120.373 121.497 120.411 121.497 120.411 121.534H120.449C120.486 121.534 120.486 121.534 120.524 121.534C120.599 121.534 120.637 121.572 120.712 121.572C120.712 121.572 120.712 121.572 120.75 121.572C120.863 121.61 120.976 121.647 121.013 121.647L120.148 121.162L117.702 119.67L115.858 118.552C115.783 118.514 115.708 118.477 115.633 118.439C115.67 118.663 115.746 119.969 114.353 120.267C114.428 120.341 114.504 120.416 114.579 120.49L115.369 120.975L69.9144 146.819L115.821 173.222L182.61 134.811L143.1 112.659ZM138.659 157.895L128.274 151.779L145.019 141.859L155.517 148.236L138.659 157.895ZM133.73 138.95C133.881 138.95 134.031 138.95 134.181 138.95H134.22C134.069 138.913 133.918 138.913 133.73 138.95ZM115.405 118.664C115.48 118.664 115.518 118.664 115.593 118.701C115.518 118.664 115.443 118.664 115.368 118.664C115.405 118.664 115.405 118.664 115.405 118.664ZM124.135 126.346L122.253 125.264C122.367 125.19 122.442 125.115 122.555 125.041C122.592 125.003 122.63 124.966 122.668 124.928C122.668 124.928 122.668 124.929 122.706 124.891C122.743 124.854 122.781 124.817 122.781 124.779C122.931 124.556 123.195 124.518 123.27 124.108C123.27 124.07 123.308 123.996 123.308 123.959C123.308 123.959 123.308 123.959 123.308 123.922C123.308 123.884 123.345 123.847 123.345 123.81C123.345 123.772 123.384 123.735 123.384 123.698C123.384 123.661 123.421 123.623 123.421 123.586C123.421 123.586 123.421 123.586 123.421 123.548C123.421 123.511 123.459 123.474 123.459 123.474C123.459 123.436 123.497 123.436 123.497 123.399C123.497 123.399 123.497 123.362 123.534 123.362L125.002 124.182L124.135 126.346Z" fill="#222AEF"/>
<path d="M136.741 93.752C133.204 95.7285 131.586 93.6402 131.586 93.6402C131.586 93.6402 130.607 94.3114 130.494 95.3929C130.419 95.9897 130.607 96.4371 130.833 96.7727C131.021 97.0709 131.247 97.2947 131.397 97.4812C131.736 97.9285 131.736 98.2645 131.736 98.2645C131.736 98.2645 131.698 97.4438 132.15 97.3695C132.601 97.2947 132.79 98.7866 132.451 99.0848C132.413 99.1222 132.413 99.1222 132.413 99.1595C132.413 99.1595 132.413 99.1595 132.375 99.1969L132.337 99.2343C132.337 99.2343 132.337 99.2343 132.3 99.2716C132.3 99.2716 132.3 99.309 132.262 99.309C132.262 99.309 132.262 99.3464 132.224 99.3464C132.224 99.3464 132.224 99.3838 132.186 99.3838C132.186 99.3838 132.186 99.4211 132.149 99.4211V99.4585C132.149 99.4585 132.149 99.4959 132.111 99.4959V99.5332V99.5706V99.608V99.6453C132.111 99.6453 132.111 99.6827 132.073 99.6827V99.7201C132.073 99.7575 132.073 99.7575 132.035 99.7948V99.8322C132.035 99.8696 131.997 99.8696 131.997 99.9069C131.997 99.9069 131.997 99.9069 131.997 99.9443C131.922 100.206 131.809 100.504 131.621 100.988C131.132 102.294 130.643 102.816 130.643 102.816C130.643 102.816 130.831 102.965 131.17 103.189C131.207 103.226 131.245 103.226 131.282 103.264C131.282 103.264 131.282 103.264 131.32 103.264C131.396 103.301 131.471 103.338 131.546 103.375C131.546 103.375 131.584 103.375 131.584 103.413C131.621 103.413 131.659 103.45 131.697 103.487C131.735 103.487 131.735 103.525 131.772 103.525C131.809 103.525 131.847 103.562 131.885 103.562C131.923 103.562 131.96 103.6 131.998 103.6C132.035 103.637 132.111 103.637 132.148 103.674C132.186 103.674 132.223 103.712 132.261 103.712C132.299 103.712 132.336 103.749 132.374 103.749C132.412 103.749 132.449 103.786 132.487 103.786C132.525 103.786 132.562 103.824 132.6 103.824C132.675 103.861 132.75 103.861 132.826 103.899C132.863 103.899 132.901 103.936 132.939 103.936C132.977 103.936 133.014 103.973 133.089 103.973C133.127 103.973 133.202 104.011 133.239 104.011C133.277 104.011 133.353 104.048 133.39 104.048C133.465 104.048 133.54 104.085 133.615 104.085C133.691 104.085 133.728 104.123 133.804 104.123C133.841 104.123 133.917 104.123 133.954 104.16C133.992 104.16 134.067 104.16 134.104 104.197C134.179 104.197 134.217 104.197 134.293 104.235C134.33 104.235 134.405 104.235 134.443 104.235C134.556 104.235 134.669 104.235 134.781 104.272C134.819 104.272 134.894 104.272 134.932 104.272C135.007 104.272 135.082 104.272 135.12 104.272C135.158 104.272 135.233 104.272 135.27 104.272C135.534 104.272 135.76 104.235 136.023 104.235C136.061 104.235 136.136 104.235 136.173 104.235C136.249 104.235 136.324 104.197 136.399 104.197C136.437 104.197 136.474 104.197 136.549 104.16C136.7 104.123 136.888 104.085 137.039 104.048C137.077 104.048 137.114 104.048 137.152 104.011C137.227 103.974 137.34 103.974 137.415 103.937C137.453 103.937 137.528 103.899 137.566 103.899C137.641 103.862 137.754 103.824 137.829 103.824C137.867 103.824 137.904 103.787 137.942 103.787C138.13 103.712 138.281 103.638 138.469 103.563C138.506 103.526 138.581 103.526 138.619 103.489C138.694 103.451 138.807 103.414 138.882 103.377C138.92 103.339 138.995 103.339 139.033 103.302C139.258 103.19 139.446 103.079 139.673 102.966C140.086 102.743 140.5 102.481 140.914 102.146C140.914 102.146 139.296 101.213 138.882 98.4166C138.469 95.6197 138.619 93.7176 136.7 93.3076C136.7 93.3076 136.7 93.3076 136.662 93.3076V93.7549H136.741V93.752Z" fill="black"/>
</svg>
