<svg width="224" height="222" viewBox="0 0 224 222" fill="none" xmlns="http://www.w3.org/2000/svg">
<path d="M94.2142 178.976L219.632 106.882V117.782L94.2142 189.333L4.36786 137.929V127.561L94.2142 178.976Z" fill="#222AEF"/>
<path d="M60.6142 96.6702C60.6142 96.6813 60.6142 96.6924 60.6142 96.7035C60.6254 96.6924 60.6254 96.6813 60.6142 96.6702ZM60.6255 96.8367C60.6255 96.8589 60.6255 96.87 60.6255 96.8922C60.6367 96.87 60.6255 96.8478 60.6255 96.8367ZM60.603 96.4704C60.603 96.4815 60.603 96.4926 60.603 96.5037C60.603 96.4926 60.603 96.4815 60.603 96.4704ZM59.9422 95.6934C59.931 96.1263 59.9311 96.6147 59.9535 97.1586C59.9535 97.1586 59.8078 98.4018 59.3038 98.9568C58.7999 99.5118 56.9855 102.364 56.9855 102.364C56.9855 102.364 57.0079 102.475 57.0975 102.631L56.851 103.042C56.683 103.286 56.5598 103.452 56.5598 103.452C56.5598 103.452 55.1823 103.807 54.9583 103.741C54.7343 103.674 54.8463 104.329 55.9102 104.14C55.9102 104.14 54.6559 105.461 54.2639 105.617C54.1967 105.639 54.1519 105.672 54.1295 105.694L53.0319 105.073L51.6767 104.296L51.1839 104.018L46.2335 106.849L47.9919 107.859L46.211 109.579C46.323 106.771 45.8639 105.084 45.3375 104.085L59.9422 95.6934ZM60.5807 96.1041C60.5807 96.1041 60.5807 96.1152 60.5807 96.1041C60.5807 96.1152 60.5807 96.1041 60.5807 96.1041ZM60.5919 96.2706C60.5919 96.2817 60.5919 96.3039 60.5919 96.315C60.5919 96.3039 60.5919 96.2928 60.5919 96.2706ZM4.36786 127.561L94.2142 178.977L219.632 106.882L204.758 98.3352L159.645 124.909L153.059 116.117L137.67 124.909L127.254 118.937L125.697 123.41L125.709 123.421L125.686 145.155L106.725 156L87.763 145.144L87.7518 123.421L80.1582 110.401L96.2975 101.199L93.699 99.7116V76.335L64.8815 92.8629C65.1727 93.1626 65.6767 93.6066 66.371 93.8619C67.491 94.2837 67.8159 95.4714 67.8159 95.4714L69.7422 101.277L69.5742 106.46C69.5742 106.46 69.4734 106.549 69.2831 106.616L69.2047 107.071C69.1375 107.126 69.0479 107.16 68.9583 107.171C68.9471 107.981 68.8687 109.457 68.4431 109.779C68.4431 109.779 68.3311 109.813 68.3759 109.491C68.3759 109.491 68.0623 110.279 68.0175 109.679C68.0175 109.679 67.5583 110.234 67.6255 109.679C67.6255 109.679 67.1214 110.323 66.9982 109.946C66.875 109.568 67.4799 109.213 67.5247 108.492C67.5247 108.492 66.7071 108.802 66.6735 108.303C66.6735 108.303 67.6031 107.737 67.6815 107.548C67.7375 107.404 67.8943 107.415 67.9839 107.038C67.9391 107.015 67.9055 107.004 67.9055 107.004V106.516C67.8607 106.494 67.827 106.471 67.7822 106.449L67.4239 103.23L67.435 101.166C67.435 101.166 67.0431 99.5562 66.3375 98.4573C66.3039 98.424 66.2814 98.3907 66.2478 98.3685C66.1582 98.535 65.6207 99.645 65.5535 101.188C65.4863 102.875 66.147 104.085 66.147 104.085C66.147 104.085 66.0798 104.118 65.9678 104.174C65.979 104.462 66.0014 104.929 66.035 105.495C66.1246 106.971 66.2814 109.113 66.5278 110.545C66.5502 110.689 66.5726 110.823 66.6062 110.945C66.6062 110.945 66.6062 110.945 66.6062 110.956C66.6174 111.022 66.6286 111.078 66.651 111.133C66.6622 111.189 66.6734 111.244 66.6958 111.3V111.311C66.707 111.367 66.7183 111.411 66.7407 111.455C66.7407 111.466 66.7406 111.466 66.7518 111.478C66.763 111.522 66.7743 111.555 66.7855 111.6V111.611C66.7967 111.655 66.8078 111.688 66.8302 111.722C66.8302 111.733 66.8415 111.733 66.8415 111.744C66.8527 111.777 66.875 111.811 66.8862 111.833C66.8862 111.833 65.9902 112.499 64.7359 112.654C64.6463 113.065 64.6015 113.309 64.6015 113.309C64.6015 113.309 64.5902 113.376 64.5902 113.487C64.7134 113.82 64.9711 114.241 65.4751 114.608C66.4606 115.329 67.3454 115.94 67.939 117.372C68.5327 118.815 70.0558 119.847 70.4927 119.991C70.5823 120.025 70.6943 120.069 70.8175 120.124C71.5679 120.058 72.1279 121.279 72.1167 121.69C72.1055 122.1 71.7135 122.489 71.2095 123.144C70.7055 123.799 70.851 125.597 69.3951 125.963C67.939 126.329 67.7934 125.952 67.491 125.186C67.3118 124.731 67.715 124.431 68.0511 123.998C68.0735 123.965 68.1071 123.932 68.1295 123.887L68.1407 123.876C68.1631 123.843 68.1967 123.799 68.2191 123.765C68.2191 123.765 68.219 123.754 68.2302 123.754C68.2526 123.721 68.2751 123.676 68.2975 123.643L68.3087 123.632C68.3311 123.588 68.3423 123.554 68.3647 123.51C68.3647 123.51 68.3647 123.499 68.3759 123.499C68.3983 123.454 68.4095 123.399 68.4319 123.343V123.332C68.4431 123.277 68.4543 123.232 68.4655 123.177C68.4767 123.133 68.4767 123.088 68.4767 123.044C68.4767 123.033 68.4767 123.022 68.4767 123.01C68.4767 122.955 68.4767 122.899 68.4767 122.844C68.4655 122.689 68.4655 122.544 68.4655 122.422C68.4655 122.367 68.4655 122.311 68.4767 122.267C68.4767 122.267 68.4767 122.267 68.4767 122.256C68.4767 122.222 68.4879 122.189 68.4879 122.156C68.4879 122.134 68.4879 122.111 68.4991 122.1C68.4991 122.089 68.4991 122.067 68.4991 122.056C68.4991 122.034 68.499 122.023 68.5102 122C68.5102 121.989 68.5103 121.967 68.5215 121.956C68.5327 121.9 68.5439 121.845 68.5551 121.789C68.5663 121.734 68.5775 121.69 68.5999 121.645C68.6111 121.601 68.6223 121.567 68.6447 121.534C68.6559 121.501 68.6783 121.456 68.6895 121.434C68.7007 121.412 68.7119 121.39 68.7231 121.379C68.7455 121.345 68.7567 121.323 68.7791 121.301C68.8015 121.268 68.8127 121.257 68.8127 121.257C68.8239 121.257 68.8351 121.257 68.8463 121.257C68.8351 121.201 68.8239 121.146 68.8127 121.101C68.6671 120.668 66.0126 118.593 65.0831 117.538C65.1615 118.471 65.1503 119.481 65.0495 119.758C64.8815 120.224 64.0527 123.421 64.1535 124.021C64.1535 124.021 63.9742 124.964 64.075 125.23C64.0862 125.264 64.1087 125.308 64.1199 125.353C64.2991 125.408 65.0383 125.741 64.5455 127.595C64.5455 127.595 64.4447 127.75 63.6607 128.017C62.8766 128.294 61.7903 129.582 61.3871 129.537C60.9839 129.493 59.7295 129.637 59.3486 128.849C58.9678 128.061 59.8638 127.972 60.4239 127.428C60.4351 127.417 60.4463 127.406 60.4687 127.384C60.5807 127.273 60.7038 127.129 60.8382 126.984C60.8606 126.951 60.8831 126.929 60.9167 126.895C60.9391 126.873 60.9615 126.84 60.9839 126.818C61.0063 126.784 61.0398 126.751 61.0622 126.718C61.0958 126.673 61.1406 126.629 61.1742 126.585C61.275 126.463 61.3759 126.34 61.4767 126.218C61.7231 125.919 61.9583 125.663 62.1263 125.552C62.1375 125.541 62.1487 125.53 62.1711 125.53C62.1823 125.519 62.1935 125.519 62.2047 125.508C62.2159 125.508 62.2271 125.497 62.2271 125.497C62.2383 125.497 62.2495 125.497 62.2607 125.497C62.2719 125.497 62.2831 125.497 62.2831 125.497C62.2831 125.486 62.2831 125.464 62.2831 125.452C62.2719 125.219 62.3503 121.001 62.3503 121.001L62.4622 115.84C62.4622 115.84 62.451 115.396 62.4398 114.808C62.2159 114.63 61.9023 114.286 61.5103 113.642C61.1518 113.054 60.8495 111.899 60.603 110.623C59.9534 110.456 59.3263 110.212 59.1695 109.89L59.2815 108.836L59.8302 103.641C59.7406 103.552 59.6398 103.474 59.5502 103.375C59.5502 103.375 59.7294 102.686 59.9422 101.754L58.5759 103.275L58.5871 103.286L58.5311 103.33L58.2847 103.608C58.2623 103.597 58.2511 103.585 58.2287 103.574L57.8142 103.918C57.803 103.907 57.7807 103.907 57.7695 103.896C57.6799 104.018 57.6351 104.107 57.6351 104.14C57.6351 104.473 56.4142 105.794 56.4142 105.794C56.4142 105.794 55.7199 106.782 55.5295 106.727C55.3391 106.671 55.6526 106.161 55.6526 106.161C55.6526 106.161 55.3167 106.505 55.0815 106.56C54.8463 106.616 55.3727 105.905 55.3727 105.905C55.3727 105.905 54.7679 106.249 54.5551 106.261C54.3423 106.272 54.8015 105.739 54.8015 105.739C54.6447 105.783 54.5103 105.805 54.3983 105.817L54.5215 105.883L50.1535 108.381C49.4927 109.535 47.5215 112.776 46.1215 113.265C45.4607 113.498 44.9342 113.365 44.5311 113.109C44.5535 115.496 44.5647 117.394 44.5647 117.571C44.5647 117.583 44.5647 117.583 44.5647 117.583L44.1055 127.384L43.6239 137.452C43.7023 137.518 43.7471 137.574 43.7471 137.574C43.7471 137.574 47.1519 137.607 46.1999 138.728C45.2478 139.849 42.0446 139.527 41.8318 139.438C41.6526 139.361 41.7759 138.14 41.8207 137.707C41.7535 136.874 40.3759 120.025 40.1071 119.714C40.1071 119.714 40.0959 119.703 40.0959 119.714C39.8383 119.869 39.4462 132.257 39.3342 134.621C39.883 134.61 40.8911 134.621 40.7903 134.932C40.6447 135.343 39.5695 137.185 38.7295 137.329C37.8895 137.474 37.3855 137.274 37.3519 137.119C37.3295 137.03 37.4415 136.12 37.5199 135.431L36.6351 119.248C36.2207 118.97 35.7167 118.515 35.6495 118.16C35.5599 117.66 35.851 116.783 36.0302 116.306L35.7727 116.217C35.7727 116.217 35.9743 112.699 36.1871 109.346L4.36786 127.561ZM115.673 112.288L122.797 116.373L118.104 119.059L106.713 112.554L101.965 104.429L115.673 112.288ZM59.9087 101.754C59.9311 101.665 59.9535 101.587 59.9647 101.499C59.9535 101.576 59.9311 101.665 59.9087 101.754ZM60.6367 97.0476C60.6367 97.0254 60.6367 97.0143 60.6367 96.9921C60.6367 97.0143 60.6367 97.0254 60.6367 97.0476ZM59.9982 101.354C59.987 101.388 59.987 101.41 59.9758 101.443C59.987 101.421 59.9982 101.388 59.9982 101.354Z" fill="white"/>
<path d="M127.803 107.259L131.006 109.135V107.892L127.434 96.4143L131.006 98.4234L124.779 94.8492L127.803 107.259ZM121.744 103.718V95.7594L124.701 105.45L121.744 103.718ZM79.0385 74.5917L115.786 61.9488L159.656 120.734L210.93 91.3638L181.642 52.2696V62.9367L173.757 67.4544L165.872 58.4301L173.757 53.9124L180.141 50.2605L166.97 32.667L137.659 41.0475L79.0385 74.5917ZM139.216 74.2587L147.101 69.741L154.986 65.2233V67.6098V78.7653L147.101 83.283L139.216 74.2587ZM125.686 123.398H125.698L117.578 128.038L125.686 123.398ZM106.714 112.554L118.104 119.058L110.51 123.398L106.725 134.243L87.7521 123.398L106.714 112.554Z" fill="#222AEF"/>
<path d="M66.864 111.854C66.7296 111.599 66.6176 111.133 66.5168 110.556C65.0608 111.954 62.9664 111.599 62.2272 111.399L62.2048 112.143C64.5904 113.553 66.864 111.854 66.864 111.854ZM62.3504 109.801L62.2384 110.933C62.2384 110.933 59.5056 110.611 59.136 109.89L59.248 108.835C59.2592 108.824 60.5696 109.978 62.3504 109.801ZM57.0864 102.663C57.2544 102.919 57.568 103.252 58.1728 103.529L58.4416 103.218L58.5648 103.285L57.7808 103.929C57.3104 103.729 56.8512 103.041 56.8512 103.041L57.0864 102.663ZM67.8944 106.537V107.026C67.8944 107.026 68.7792 107.381 69.1824 107.081L69.2608 106.626C68.9696 106.748 68.4768 106.837 67.8944 106.537ZM63.2688 92.6956L64.0864 93.7612L64.5904 92.5291L64.4672 91.8409C64.456 91.852 64.2992 92.3848 63.2688 92.6956ZM61.8128 93.0397L62.608 92.7178L62.4624 91.852L62.1488 92.0962L61.8128 93.0397ZM63.6496 93.8056C62.8432 93.7723 62.3728 93.4948 62.1488 93.3172C62.16 93.6058 62.2272 93.8722 62.3952 94.0054C62.664 94.2274 63.1792 94.1164 63.6496 93.8056ZM69.496 123.576C69.5296 123.52 69.552 123.454 69.5856 123.398C69.328 123.221 68.9248 123.065 68.432 123.165C68.4096 123.287 68.376 123.409 68.3424 123.509C68.6112 123.432 69.0816 123.354 69.496 123.576ZM68.6896 121.878C68.6112 121.911 68.544 121.933 68.4768 121.955C68.4656 122.044 68.4544 122.144 68.4432 122.255C68.4992 122.255 68.544 122.255 68.544 122.255C68.544 122.255 69.2608 121.922 69.888 122.211C69.8992 122.133 69.9104 122.055 69.9104 121.989C69.6304 121.811 69.1936 121.7 68.6896 121.878ZM61.824 127.261C61.6336 127.072 61.32 126.773 61.04 126.717C60.9392 126.828 60.8496 126.939 60.76 127.05C60.9616 127.017 61.3088 127.028 61.5216 127.461C61.6672 127.383 61.7792 127.317 61.7792 127.317L61.824 127.261ZM61.6896 125.962L61.5888 126.062C61.5328 126.118 61.4768 126.184 61.432 126.251C61.6448 126.251 61.936 126.329 62.1152 126.75C62.1376 126.806 62.16 126.85 62.1824 126.895L62.4736 126.584C62.3392 126.429 62.0032 126.084 61.6896 125.962ZM51.6656 104.295L51.2288 104.584L52.7632 105.461L53.1888 105.183L51.6656 104.295ZM101.013 78.7873L115.674 87.1678V112.287L101.069 103.918L101.013 78.7873ZM121.744 95.7592L124.701 105.45L127.803 107.259L124.779 94.849L121.755 93.1174V95.7592H121.744ZM127.434 96.403L131.006 107.88V98.4121L127.434 96.403ZM147.101 69.7408V72.1273L154.986 67.6096V65.2231L147.101 69.7408ZM173.757 53.9122V56.2987L181.642 51.781V49.3945L173.757 53.9122Z" fill="white"/>
<path d="M67.5026 108.513C67.4578 109.246 66.8642 109.601 66.9762 109.967C67.0994 110.345 67.6034 109.701 67.6034 109.701C67.525 110.256 67.9954 109.701 67.9954 109.701C68.0402 110.3 68.3538 109.512 68.3538 109.512C68.309 109.834 68.421 109.801 68.421 109.801C68.8466 109.468 68.925 108.003 68.9362 107.192C68.589 107.259 68.141 107.126 67.973 107.059C67.8834 107.437 67.7266 107.437 67.6706 107.57C67.5922 107.759 66.6626 108.325 66.6626 108.325C66.6962 108.824 67.5026 108.513 67.5026 108.513ZM62.2498 110.933L62.2386 111.399L62.2162 112.143C63.101 112.665 63.9746 112.765 64.7138 112.665C64.6242 113.075 64.5794 113.32 64.5794 113.32C64.5794 113.32 64.5682 113.386 64.5682 113.497C64.6914 113.83 64.949 114.252 65.453 114.618C66.4386 115.34 67.3234 115.95 67.917 117.382C68.5106 118.825 70.0338 119.858 70.4706 120.002C70.5602 120.035 70.6722 120.08 70.7954 120.135C70.7842 120.135 70.773 120.135 70.773 120.135C70.773 120.135 70.5826 120.657 69.9666 120.99C69.8994 121.023 69.821 121.067 69.7314 121.09H69.7202C69.6866 121.101 69.6418 121.112 69.6082 121.123C69.597 121.123 69.597 121.123 69.5858 121.134C69.5522 121.145 69.5074 121.156 69.4626 121.167H69.4514C69.4066 121.178 69.3618 121.19 69.3058 121.201C69.2946 121.201 69.2946 121.201 69.2834 121.201C69.2386 121.212 69.205 121.212 69.1602 121.212C69.149 121.212 69.1266 121.212 69.1154 121.212C69.0818 121.212 69.037 121.223 69.0034 121.223C68.9922 121.223 68.9698 121.223 68.9586 121.223C68.9138 121.223 68.869 121.223 68.8242 121.223C68.813 121.167 68.8018 121.112 68.7906 121.067C68.645 120.635 65.9906 118.559 65.061 117.504C65.1394 118.437 65.1282 119.447 65.0274 119.724C64.8594 120.191 64.0306 123.387 64.1314 123.987C64.1314 123.987 63.9522 124.93 64.053 125.197C64.0642 125.23 64.0866 125.274 64.0978 125.319C64.0754 125.308 64.0642 125.308 64.0642 125.308C64.0642 125.641 63.5154 125.874 63.1346 125.896C63.1234 125.896 63.1234 125.896 63.1122 125.896C62.8098 125.896 62.6306 125.618 62.4178 125.507C62.4066 125.496 62.3954 125.496 62.373 125.485H62.3618C62.3506 125.485 62.3394 125.474 62.317 125.474H62.3058C62.2946 125.474 62.2834 125.474 62.2722 125.474C62.2722 125.463 62.2722 125.441 62.2722 125.43C62.261 125.197 62.3394 120.979 62.3394 120.979L62.4514 115.817C62.4514 115.817 62.4402 115.373 62.429 114.785C62.205 114.607 61.8914 114.263 61.4994 113.619C61.141 113.031 60.8386 111.877 60.5922 110.6C61.3986 110.833 62.2498 110.933 62.2498 110.933ZM54.253 105.616C54.645 105.45 55.8994 104.14 55.8994 104.14C54.8466 104.329 54.7234 103.685 54.9474 103.74C55.1714 103.807 56.549 103.452 56.549 103.452C56.549 103.452 56.6722 103.285 56.8402 103.041C56.8626 103.074 57.277 103.685 57.725 103.896C57.6354 104.018 57.5906 104.107 57.5906 104.14C57.5906 104.473 56.3698 105.794 56.3698 105.794C56.3698 105.794 55.6754 106.782 55.485 106.726C55.2946 106.671 55.6082 106.16 55.6082 106.16C55.6082 106.16 55.2722 106.504 55.037 106.56C54.8018 106.615 55.3282 105.905 55.3282 105.905C55.3282 105.905 54.7234 106.249 54.5106 106.26C54.2978 106.271 54.757 105.738 54.757 105.738C54.1746 105.927 53.861 105.783 54.253 105.616ZM61.0066 87.7119C61.0066 87.7119 61.421 89.1216 63.997 88.1559C63.997 88.1559 64.4338 89.1993 64.1874 90.1428C64.1874 90.1428 64.6914 89.7987 64.6242 89.4879C64.6242 89.4879 64.8706 89.7099 65.1842 89.4879C65.2402 89.4435 65.2962 89.3658 65.341 89.2548C65.4866 89.2548 65.6098 89.3325 65.6322 89.6433C65.677 90.387 64.7474 90.3981 64.7474 90.3981C64.7474 90.3981 64.6802 90.5091 64.5458 90.6645C64.5234 90.942 64.4786 91.4082 64.4562 91.8744V91.8411C64.4562 91.8411 64.389 92.052 64.0866 92.2851C63.9074 92.4294 63.6386 92.5737 63.2578 92.6958C63.2578 92.6958 63.2578 92.7069 63.2578 92.7291C63.2578 92.7513 63.2578 92.7846 63.2578 92.8179C63.2578 92.829 63.2578 92.829 63.2578 92.8401C63.2578 92.8512 63.2578 92.8623 63.2578 92.8623C63.2578 93.0732 63.2466 93.4284 63.2466 93.7503C63.2466 93.7503 63.2466 93.7503 63.2466 93.7614C63.1794 93.7503 63.1122 93.7392 63.045 93.717H63.0338C62.8434 93.6726 62.6754 93.6171 62.541 93.5505L62.597 92.7069L62.3618 92.8068L62.4962 92.7513L62.597 92.7069L62.5634 92.4738L62.5522 92.4294C62.6866 92.496 62.8098 92.5626 62.8994 92.6181C62.9218 92.4516 62.9666 92.274 63.0114 92.0964C62.6978 92.2851 62.3506 92.4183 62.0034 92.4405C60.7378 92.5182 60.4354 91.0863 60.4914 89.5545C60.5698 89.055 60.7714 87.8562 61.0066 87.7119ZM35.9858 116.317L36.4674 116.494C36.4786 116.972 36.4898 117.249 36.4898 117.249L36.6018 119.269C36.1874 118.992 35.6834 118.537 35.6162 118.181C35.5042 117.671 35.8066 116.794 35.9858 116.317ZM41.0034 98.6121C41.0034 98.6121 40.1858 97.1469 41.0818 97.602C41.9778 98.0571 41.821 98.5233 41.821 98.5233L41.8322 98.9562H42.1234C42.1234 98.9562 41.7426 97.7352 42.2914 97.5132C42.8402 97.3023 43.893 97.047 43.8482 96.6585C43.8482 96.6585 44.1282 97.5354 44.3186 98.4567C44.1506 98.4789 43.9714 98.5566 43.9378 98.7897C43.8594 99.2559 44.0498 99.4446 44.1842 99.267C44.2738 99.156 44.3634 99.3003 44.4754 99.3225C44.5426 99.8553 44.5314 100.31 44.3634 100.488C44.1282 100.754 43.2658 100.777 42.3698 100.677C42.3922 100.788 42.4146 100.899 42.4482 101.01L40.4658 100.688V100.233C40.2082 100.122 40.0402 100.011 39.9842 99.8997C39.8946 99.711 39.7042 99.4002 39.4914 99.0228C40.0962 99.0339 40.8018 99.3669 41.0034 98.6121Z" fill="#FFD2BB" stroke="#FFD2BB" stroke-miterlimit="10"/>
<path d="M148.49 71.3397L147.101 72.1389V74.259V83.2833L154.986 78.7656L148.49 71.3397ZM125.675 145.144L106.714 155.988V134.255L125.709 123.41L125.675 145.144ZM101.013 78.7878L115.674 87.1683V112.288L122.797 116.372L129.483 112.543L127.254 118.925L137.67 124.897V95.5599L115.17 65.5011L93.6432 72.6273L93.688 99.7002L96.2864 101.188L99.12 99.567L101.058 102.886L101.013 78.7878ZM119.403 91.7748L121.744 90.4428L133.224 97.1472V110.423L131.006 111.699L119.426 105.062L119.403 91.7748ZM181.653 62.937L173.768 67.4547V58.4304V56.2992L175.157 55.5L181.653 62.937Z" fill="#4C89D0"/>
<path d="M121.744 90.4426L133.224 97.147V110.423L131.006 111.699L119.426 105.061L119.403 91.7745L121.744 90.4426ZM131.006 109.124V98.4123L121.744 93.1065V103.707L131.006 109.124ZM137.771 91.3972L150.45 108.38L137.771 91.3972ZM153.059 116.106L137.67 124.897V95.5597L153.059 116.106ZM147.101 83.283L139.216 74.2588L147.101 69.741V83.283ZM154.997 67.621V78.7765L148.501 71.3395L154.997 67.621ZM87.7409 123.398L106.714 134.243V155.977L87.7521 145.121L87.7409 123.398ZM87.7409 123.398L80.1473 110.378L99.1201 99.5667L106.714 112.565L87.7409 123.398ZM106.714 134.265L110.51 123.41L129.483 112.554L125.686 123.41L106.714 134.265ZM115.786 61.9488L159.656 120.734L210.93 91.3638V94.6828L159.634 124.886L115.158 65.4787L79.0273 77.4333V74.5918L115.786 61.9488ZM173.757 67.4545L165.872 58.4302L173.757 53.9125V67.4545ZM181.653 51.7812V62.9368L175.157 55.4998L181.653 51.7812Z" fill="#FF4C2E"/>
<path d="M59.7969 103.629L59.1473 109.879C59.5057 110.6 62.2497 110.922 62.2497 110.922L62.2161 112.132C64.5905 113.542 66.8641 111.832 66.8641 111.832C66.2929 110.7 66.0129 105.516 65.9569 104.173C65.1841 104.551 62.1601 105.738 59.7969 103.629ZM63.2577 94.0168C63.2577 93.5395 63.2689 92.707 63.2689 92.707L63.9409 93.5839C63.7281 93.7726 63.4817 93.9169 63.2577 94.0168ZM62.1489 93.3175V92.9068L62.2721 92.8513L62.6081 92.7181L62.5521 93.5617C62.3729 93.4729 62.2385 93.3841 62.1489 93.3175ZM68.6897 121.878C68.6113 121.911 68.5441 121.933 68.4769 121.956C68.5665 121.423 68.7569 121.256 68.7569 121.256C69.2721 121.267 69.6529 121.156 69.9553 121.001C69.9665 121.245 69.9553 121.6 69.9217 121.989C69.6305 121.811 69.1937 121.7 68.6897 121.878ZM68.4657 122.089C68.4657 122.055 68.4769 122.022 68.4769 122C68.4657 122.022 68.4657 122.055 68.4657 122.089ZM68.4433 122.255C68.4993 122.255 68.5441 122.255 68.5441 122.255C68.5441 122.255 69.2609 121.922 69.8881 122.211C69.8321 122.61 69.7425 123.021 69.5745 123.399C69.3169 123.221 68.9137 123.066 68.4209 123.165V123.177C68.4321 123.077 68.4433 122.966 68.4321 122.844C68.4321 122.61 68.4321 122.422 68.4433 122.255ZM68.4433 122.244C68.4433 122.211 68.4545 122.178 68.4545 122.144C68.4545 122.178 68.4433 122.211 68.4433 122.244ZM69.8993 122.2C69.9105 122.122 69.9217 122.055 69.9217 121.978C69.9105 122.055 69.9105 122.133 69.8993 122.2ZM68.3985 123.343V123.332V123.343ZM68.3425 123.51C68.6113 123.432 69.0817 123.354 69.5073 123.576C69.4401 123.709 69.3617 123.843 69.2721 123.954C68.7793 124.575 68.3425 124.342 68.0513 124.009C68.1521 123.865 68.2641 123.698 68.3425 123.51ZM69.5857 123.399C69.5633 123.443 69.5521 123.476 69.5297 123.521C69.5409 123.476 69.5633 123.443 69.5857 123.399ZM61.7793 127.317C61.7681 127.317 61.7681 127.317 61.7793 127.317C61.7681 127.317 61.7793 127.317 61.7793 127.317ZM61.7569 127.328L61.7457 127.339C61.7457 127.339 61.7457 127.328 61.7569 127.328ZM61.6897 127.372C61.7009 127.372 61.7009 127.361 61.7121 127.361C61.7009 127.361 61.6897 127.361 61.6897 127.372ZM61.4321 126.24C61.4881 126.174 61.5441 126.118 61.5889 126.051C61.5441 126.118 61.4881 126.185 61.4321 126.24ZM61.0401 126.717L61.0289 126.729C61.1633 126.573 61.2977 126.407 61.4321 126.251C61.6449 126.251 61.9361 126.329 62.1153 126.751C62.1377 126.806 62.1601 126.851 62.1825 126.895L62.4737 126.584C62.3393 126.429 62.0033 126.085 61.7009 125.963L62.1041 125.563C62.1601 125.519 62.2049 125.496 62.2385 125.496C62.5297 125.485 62.7313 125.929 63.1009 125.918L61.7905 127.306L61.8353 127.261C61.6449 127.073 61.3201 126.773 61.0401 126.717ZM60.8833 126.906C60.9057 126.884 60.9281 126.851 60.9505 126.828C60.9281 126.851 60.9057 126.884 60.8833 126.906ZM61.6449 127.383C61.6337 127.383 61.6337 127.395 61.6225 127.395C61.6337 127.395 61.6449 127.395 61.6449 127.383ZM60.4353 127.395C60.5473 127.284 60.6705 127.139 60.8049 126.995C60.7937 127.017 60.7713 127.028 60.7601 127.05C60.9617 127.017 61.3089 127.028 61.5217 127.461C61.2305 127.617 60.7601 127.839 60.5697 127.75C60.4353 127.683 60.4241 127.528 60.4353 127.395ZM61.5441 127.439C61.5553 127.439 61.5553 127.428 61.5665 127.428C61.5665 127.439 61.5553 127.439 61.5441 127.439ZM36.4785 117.249L36.5121 117.782C38.5617 118.126 41.7537 118.437 44.5089 117.804L44.5201 117.593C44.5201 117.593 44.5201 117.571 44.5201 117.538C44.5201 117.571 44.5201 117.593 44.5201 117.593L43.5793 137.507C43.5793 137.507 42.8625 138.417 41.7873 137.74C41.7873 137.74 40.3537 120.035 40.0737 119.724C39.7937 119.414 39.3121 135.131 39.2785 135.02C39.2337 134.898 38.1585 136.319 37.4865 135.453L36.4785 117.249C36.4785 117.249 36.4785 117.238 36.4785 117.249C36.4785 117.238 36.4785 117.249 36.4785 117.249ZM51.1729 104.007L51.6657 104.284L51.2289 104.573L52.7633 105.45L53.1889 105.172L53.0097 105.072L54.4657 105.905L49.5153 108.735L46.2113 106.848L51.1729 104.007Z" fill="#FBC02D"/>
<path d="M61.5778 126.074C61.533 126.118 61.4882 126.174 61.4546 126.218C61.4882 126.174 61.533 126.129 61.5778 126.074ZM61.6002 126.063C61.6002 126.063 61.589 126.074 61.589 126.085C61.589 126.074 61.589 126.063 61.6002 126.063ZM44.4866 99.3229C44.4306 99.3118 44.3746 99.2674 44.3298 99.2452C44.3186 99.2452 44.3074 99.2341 44.2962 99.2341H44.285C44.2738 99.2341 44.2738 99.2341 44.2626 99.2341H44.2514C44.2402 99.2341 44.2402 99.2341 44.229 99.2452H44.2178C44.2066 99.2563 44.1954 99.2563 44.1842 99.2785C44.173 99.2896 44.1618 99.3007 44.1618 99.3118C44.1394 99.334 44.1058 99.3451 44.0834 99.3451C43.9826 99.3451 43.893 99.1564 43.949 98.8012C43.949 98.7679 43.9602 98.7457 43.9714 98.7235C43.9714 98.7124 43.9826 98.7124 43.9826 98.7013C43.9938 98.6902 43.9938 98.668 44.005 98.6569C44.0162 98.6458 44.0162 98.6347 44.0274 98.6347C44.0386 98.6236 44.0386 98.6125 44.0498 98.6125C44.061 98.6014 44.0722 98.5903 44.0834 98.5903C44.0946 98.5792 44.0946 98.5792 44.1058 98.5681C44.117 98.557 44.1282 98.557 44.1394 98.5459C44.1506 98.5459 44.1506 98.5348 44.1506 98.5348C44.1618 98.5237 44.1842 98.5237 44.1954 98.5126H44.2066C44.229 98.5015 44.2402 98.5015 44.2626 98.5015C44.285 98.5015 44.3074 98.4904 44.3298 98.4904C44.4978 98.4682 44.6658 98.5015 44.6658 98.5015C44.6658 98.5015 44.8562 98.8567 44.6658 99.2119C44.5986 99.3118 44.5426 99.334 44.4866 99.3229ZM43.8034 96.8365C43.7586 96.892 43.7026 96.9475 43.6242 96.9919C43.2882 97.2028 42.6722 97.3693 42.3026 97.5247C42.213 97.558 42.157 97.6135 42.1122 97.6912C42.101 97.7023 42.0898 97.7245 42.0898 97.7356C42.0786 97.7689 42.0562 97.8022 42.0562 97.8355C42.0226 97.9576 42.0114 98.113 42.0226 98.2573C42.0226 98.3017 42.0226 98.3461 42.0338 98.3794C42.0338 98.4238 42.045 98.4571 42.045 98.5015C42.0786 98.7568 42.1458 98.9566 42.1458 98.9566H41.8546L41.8434 98.5237C41.8434 98.5237 41.877 98.4016 41.8098 98.2351C41.765 98.1241 41.6754 97.9909 41.5074 97.8577C41.4066 97.78 41.2722 97.6912 41.1042 97.6024C40.9922 97.5469 40.9026 97.5247 40.8466 97.5136C40.4098 97.4914 41.0258 98.6125 41.0258 98.6125C40.9586 98.8678 40.8242 99.001 40.6562 99.0565C40.6226 99.0676 40.6002 99.0787 40.5666 99.0787C40.533 99.0898 40.4994 99.0898 40.477 99.0898C40.4546 99.0898 40.4434 99.0898 40.421 99.0898C40.3986 99.0898 40.3874 99.0898 40.365 99.0898C40.0962 99.0898 39.7938 99.0121 39.5138 99.0121C38.9202 99.001 38.9762 98.4682 38.7298 97.8688C38.4834 97.2694 38.5394 97.1695 38.8418 95.8375C39.1442 94.5055 41.1042 94.5166 41.1042 94.5166C41.1042 94.5166 42.4482 93.4066 43.613 94.3834C44.7778 95.3602 43.8706 96.6367 43.8706 96.6367C43.8594 96.7144 43.8482 96.781 43.8034 96.8365ZM65.341 89.2663C65.3298 89.2885 65.3186 89.3107 65.3074 89.3329C65.3074 89.3329 65.3074 89.344 65.2962 89.344C65.285 89.3662 65.2738 89.3884 65.2626 89.3995C65.2514 89.4217 65.2402 89.4328 65.229 89.4439L65.2178 89.455C65.2066 89.4661 65.1954 89.4772 65.1842 89.4883C65.1506 89.5105 65.1058 89.5327 65.0722 89.5549C65.0386 89.566 65.005 89.5771 64.9714 89.5882C64.9602 89.5882 64.9378 89.5882 64.9266 89.5882C64.7586 89.5993 64.6354 89.4883 64.6354 89.4883C64.6578 89.566 64.6354 89.6437 64.6018 89.7214C64.5794 89.7769 64.5346 89.8324 64.4898 89.8879C64.4338 89.9545 64.3666 90.01 64.3218 90.0544C64.2546 90.1099 64.2098 90.1432 64.2098 90.1432C64.4562 89.1997 64.0194 88.1563 64.0194 88.1563C61.4434 89.122 61.029 87.7123 61.029 87.7123C61.0178 87.7234 61.0066 87.7345 60.9954 87.7456L60.9842 87.7567C60.973 87.7678 60.9618 87.79 60.9506 87.8122C60.9506 87.8122 60.9506 87.8233 60.9394 87.8233C60.9282 87.8455 60.917 87.8677 60.9058 87.8899C60.9058 87.8899 60.9058 87.901 60.8946 87.901C60.8834 87.9232 60.8722 87.9565 60.861 87.9898C60.861 88.0009 60.861 88.0009 60.8498 88.012C60.8386 88.0453 60.8274 88.0675 60.8162 88.1008V88.1119C60.805 88.1452 60.7938 88.1785 60.7826 88.2229C60.7826 88.234 60.7826 88.2451 60.7714 88.2562C60.7602 88.2895 60.749 88.3339 60.7378 88.3672C60.7378 88.3783 60.7378 88.3783 60.7378 88.3894C60.7266 88.4227 60.7154 88.456 60.7154 88.5004C60.7154 88.5115 60.7154 88.5226 60.7042 88.5337C60.693 88.5781 60.6818 88.6114 60.6818 88.6558C60.6818 88.6669 60.6818 88.678 60.6706 88.6891C60.6594 88.7224 60.6594 88.7668 60.6482 88.8001C60.6482 88.8112 60.6482 88.8112 60.6482 88.8223C60.637 88.8667 60.6258 88.9111 60.6258 88.9444C60.6258 88.9555 60.6258 88.9666 60.6258 88.9777C60.6146 89.0221 60.6146 89.0665 60.6034 89.0998C60.5922 89.1442 60.5922 89.1775 60.581 89.2219C60.581 89.233 60.581 89.233 60.581 89.2441C60.5698 89.2774 60.5698 89.3218 60.5586 89.3551V89.3662C60.5474 89.3995 60.5474 89.4328 60.5474 89.4661C60.5474 89.4661 60.5474 89.4661 60.5474 89.4772C60.5138 89.6659 60.5026 89.788 60.5026 89.788C59.7074 88.6225 60.7042 87.2683 60.7042 87.2683C60.2898 87.0796 60.1778 86.5024 60.1778 86.5024C60.4242 86.7244 60.5698 86.5135 60.5698 86.5135C60.2674 86.0695 60.525 85.459 60.525 85.459C60.525 85.459 60.5922 85.7698 60.9282 86.1361C61.2642 86.5024 63.5266 86.2249 64.2658 86.4469C65.005 86.6689 64.9042 87.3793 64.9042 87.3793C65.5314 87.8233 65.5314 88.8001 65.341 89.2663ZM61.4434 126.229C61.3426 126.351 61.2418 126.473 61.141 126.596C61.2418 126.473 61.3538 126.351 61.4434 126.229ZM62.093 125.563L61.6002 126.063C61.7906 125.841 61.9698 125.652 62.093 125.563ZM36.4786 117.249C36.4786 117.249 36.4674 116.972 36.4562 116.495L35.9746 116.317L35.717 116.228C35.717 116.228 36.1986 108.003 36.4226 104.729C36.6466 101.454 37.8786 101.487 38.1026 101.321C39.5026 100.422 40.4658 101.165 40.4658 101.165V100.688L42.4482 101.01C42.5266 101.365 42.6162 101.676 42.6162 101.676C42.6162 101.676 43.6578 102.02 44.061 102.708L44.0834 102.686C44.1618 102.731 46.4354 103.718 46.2002 109.557L47.981 107.837L49.5266 108.725L50.109 108.392C49.4482 109.546 47.477 112.787 46.077 113.276C45.4162 113.509 44.8898 113.375 44.4866 113.12C44.5202 115.629 44.5202 117.605 44.5202 117.605L44.509 117.815C41.7426 118.437 38.5618 118.137 36.5122 117.793L36.4786 117.249ZM37.4754 135.464C38.1586 136.33 39.2338 134.909 39.2674 135.032C39.2674 135.043 39.2786 134.898 39.2898 134.643C39.8386 134.632 40.8466 134.643 40.7458 134.954C40.6002 135.365 39.525 137.207 38.685 137.351C37.845 137.496 37.341 137.296 37.3074 137.141C37.285 137.052 37.397 136.142 37.4754 135.453V135.464ZM41.7874 137.751C42.8626 138.428 43.5794 137.518 43.5794 137.518V137.474C43.6578 137.54 43.7026 137.596 43.7026 137.596C43.7026 137.596 47.1074 137.629 46.1554 138.75C45.2034 139.871 42.0002 139.549 41.7874 139.46C41.6082 139.383 41.7314 138.162 41.7762 137.729C41.7874 137.74 41.7874 137.751 41.7874 137.751ZM56.9074 102.275C56.9074 102.275 58.7218 99.4228 59.2258 98.8678C59.7298 98.3128 59.8754 97.0696 59.8754 97.0696C59.7858 94.0726 60.1442 92.8849 60.4018 92.4187C60.4242 92.2189 60.4578 92.0857 60.5026 92.0191C60.6482 91.8304 60.749 91.7416 60.8162 91.7083C61.0514 92.1856 61.4322 92.4742 62.0258 92.4409H62.037L61.8242 93.0514L62.0818 92.9515C62.0594 93.3511 62.1042 93.7507 62.3282 93.9283L62.3394 93.9394C62.3618 93.9616 62.3842 93.9949 62.4066 94.006C62.597 94.1725 62.9218 94.1614 63.269 94.0171C63.269 94.0171 63.269 94.0171 63.2802 94.0171C63.3362 93.9949 63.381 93.9727 63.437 93.9394L63.4482 93.9283C63.5042 93.895 63.549 93.8728 63.605 93.8395L63.6162 93.8284C63.6274 93.8173 63.6386 93.8173 63.6498 93.8062C63.7506 93.7396 63.8514 93.6619 63.941 93.5731L64.0866 93.7618L64.5794 92.5519C64.781 92.7961 65.3746 93.4399 66.2706 93.784C67.3906 94.2058 67.7154 95.3935 67.7154 95.3935L69.6418 101.199L69.4738 106.382C69.4738 106.382 68.7122 106.982 67.6818 106.382L67.3234 103.163L67.3346 101.099C67.3346 101.099 66.9202 99.3673 66.1586 98.2684C66.1586 98.2684 65.5202 99.4339 65.453 101.11C65.3858 102.797 66.0466 104.007 66.0466 104.007C66.0466 104.007 62.1826 106.105 59.4274 103.274C59.4274 103.274 59.6066 102.586 59.8194 101.654L58.1618 103.508C57.0306 102.997 56.9074 102.275 56.9074 102.275ZM69.261 123.954C69.933 123.11 69.9778 121.656 69.9554 121.001C70.5714 120.679 70.7618 120.146 70.7618 120.146C71.5234 120.047 72.1058 121.29 72.0946 121.7C72.0834 122.111 71.6914 122.5 71.1874 123.155C70.6834 123.809 70.829 125.608 69.373 125.974C67.917 126.34 67.7714 125.963 67.469 125.197C67.2898 124.742 67.693 124.442 68.029 124.009C68.3202 124.342 68.7682 124.575 69.261 123.954ZM68.4434 122.411C68.4434 122.544 68.4434 122.677 68.4546 122.833C68.4322 122.677 68.4322 122.544 68.4434 122.411ZM60.4018 127.439C60.413 127.428 60.4242 127.417 60.4466 127.395C60.4242 127.528 60.4466 127.672 60.5922 127.739C60.8834 127.861 61.8018 127.306 61.8018 127.306L63.1122 125.918C63.1234 125.918 63.1234 125.918 63.1346 125.918C63.5154 125.896 64.0642 125.663 64.0642 125.33C64.0642 125.33 64.0754 125.33 64.0978 125.341C64.277 125.397 65.0162 125.73 64.5234 127.583C64.5234 127.583 64.4226 127.739 63.6386 128.005C62.8546 128.283 61.7682 129.57 61.365 129.526C60.9618 129.482 59.7074 129.626 59.3266 128.838C58.9458 128.05 59.8306 127.972 60.4018 127.439Z" fill="#4A90E2"/>
</svg>
