<svg width="224" height="222" viewBox="0 0 224 222" fill="none" xmlns="http://www.w3.org/2000/svg">
<path d="M103.289 169.194C101.106 169.754 98.397 169.53 96.5912 168.486C94.2582 167.143 94.2582 165.018 96.5535 163.675C96.8171 163.526 97.0803 163.414 97.3438 163.302L97.4192 163.451L97.532 163.749L97.6824 164.048L97.8706 164.384L98.0588 164.682L98.2843 164.98L98.5101 165.279L98.7737 165.578L99.0373 165.876L99.3005 166.174L99.564 166.473L99.8653 166.734L100.166 166.995L100.467 167.256L100.768 167.517L101.107 167.778L101.446 168.039L101.822 168.263L102.161 168.486L102.537 168.71L102.913 168.933L103.289 169.194ZM110.4 163.489C110.363 163.376 110.288 163.302 110.25 163.227C108.82 161.064 105.697 159.312 103.138 159.312C100.467 159.312 99.3755 161.176 100.73 163.489C102.084 165.801 105.32 167.665 107.992 167.665C110.551 167.665 111.642 165.912 110.514 163.749C110.514 163.638 110.476 163.563 110.4 163.489ZM52.3781 47.249C52.2276 47.2116 52.0395 47.249 51.889 47.3238L34.9565 57.02C34.4674 57.2808 34.1665 57.8029 34.1665 58.325V76.5982C34.1665 76.6355 34.1665 76.6729 34.1665 76.7103C34.1665 76.7476 34.1665 76.7846 34.2042 76.822C34.2042 76.822 34.2042 76.822 34.2042 76.8594V76.8967C34.2042 76.9341 34.2042 76.9341 34.2419 76.9715C34.2419 76.9715 34.2419 76.9715 34.2419 77.0089L34.2796 77.0462C34.2796 77.0462 34.2796 77.0462 34.3173 77.0836C34.355 77.121 34.3927 77.121 34.4301 77.1583C34.6559 77.3074 34.9569 77.3074 35.2204 77.1583L52.153 67.4621C52.642 67.2009 52.9433 66.6792 52.9433 66.1571V47.8839C53.0553 47.5846 52.7167 47.2864 52.3781 47.249ZM60.7691 82.3036V75.2554C60.7691 75.1437 60.6941 75.0319 60.6187 74.9942C60.581 74.9568 60.5432 74.9568 60.5055 74.9568H60.4678C60.4301 74.9568 60.3924 74.9568 60.3174 74.9942L53.8076 78.7234C53.6194 78.8352 53.5067 79.022 53.5067 79.2455V86.2936C53.5067 86.331 53.5067 86.331 53.5067 86.3684C53.5067 86.3684 53.5067 86.3684 53.5067 86.4057C53.5067 86.4057 53.5067 86.4057 53.5067 86.4431C53.5067 86.4431 53.5444 86.4431 53.5444 86.4805C53.6198 86.5179 53.7325 86.5552 53.8456 86.4805L60.3555 82.7513C60.6564 82.7139 60.7691 82.5274 60.7691 82.3036ZM126.355 55.0431C126.355 55.0431 125 54.521 124.172 54.5584C123.344 54.5957 122.366 55.3043 122.366 55.3043L122.893 56.3114C122.893 56.3114 121.802 56.3114 121.538 56.5723C121.275 56.8335 119.581 60.8609 119.581 60.8609C120.748 59.2574 121.689 58.1389 121.689 58.1389L126.355 55.0431ZM124.963 64.7019L130.306 60.3762L129.779 58.4371L130.946 58.81C130.607 57.6538 131.774 56.1993 131.774 56.1993C131.097 56.1619 130.645 56.0876 130.645 56.0876C130.607 56.1249 130.532 56.1993 130.495 56.2367C130.457 56.2741 130.457 56.2741 130.42 56.3114C130.382 56.3488 130.307 56.3858 130.269 56.3858C130.232 56.3858 130.232 56.4232 130.194 56.4232C129.855 56.7961 129.479 57.2435 129.103 57.7282C129.065 57.8029 128.99 57.8773 128.952 57.9146C128.952 57.952 128.914 57.952 128.914 57.989C128.651 58.3246 128.388 58.6602 128.162 59.0331C127.785 59.5926 127.409 60.1517 127.07 60.7485C127.033 60.8232 126.957 60.9349 126.92 61.0467C126.882 61.1214 126.845 61.1588 126.845 61.2332L126.807 61.2705C126.242 62.2033 125.603 63.4339 124.963 64.7019ZM77.0621 39.4923C76.9867 39.455 76.874 39.4176 76.7612 39.455C76.7235 39.455 76.6858 39.4923 76.6481 39.4923L67.1281 44.9369C66.8645 45.086 66.7141 45.3842 66.7141 45.6828V55.9755C66.7141 56.0128 66.7141 56.0128 66.7141 56.0502V56.0876C66.7141 56.0876 66.7141 56.0876 66.7141 56.1249C66.7141 56.1249 66.7141 56.1249 66.7141 56.1623C66.7141 56.1623 66.7141 56.1623 66.7141 56.1997L66.7518 56.2371C66.8645 56.3118 67.0527 56.3488 67.2031 56.2371L76.7231 50.7925C76.9867 50.6434 77.1745 50.3822 77.1745 50.0466V39.7913C77.2876 39.6788 77.2126 39.5671 77.0621 39.4923ZM128.199 77.7167C128.161 79.059 128.011 80.4761 127.747 80.5509C127.221 80.7 124.812 82.1541 123.044 81.3712C122.291 81.0356 121.463 80.327 120.748 79.5437C120.147 80.1775 119.544 80.8117 118.942 81.4459C104.606 96.6237 95.7635 110.683 95.6881 110.795L102.725 114.822C103.251 113.927 103.778 113.069 104.305 112.211C104.493 111.876 104.719 111.578 104.907 111.242C105.245 110.72 105.584 110.198 105.885 109.676C106.111 109.303 106.375 108.93 106.6 108.557C106.902 108.11 107.202 107.662 107.503 107.178C107.767 106.768 108.03 106.394 108.294 105.984C108.557 105.574 108.858 105.164 109.121 104.716C109.385 104.306 109.686 103.933 109.949 103.523C110.213 103.113 110.514 102.74 110.777 102.329C111.078 101.919 111.342 101.546 111.642 101.136C111.906 100.763 112.169 100.39 112.433 100.017C112.734 99.6073 113.035 99.234 113.298 98.8241C113.561 98.4885 113.825 98.1155 114.088 97.7799C114.389 97.3696 114.69 96.9966 114.991 96.5867C115.255 96.2511 115.518 95.9155 115.744 95.6169C116.045 95.2066 116.384 94.8336 116.685 94.4236C116.911 94.125 117.174 93.8268 117.4 93.5286C117.738 93.1183 118.04 92.708 118.378 92.335C118.604 92.0738 118.83 91.8129 119.055 91.5517C119.394 91.1417 119.77 90.694 120.109 90.2837C120.259 90.0972 120.41 89.9481 120.56 89.7616C121.952 88.1207 123.345 86.5549 124.737 85.0256C124.85 84.8765 125.001 84.7648 125.113 84.6157C125.528 84.1684 125.904 83.758 126.318 83.3477C126.506 83.1612 126.656 82.9747 126.845 82.7883C127.221 82.3779 127.597 82.005 128.011 81.5946C128.199 81.4082 128.387 81.2217 128.575 81.0352C128.952 80.6622 129.328 80.2519 129.704 79.8789C129.893 79.6925 130.081 79.506 130.269 79.3195C130.382 79.2074 130.532 79.0583 130.645 78.9465C129.893 78.611 128.839 78.0515 127.484 77.3056C127.71 77.4558 127.973 77.5676 128.199 77.7167ZM57.7966 116.277L56.6303 118.253L63.6666 122.281L73.4501 105.462L76.6485 99.9429L69.6115 95.9151L57.7966 116.277ZM154.463 53.1039C154.726 53.5139 154.275 53.7377 154.839 54.3345C155.479 55.0057 155.629 56.0872 154.839 56.684C154.049 57.2805 150.775 58.4367 150.775 58.4367L149.684 55.8637C149.646 55.8637 149.609 55.9011 149.609 55.9011L150.738 58.4371C150.549 58.5862 150.361 58.6983 150.136 58.81C150.06 58.8474 149.985 58.9218 149.91 58.9591C147.502 60.3389 144.416 60.9731 141.632 61.2339C137.831 63.9934 134.181 66.9767 130.72 70.0347C130.682 70.5568 130.569 71.191 130.306 71.9365C129.516 74.3234 130.494 76.9711 131.209 78.3882C131.284 78.3138 131.322 78.2765 131.397 78.2017C131.586 78.0153 131.774 77.8288 131.962 77.6423C132.338 77.2693 132.715 76.8964 133.129 76.5608C133.317 76.4117 133.467 76.2252 133.655 76.0761C134.032 75.7031 134.445 75.3302 134.822 74.9946C134.972 74.8455 135.123 74.696 135.311 74.5472C135.725 74.1743 136.139 73.8013 136.553 73.4284C136.666 73.3166 136.816 73.2045 136.929 73.0928C137.38 72.7198 137.794 72.3095 138.246 71.9365C138.321 71.8622 138.396 71.8248 138.471 71.75C142.197 68.5429 145.884 65.6713 149.421 63.1357L149.459 63.0983C149.948 62.7254 150.475 62.3898 150.964 62.0542L151.002 62.0168C151.491 61.6812 152.018 61.3083 152.507 60.9727C169.327 49.5611 182.948 45.3098 186.41 44.3404C186.861 44.154 187.125 44.0419 187.125 44.0419C175.648 44.0792 164.623 47.622 154.463 53.1039ZM96.6662 42.9603V35.9496C96.6662 35.8005 96.5535 35.6514 96.3653 35.6514C96.3276 35.6514 96.2526 35.6514 96.2149 35.6887L89.7051 39.418C89.5169 39.5297 89.4042 39.7162 89.4042 39.94V46.9882C89.4042 47.0255 89.4042 47.0629 89.4042 47.0629C89.4042 47.0629 89.4042 47.0629 89.4042 47.1003C89.4042 47.1003 89.4041 47.1376 89.4419 47.1376L89.4796 47.175C89.5546 47.2124 89.6677 47.2124 89.7805 47.175L96.2903 43.4458C96.5535 43.3707 96.6662 43.1842 96.6662 42.9603Z" fill="#F4B922"/>
<path d="M120.711 70.1462C118.717 68.9156 116.835 71.1534 116.835 71.1534L114.991 70.221C114.615 66.4917 121.689 58.1012 121.689 58.1012L126.355 55.0432L125.49 55.6026L125.189 56.7959L126.092 56.5346L125.189 57.7283L116.647 66.6408L117.287 68.8039L120.56 67.4989L126.919 58.4742L127.634 56.8706L127.145 56.2368C127.145 56.2368 127.822 57.0571 128.01 57.4674C128.198 57.8777 128.086 58.9966 128.086 59.071C127.709 59.6304 127.333 60.1899 126.994 60.7867C126.956 60.8611 126.881 60.9732 126.844 61.0849C126.806 61.1597 126.769 61.1966 126.769 61.2714L126.731 61.3088C126.241 62.2038 125.602 63.4344 124.962 64.7024C123.683 67.2006 122.329 69.9231 121.764 71.042C121.388 70.7057 121.05 70.3701 120.711 70.1462ZM109.648 47.0996C109.686 47.0249 110.476 45.7573 111.078 45.5334C111.379 45.4587 111.831 45.4217 112.207 45.3843C111.906 44.9744 111.68 44.6758 111.68 44.6758C111.454 44.6758 111.266 44.6758 111.078 44.7132C110.514 44.8249 109.724 45.1979 109.159 46.3167C109.159 46.3167 109.272 46.4658 109.46 46.7641C109.497 46.8758 109.573 46.9879 109.648 47.0996ZM149.872 58.9585C149.948 58.9212 150.023 58.8468 150.098 58.8094C150.286 58.6973 150.512 58.5482 150.7 58.4364L149.571 55.9005L149.496 55.714C149.496 55.714 149.12 55.7887 148.48 55.9005C148.442 55.9005 148.442 55.9005 148.442 55.9005C148.442 55.8635 148.932 57.9144 149.872 58.9585ZM99.3379 79.9168L98.7735 81.5578L101.483 84.4293L102.612 83.4226L102.424 83.1987L99.6392 80.178L99.3379 79.9168ZM109.836 84.2798C110.137 85.5105 110.062 87.0393 110.062 87.0393C110.062 87.0393 110.062 87.151 110.062 87.3005L110.589 87.077C110.589 87.077 110.589 86.8158 110.627 86.4429C110.664 85.287 110.627 82.9748 110.025 82.4898C109.197 81.856 108.369 82.3407 108.369 82.3407L108.407 82.378C108.594 82.5271 109.535 83.1613 109.836 84.2798ZM56.6301 104.94C56.6301 104.753 56.6301 104.567 56.5924 104.38C56.5924 104.343 56.5924 104.269 56.5924 104.231C56.5924 104.12 56.5547 103.97 56.5547 103.858C56.5547 103.821 56.517 103.747 56.517 103.709C56.4793 103.597 56.4416 103.485 56.4042 103.374C56.4042 103.336 56.3665 103.299 56.3665 103.262C56.2534 102.963 56.1407 102.74 55.9902 102.516L55.9525 102.479C55.8771 102.404 55.802 102.292 55.7266 102.217L55.6889 102.18C55.6135 102.106 55.5385 102.031 55.4631 101.994L55.4254 101.956C55.3126 101.881 55.1999 101.844 55.0867 101.807C54.5223 101.621 53.845 101.695 53.1301 102.106C52.4906 102.479 51.8884 103.075 51.3616 103.784C50.7221 101.248 48.7651 100.241 46.4321 101.546C43.7606 103.075 41.5784 107.028 41.3148 110.72C40.2236 111.503 39.3205 113.032 38.9819 114.598C38.8314 114.636 38.7183 114.71 38.5679 114.785C37.5143 115.419 36.6489 117.06 36.6489 118.514C36.6489 119.26 36.8748 119.782 37.2134 120.043C37.552 120.304 38.0411 120.342 38.5679 120.043L41.6912 118.253L46.4321 115.531L53.1301 111.69C55.0498 110.645 56.6301 107.588 56.6301 104.94ZM71.0796 86.219C71.1923 86.2937 71.3051 86.3681 71.4182 86.4055C71.7195 86.5546 72.0204 86.592 72.359 86.5546C72.6599 86.5172 72.9608 86.4055 73.2998 86.219L78.342 83.3101L86.0559 78.9097L96.9303 72.6818C100.091 70.8918 102.65 65.9693 102.65 61.6432C102.65 61.4941 102.65 61.345 102.65 61.1959C102.65 61.1585 102.65 61.0842 102.65 61.0468C102.65 60.9351 102.65 60.8603 102.612 60.7486C102.612 60.6738 102.612 60.6368 102.612 60.5621C102.612 60.4874 102.574 60.413 102.574 60.3386C102.574 60.2643 102.574 60.2265 102.537 60.1521C102.537 60.0778 102.499 60.003 102.499 59.9657C102.461 59.8166 102.424 59.6674 102.424 59.5557C102.424 59.5183 102.424 59.5183 102.386 59.481C102.348 59.4062 102.348 59.2945 102.311 59.2197C102.311 59.1824 102.311 59.1824 102.273 59.145C102.235 59.0703 102.198 58.9585 102.198 58.8838V58.8464C101.859 57.9887 101.37 57.3546 100.768 56.9446C100.693 56.9072 100.655 56.8699 100.58 56.8325C100.58 56.8325 100.542 56.8325 100.542 56.7951C100.467 56.7578 100.429 56.7204 100.354 56.7204C100.316 56.683 100.278 56.683 100.241 56.683C99.3002 56.3101 98.1716 56.4218 96.9296 57.1304C95.876 57.7268 94.8975 58.6966 94.0698 59.8524C93.054 55.7129 89.8557 54.0719 86.0551 56.2353C81.7655 58.6966 78.2286 65.1479 77.7772 71.0775C76.0087 72.3825 74.5411 74.8441 73.9767 77.3797C73.7508 77.4171 73.5253 77.5288 73.2994 77.6779C71.5687 78.6477 70.1761 81.3702 70.1761 83.7193C70.1765 84.9514 70.5147 85.7717 71.0796 86.219ZM72.9231 150.884L69.5743 152.86C69.2734 153.047 68.784 153.047 68.4831 152.86L66.1124 151.443L65.9993 151.481C65.5102 151.63 64.9834 151.742 64.4567 151.854H64.3439V153.867C64.3439 154.128 64.0053 154.315 63.5913 154.315H58.8876C58.4736 154.315 58.135 154.091 58.135 153.867V151.854H58.0223C57.4955 151.742 56.9687 151.63 56.4419 151.481L56.3669 151.443L53.9962 152.86C53.6953 153.047 53.2063 153.047 52.905 152.86L49.5562 150.884C49.2553 150.697 49.2553 150.436 49.5562 150.25L51.9268 148.833L51.8891 148.795C51.6256 148.497 51.4378 148.198 51.2496 147.863L51.2119 147.825H47.8254C47.4114 147.825 47.0728 147.602 47.0728 147.378V144.581C47.0728 144.469 47.1478 144.357 47.2609 144.282C47.3363 144.245 47.3737 144.208 47.4491 144.208C47.4868 144.208 47.5618 144.17 47.5995 144.17C47.675 144.17 47.7127 144.17 47.7877 144.17H49.2926H51.1742L51.2119 144.133C51.3624 143.834 51.5882 143.499 51.8518 143.2L51.8895 143.163L49.5188 141.746C49.3684 141.671 49.3307 141.56 49.293 141.447C49.293 141.335 49.3307 141.224 49.4057 141.149C49.4434 141.111 49.4811 141.111 49.5188 141.074L52.8676 139.098C52.9431 139.06 53.0181 139.023 53.0558 139.023C53.0935 139.023 53.1312 139.023 53.1686 138.986C53.2063 138.986 53.2813 138.986 53.319 138.986C53.3944 138.986 53.4318 138.986 53.5072 138.986C53.5449 138.986 53.6199 138.986 53.6576 138.986C53.6953 138.986 53.6953 138.986 53.7327 138.986C53.8081 139.023 53.8831 139.023 53.9585 139.06L56.3292 140.477L56.4046 140.44C56.5928 140.403 56.7432 140.328 56.9314 140.291C57.0441 140.253 57.1195 140.253 57.2323 140.216C57.27 140.216 57.27 140.216 57.3077 140.216C57.3454 140.216 57.4204 140.179 57.4582 140.179C57.5332 140.179 57.5709 140.142 57.6463 140.142H57.684C57.7217 140.142 57.7594 140.104 57.8345 140.104C57.8722 140.104 57.9472 140.067 57.9849 140.067H58.098V137.978C58.098 137.717 58.4367 137.531 58.8507 137.531H63.5543C63.8179 137.531 64.0438 137.605 64.1938 137.717L64.2315 137.754C64.2692 137.792 64.3066 137.829 64.3066 137.904C64.3066 137.941 64.3066 137.941 64.3066 137.978V139.991H64.4197C64.4951 139.991 64.5324 140.029 64.5702 140.029C64.6079 140.029 64.6456 140.029 64.6833 140.067C64.6833 140.067 64.6833 140.067 64.721 140.067C64.7964 140.067 64.8714 140.104 64.9468 140.104C64.9846 140.104 65.0219 140.104 65.0596 140.142C65.0973 140.142 65.135 140.142 65.1723 140.179C65.2478 140.216 65.3605 140.216 65.4359 140.253C65.6241 140.291 65.8122 140.328 65.9627 140.403L66.0754 140.44L68.4461 139.023C68.5215 138.985 68.5965 138.948 68.6343 138.948C68.672 138.948 68.7097 138.948 68.7474 138.911C68.7851 138.911 68.8601 138.911 68.8978 138.911C68.9732 138.911 69.011 138.911 69.086 138.911C69.1237 138.911 69.1987 138.911 69.2364 138.911C69.2742 138.911 69.2742 138.911 69.3119 138.911C69.3873 138.948 69.4623 138.948 69.5374 138.985L72.8865 140.962C73.1874 141.148 73.1874 141.409 72.8865 141.596L70.5159 143.013L70.5536 143.051C70.8171 143.349 71.0049 143.684 71.1931 143.983L71.2308 144.02H73.1124H74.58C74.6554 144.02 74.7304 144.02 74.8058 144.058C74.8812 144.058 74.9186 144.096 74.994 144.096C75.0694 144.133 75.1444 144.17 75.2195 144.207L75.2572 144.245C75.3326 144.319 75.3699 144.394 75.3699 144.468V147.265C75.3699 147.527 75.0313 147.713 74.5796 147.713H71.2308L71.1931 147.75C71.0049 148.086 70.8168 148.385 70.5536 148.683L70.5159 148.72L72.8865 150.137C73.224 150.399 73.224 150.697 72.9231 150.884ZM67.6177 145.924C67.6177 143.835 64.7956 142.157 61.296 142.157C57.7964 142.157 54.9744 143.835 54.9744 145.924C54.9744 146.595 55.2753 147.229 55.802 147.788C55.8398 147.826 55.9152 147.901 55.9525 147.938C56.0279 147.975 56.0652 148.05 56.1407 148.087C56.1784 148.124 56.2534 148.161 56.2911 148.236C56.4416 148.348 56.592 148.459 56.7802 148.571C57.0438 148.72 57.3447 148.87 57.6833 149.019C57.6833 149.019 57.721 149.019 57.721 149.056C58.7368 149.466 59.9408 149.69 61.2202 149.69C62.2738 149.69 63.2896 149.541 64.1554 149.28C64.1931 149.28 64.2308 149.243 64.2681 149.243C64.4186 149.205 64.5317 149.131 64.6822 149.093C64.7576 149.056 64.7949 149.056 64.8703 149.019C65.2089 148.87 65.5475 148.721 65.8488 148.534C65.9993 148.422 66.1497 148.348 66.2625 148.236C66.3002 148.198 66.3379 148.161 66.3756 148.124C66.4133 148.086 66.4883 148.049 66.526 147.975C66.6015 147.937 66.6388 147.863 66.7142 147.788C67.3168 147.229 67.6177 146.595 67.6177 145.924ZM147.916 120.863L145.131 119.297L141.03 116.948C140.804 116.836 140.579 116.836 140.353 116.948L132.827 121.237C132.714 121.311 132.677 121.423 132.677 121.535C132.677 121.647 132.715 121.759 132.827 121.796L139.713 125.712C139.939 125.824 140.165 125.824 140.39 125.712L147.954 121.386C148.067 121.311 148.104 121.2 148.104 121.087C148.066 121.013 148.029 120.901 147.916 120.863ZM86.77 159.461C86.77 159.499 86.8078 159.499 86.8078 159.536V161.139C86.8078 161.288 86.6196 161.4 86.3564 161.4H84.4748L84.4371 161.438C84.324 161.624 84.2112 161.811 84.0608 161.959L84.0231 161.997L85.3775 162.78C85.5657 162.892 85.5657 163.041 85.3775 163.153L83.4959 164.272C83.3455 164.384 83.0446 164.384 82.8941 164.272L81.5396 163.451L81.5019 163.489C81.201 163.563 80.9375 163.638 80.5988 163.712H80.5611V164.868C80.5611 165.018 80.373 165.129 80.1471 165.129H77.4755C77.2123 165.129 77.0242 165.018 77.0242 164.868V163.712H76.9865C76.6856 163.675 76.3843 163.6 76.1211 163.489L76.0834 163.451L74.7289 164.272C74.5408 164.384 74.2776 164.384 74.0894 164.272L72.2078 163.153C72.0196 163.041 72.0196 162.892 72.2078 162.78L73.5623 161.997L73.5246 161.959C73.3741 161.811 73.261 161.624 73.1482 161.438V161.4H71.2293C71.0038 161.4 70.7779 161.288 70.7779 161.139V159.536C70.7779 159.498 70.7779 159.498 70.8156 159.461C70.8156 159.461 70.8156 159.424 70.8534 159.424C70.8534 159.424 70.8911 159.386 70.9288 159.386C70.9288 159.386 70.9665 159.386 70.9665 159.349C71.0042 159.349 71.0419 159.311 71.0419 159.311C71.1173 159.274 71.1546 159.274 71.23 159.274H72.0577H73.149V159.236C73.2621 159.05 73.3748 158.863 73.5253 158.714L73.563 158.677L72.2086 157.894C72.0958 157.819 72.0581 157.707 72.0958 157.633C72.0958 157.633 72.0958 157.633 72.0958 157.595C72.1335 157.558 72.1335 157.558 72.1712 157.521L74.0524 156.402C74.0902 156.365 74.1279 156.365 74.1656 156.365C74.241 156.327 74.2783 156.327 74.3537 156.327C74.4291 156.327 74.5042 156.327 74.5419 156.365C74.5796 156.365 74.6173 156.402 74.6546 156.402L76.0091 157.185H76.0468C76.0845 157.185 76.1218 157.185 76.1595 157.148C76.1972 157.148 76.1972 157.148 76.235 157.148C76.3854 157.11 76.5359 157.073 76.6863 157.036C76.7614 156.999 76.8368 156.999 76.9499 156.999H76.9876V155.881C76.9876 155.843 76.9876 155.843 77.0253 155.806C77.0253 155.769 77.063 155.769 77.063 155.769C77.063 155.731 77.1007 155.731 77.1384 155.731C77.1761 155.731 77.2138 155.694 77.2512 155.694H77.2889C77.3266 155.694 77.402 155.657 77.4393 155.657H80.1109C80.1486 155.657 80.1859 155.657 80.2613 155.657C80.2991 155.657 80.2991 155.657 80.3368 155.657C80.3745 155.657 80.4122 155.694 80.4495 155.694C80.4495 155.694 80.4495 155.694 80.4872 155.694C80.5626 155.731 80.6 155.806 80.6 155.88V156.999H80.6377C80.7127 156.999 80.7881 157.037 80.9009 157.037C81.0513 157.074 81.2022 157.111 81.3522 157.148C81.4276 157.148 81.4654 157.186 81.5404 157.186H81.5781L82.9326 156.403C82.9703 156.365 83.008 156.365 83.0453 156.365C83.1207 156.365 83.158 156.328 83.2335 156.328C83.3089 156.328 83.3466 156.328 83.4216 156.365C83.4593 156.365 83.497 156.403 83.5347 156.403L85.416 157.521C85.4537 157.559 85.4914 157.559 85.4914 157.596C85.4914 157.596 85.4914 157.596 85.4914 157.633C85.5291 157.708 85.5291 157.82 85.3786 157.895L84.0242 158.678L84.0619 158.715C84.2123 158.864 84.3255 159.051 84.4382 159.237L84.4759 159.274H85.5295H86.3571C86.4326 159.274 86.5076 159.274 86.5453 159.312C86.583 159.312 86.583 159.35 86.6207 159.35C86.6584 159.35 86.6584 159.387 86.6584 159.387L86.6961 159.424C86.77 159.424 86.77 159.424 86.77 159.461ZM82.3677 160.319C82.3677 159.125 80.7497 158.193 78.793 158.193C76.7987 158.193 75.2184 159.163 75.2184 160.319C75.2184 160.692 75.4065 161.064 75.7078 161.363C75.9333 161.624 76.2723 161.81 76.6486 161.997C76.6486 161.997 76.6863 161.997 76.6863 162.034C76.7991 162.072 76.9118 162.146 77.0626 162.183C77.1003 162.183 77.138 162.221 77.1754 162.221C77.3635 162.258 77.5517 162.332 77.7399 162.37C77.7776 162.37 77.8153 162.37 77.8153 162.37C77.9284 162.407 78.0788 162.407 78.1916 162.407C78.3047 162.407 78.4175 162.445 78.4929 162.445C78.6056 162.445 78.681 162.445 78.7938 162.445C78.9065 162.445 79.0196 162.445 79.0947 162.445C79.1701 162.445 79.2451 162.445 79.3206 162.445C79.471 162.445 79.6215 162.407 79.7719 162.37C79.8096 162.37 79.8473 162.37 79.8473 162.37C80.0355 162.332 80.2236 162.295 80.4118 162.221C80.4495 162.221 80.4872 162.221 80.4872 162.184C80.6377 162.146 80.7508 162.072 80.8635 162.035C80.8635 162.035 80.9012 162.035 80.9012 161.997C81.2776 161.811 81.6162 161.624 81.842 161.363C82.2172 161.064 82.3677 160.692 82.3677 160.319ZM135.461 134.736L132.677 133.132L128.575 130.783C128.35 130.671 128.124 130.671 127.898 130.783L120.373 135.109C120.26 135.183 120.222 135.295 120.222 135.407C120.222 135.519 120.26 135.631 120.373 135.706L127.221 139.621C127.447 139.733 127.672 139.733 127.898 139.621L135.462 135.295C135.574 135.221 135.612 135.147 135.612 135.035C135.612 134.922 135.574 134.811 135.461 134.736ZM160.409 104.716L153.523 100.8C153.335 100.689 153.071 100.689 152.846 100.8L145.32 105.126C145.207 105.201 145.169 105.312 145.169 105.425C145.169 105.536 145.245 105.648 145.32 105.686L152.206 109.602C152.394 109.714 152.657 109.714 152.846 109.602L160.409 105.276C160.522 105.201 160.559 105.127 160.559 105.015C160.559 104.903 160.521 104.791 160.409 104.716ZM88.3507 148.609C88.3884 148.646 88.3885 148.646 88.3885 148.683V149.765C88.3885 149.877 88.238 149.951 88.0875 149.951H86.7704V149.989C86.6954 150.101 86.62 150.25 86.5072 150.362V150.399L87.448 150.959C87.5608 151.033 87.5608 151.145 87.448 151.219L86.1309 152.003C86.0181 152.077 85.83 152.077 85.7173 152.003L84.7764 151.443H84.7387C84.5506 151.518 84.3247 151.555 84.1366 151.592H84.0988V152.375C84.0988 152.487 83.9484 152.562 83.7976 152.562H81.954C81.8036 152.562 81.6531 152.487 81.6531 152.375V151.592H81.6154C81.3899 151.555 81.2018 151.518 81.0136 151.443H80.9759L80.0351 152.003C79.9224 152.077 79.7338 152.077 79.6211 152.003L78.3043 151.219C78.1912 151.145 78.1912 151.033 78.3043 150.959L79.2451 150.399V150.362C79.1324 150.25 79.057 150.138 78.9816 149.989V149.951H77.6644C77.514 149.951 77.3635 149.877 77.3635 149.765V148.683C77.3635 148.646 77.3635 148.609 77.4012 148.609C77.439 148.571 77.4763 148.571 77.514 148.534H77.5517C77.5894 148.534 77.6271 148.534 77.6648 148.534H78.2293H78.9442V148.497C79.0196 148.385 79.0947 148.236 79.2078 148.124V148.086L78.267 147.527C78.2293 147.489 78.1916 147.452 78.1916 147.415C78.1916 147.377 78.1916 147.377 78.2293 147.34C78.2293 147.303 78.267 147.303 78.3047 147.266L79.6215 146.483C79.6592 146.483 79.6969 146.445 79.7342 146.445C79.7342 146.445 79.7342 146.445 79.7719 146.445C79.8096 146.445 79.8096 146.445 79.8473 146.445H79.885C79.9227 146.445 79.9227 146.445 79.9604 146.445H79.9982C80.0359 146.445 80.0359 146.445 80.0736 146.483L81.0144 147.042H81.0521C81.1275 147.005 81.2402 146.968 81.353 146.968C81.3907 146.968 81.4284 146.968 81.4661 146.93C81.5038 146.93 81.5038 146.93 81.5415 146.93C81.5792 146.93 81.6166 146.93 81.6543 146.893H81.692V146.109C81.692 146.072 81.7297 146.035 81.7297 146.035C81.7674 145.998 81.8801 145.961 81.9932 145.961H83.8368C83.9495 145.961 84.0249 145.998 84.1003 146.035C84.138 146.073 84.138 146.109 84.138 146.109V146.893H84.1758C84.2135 146.893 84.2512 146.893 84.2885 146.93C84.3262 146.93 84.3262 146.93 84.3639 146.93C84.4016 146.93 84.4393 146.93 84.4767 146.968C84.5894 147.005 84.6648 147.005 84.7776 147.042H84.8153L85.7561 146.483C85.7938 146.483 85.7938 146.445 85.8315 146.445H85.8692C85.9069 146.445 85.9069 146.445 85.9442 146.445H85.9819C86.0196 146.445 86.0196 146.445 86.0574 146.445C86.0574 146.445 86.0574 146.445 86.0951 146.445C86.1328 146.445 86.1705 146.483 86.2078 146.483L87.5249 147.266C87.5626 147.266 87.5626 147.303 87.6003 147.34C87.6003 147.378 87.638 147.378 87.638 147.415C87.638 147.452 87.6003 147.49 87.5626 147.527L86.6218 148.086V148.124C86.7346 148.236 86.81 148.347 86.8854 148.497V148.534H87.6003H88.1648C88.2025 148.534 88.2402 148.534 88.2776 148.534H88.3153C88.2753 148.572 88.313 148.572 88.3507 148.609ZM85.3406 149.243C85.3406 148.422 84.2493 147.788 82.8948 147.788C81.5404 147.788 80.4114 148.459 80.4114 149.243C80.4114 149.541 80.5619 149.839 80.8255 150.063C80.8632 150.101 80.9382 150.138 80.9759 150.175C81.0136 150.213 81.0887 150.25 81.1641 150.287C81.2018 150.287 81.2395 150.324 81.2772 150.324C81.3899 150.399 81.5408 150.437 81.6535 150.474C81.6912 150.474 81.7289 150.511 81.7289 150.511C82.0675 150.623 82.4439 150.66 82.8575 150.66C83.2715 150.66 83.6852 150.586 84.0242 150.474H84.0619C84.2123 150.436 84.3632 150.362 84.4759 150.287C84.5136 150.287 84.5136 150.25 84.5513 150.25C84.6267 150.212 84.7018 150.175 84.7395 150.138C84.7772 150.1 84.8149 150.063 84.8899 150.026C85.1901 149.84 85.3406 149.541 85.3406 149.243ZM104.794 169.828L104.418 169.679L104.042 169.53L103.665 169.344L103.327 169.194C100.956 169.754 98.1339 169.493 96.1773 168.374C93.6185 166.919 93.6185 164.57 96.1396 163.116C96.4409 162.929 96.7791 162.78 97.1558 162.668L97.1181 162.519L97.0804 162.221L97.0427 161.922V161.661V161.4L97.0804 161.177C96.1773 161.4 95.3119 161.736 94.5593 162.184C92.8285 163.153 92.0004 164.458 92.0004 165.764C92.0004 165.838 92.0004 165.913 92.0004 166.025C92.0004 166.062 92.0004 166.099 92.0004 166.137C92.0004 166.174 92.0004 166.211 92.0004 166.249C92.0004 166.323 92.0382 166.398 92.0382 166.51C92.0382 166.584 92.0759 166.659 92.1136 166.733C92.1513 166.808 92.1513 166.882 92.2263 166.994C92.2263 167.032 92.264 167.069 92.264 167.106C92.264 167.144 92.3017 167.181 92.3017 167.218C92.3017 167.256 92.3394 167.293 92.3771 167.33C92.3771 167.368 92.4148 167.405 92.4148 167.442C92.4525 167.48 92.4526 167.517 92.4903 167.554C92.528 167.592 92.528 167.629 92.5657 167.666C92.6034 167.703 92.6034 167.741 92.6411 167.778C92.6788 167.815 92.6788 167.852 92.7161 167.89C92.7915 167.965 92.8292 168.039 92.9043 168.114C92.942 168.151 92.9797 168.188 93.0174 168.225C93.0551 168.263 93.0928 168.3 93.1302 168.338C93.2056 168.412 93.2806 168.487 93.3556 168.561C93.4311 168.636 93.5061 168.71 93.6192 168.785C93.6946 168.859 93.8074 168.934 93.8828 169.008C93.9959 169.083 94.071 169.12 94.1841 169.195C94.2968 169.269 94.4096 169.307 94.485 169.381C94.5977 169.419 94.7108 169.493 94.8236 169.568C94.9363 169.605 95.0491 169.68 95.1622 169.717C95.2753 169.754 95.3881 169.829 95.5385 169.866C95.6513 169.903 95.764 169.978 95.9149 170.015C95.9903 170.053 96.0276 170.052 96.103 170.09C96.1407 170.127 96.2158 170.127 96.2912 170.164C96.4039 170.201 96.5547 170.239 96.6675 170.276C96.7429 170.313 96.7802 170.313 96.8556 170.313C96.9311 170.351 96.9684 170.351 97.0438 170.351C97.1569 170.388 97.3074 170.425 97.4578 170.463C97.5706 170.5 97.7214 170.537 97.8719 170.575C97.9846 170.612 98.1354 170.612 98.2855 170.649C98.436 170.687 98.5491 170.687 98.6995 170.724C98.775 170.724 98.85 170.761 98.925 170.761C99.0004 170.761 99.0755 170.761 99.1509 170.799C99.3014 170.799 99.4145 170.836 99.5646 170.836C99.715 170.836 99.8658 170.874 99.9786 170.874C100.129 170.874 100.242 170.874 100.393 170.911C100.468 170.911 100.543 170.911 100.618 170.911C100.693 170.911 100.769 170.911 100.844 170.911C100.919 170.911 100.994 170.911 101.069 170.911C101.144 170.911 101.22 170.911 101.295 170.911C101.371 170.911 101.446 170.911 101.521 170.911C101.596 170.911 101.671 170.911 101.747 170.911C101.822 170.911 101.897 170.911 101.972 170.911C102.047 170.911 102.123 170.911 102.198 170.911C102.273 170.911 102.349 170.911 102.424 170.874C102.499 170.874 102.574 170.874 102.649 170.874C102.725 170.874 102.8 170.874 102.875 170.836C102.95 170.836 103.025 170.836 103.101 170.799C103.251 170.799 103.364 170.761 103.514 170.724C103.628 170.724 103.778 170.687 103.928 170.65C104.004 170.65 104.079 170.612 104.117 170.612C104.192 170.612 104.267 170.575 104.342 170.575C104.418 170.575 104.455 170.537 104.531 170.537C104.606 170.537 104.681 170.5 104.719 170.5C104.869 170.462 104.982 170.425 105.095 170.388C105.171 170.35 105.246 170.35 105.283 170.313C105.359 170.313 105.396 170.276 105.471 170.276C105.509 170.239 105.584 170.239 105.66 170.201L105.359 170.127L104.794 169.828ZM113.11 163.563C113.938 165.204 113.938 166.658 113.298 167.703C113.261 167.777 113.223 167.852 113.185 167.889C113.148 167.964 113.073 168.001 113.035 168.076C112.997 168.113 112.922 168.188 112.885 168.225C112.847 168.262 112.772 168.337 112.697 168.374C112.621 168.411 112.583 168.486 112.508 168.523C112.47 168.56 112.433 168.56 112.395 168.598C112.357 168.635 112.32 168.635 112.282 168.672C112.244 168.709 112.207 168.709 112.169 168.746C112.132 168.784 112.094 168.784 112.057 168.821C112.019 168.821 111.981 168.859 111.944 168.859C111.906 168.859 111.868 168.896 111.831 168.896C111.755 168.933 111.643 168.971 111.567 169.008C111.492 169.045 111.379 169.045 111.304 169.082C111.191 169.12 111.116 169.12 111.003 169.157C110.89 169.194 110.815 169.194 110.702 169.231C110.589 169.231 110.476 169.269 110.401 169.269C110.288 169.307 110.175 169.307 110.1 169.307C110.062 169.307 109.987 169.307 109.911 169.307C109.874 169.307 109.799 169.307 109.761 169.307C109.723 169.307 109.648 169.307 109.573 169.307C109.535 169.307 109.46 169.307 109.422 169.307C109.31 169.307 109.159 169.307 109.046 169.307C108.933 169.307 108.783 169.307 108.67 169.269C108.557 169.269 108.407 169.231 108.293 169.231C108.218 169.231 108.143 169.231 108.105 169.194C108.03 169.194 107.955 169.194 107.917 169.157C107.767 169.157 107.654 169.119 107.541 169.082C107.39 169.045 107.277 169.045 107.165 169.008C107.089 169.008 107.014 168.97 106.976 168.97C106.901 168.97 106.826 168.933 106.75 168.933C106.713 168.933 106.638 168.895 106.562 168.895C106.525 168.895 106.45 168.858 106.374 168.858C106.299 168.82 106.261 168.82 106.186 168.783C106.111 168.783 106.073 168.746 105.998 168.746C105.885 168.708 105.734 168.634 105.622 168.597C105.546 168.559 105.471 168.559 105.433 168.522C105.396 168.485 105.32 168.485 105.283 168.485H105.245C105.17 168.447 105.095 168.447 105.057 168.41C104.982 168.373 104.944 168.373 104.869 168.336C104.756 168.298 104.605 168.224 104.493 168.149C104.417 168.112 104.38 168.075 104.304 168.075C104.267 168.037 104.192 168.037 104.116 168C104.003 167.926 103.853 167.851 103.74 167.814C103.665 167.776 103.627 167.739 103.552 167.702C103.514 167.664 103.439 167.627 103.364 167.59C103.25 167.515 103.138 167.441 102.987 167.366C102.875 167.292 102.762 167.217 102.611 167.142C102.498 167.068 102.385 166.994 102.272 166.919C102.159 166.845 102.046 166.77 101.934 166.658C101.896 166.62 101.821 166.583 101.783 166.546C101.746 166.509 101.671 166.472 101.633 166.434C101.52 166.36 101.407 166.247 101.294 166.173C101.181 166.098 101.068 165.987 100.993 165.912C100.88 165.837 100.767 165.725 100.692 165.651C100.654 165.614 100.579 165.577 100.542 165.502C100.504 165.465 100.429 165.39 100.391 165.353C100.353 165.315 100.278 165.241 100.241 165.204C100.203 165.166 100.128 165.092 100.09 165.055C100.015 164.943 99.9021 164.831 99.8266 164.756C99.7512 164.644 99.6385 164.57 99.5631 164.458C99.5254 164.42 99.4877 164.346 99.4499 164.309C99.4122 164.271 99.3749 164.197 99.3372 164.16C99.2618 164.048 99.1867 163.936 99.1117 163.861C99.0363 163.749 98.9612 163.638 98.8858 163.563C98.8104 163.451 98.7731 163.339 98.6977 163.264C98.66 163.227 98.66 163.152 98.6223 163.115C98.5846 163.078 98.5468 163.003 98.5468 162.966C98.5091 162.929 98.5091 162.854 98.4718 162.817C98.4341 162.78 98.4341 162.705 98.3964 162.668C98.3587 162.631 98.3587 162.556 98.321 162.519C98.321 162.519 98.321 162.482 98.2833 162.482C98.2833 162.444 98.2456 162.407 98.2456 162.37C98.2456 162.332 98.2079 162.258 98.2079 162.221C98.1702 162.183 98.1702 162.109 98.1702 162.072C98.1324 161.959 98.0947 161.848 98.0574 161.773C98.0197 161.661 98.0197 161.55 97.982 161.475C97.9443 161.363 97.9443 161.288 97.9443 161.176C97.9066 161.064 97.9066 160.99 97.9066 160.878C97.9066 160.803 97.9066 160.691 97.9066 160.617C97.9066 160.579 97.9066 160.542 97.9066 160.505C97.9066 160.467 97.9066 160.393 97.9066 160.356C97.9066 160.318 97.9066 160.244 97.9066 160.207C97.9066 160.169 97.9066 160.132 97.9066 160.095C97.9066 160.057 97.9066 160.02 97.9443 159.983C97.9443 159.945 97.9443 159.871 97.9443 159.834C97.982 159.759 97.982 159.685 98.0193 159.61C98.0193 159.536 98.057 159.461 98.0947 159.387C98.1324 159.312 98.1325 159.237 98.2075 159.163C98.2452 159.088 98.2829 159.014 98.3206 158.94C98.9601 157.821 100.352 157.112 102.347 157.112C106.147 157.112 110.775 159.685 112.883 162.93C112.958 163.079 113.033 163.191 113.146 163.34C112.997 163.339 113.034 163.451 113.11 163.563ZM111.153 163.488C111.115 163.376 111.04 163.302 111.003 163.227C110.965 163.115 110.89 163.041 110.815 162.929C109.234 160.542 105.848 158.64 103.026 158.64C100.091 158.64 98.962 160.691 100.429 163.227C101.897 165.763 105.471 167.814 108.369 167.814C111.229 167.777 112.395 165.875 111.153 163.488Z" fill="#FBBB1B"/>
<path d="M148.066 121.124V138.838V143.686C148.066 143.798 148.028 143.947 147.916 143.985L140.353 148.348C140.127 148.46 139.901 148.46 139.676 148.348L135.611 145.998V135.034C135.611 134.922 135.574 134.811 135.461 134.736L132.677 133.132V121.497C132.677 121.609 132.714 121.721 132.827 121.758L139.713 125.674C139.938 125.786 140.165 125.786 140.39 125.674L147.953 121.348C148.029 121.348 148.066 121.236 148.066 121.124ZM95.2365 53.8494L95.011 53.7747L94.7475 53.7373L94.5216 53.7H94.258H93.9948L93.7312 53.7373L93.4677 53.7747L93.2041 53.8494L92.9028 53.9612L92.6396 54.0729L92.3383 54.222L92.0374 54.3711L91.9247 54.4085L91.8116 54.4459L91.6988 54.5206L91.5861 54.558L91.4733 54.6327L91.3602 54.7075L91.2475 54.7818L91.172 54.8566L91.0593 54.9313L90.9466 55.0061L90.8334 55.0808L90.7207 55.1555L90.6453 55.2303L90.5325 55.3046L90.4198 55.3794V55.4168L85.7539 52.769L85.4903 52.6573L85.1894 52.5826L84.8885 52.5452L84.5872 52.5078H84.2863H83.9854L83.6841 52.5452L83.5336 52.5826L83.2324 52.6573L82.8937 52.732L82.5551 52.8438L82.2165 52.9555L81.8779 53.1046L81.5016 53.2537L81.163 53.4402L80.7493 53.7011L80.3353 53.9623L79.959 54.2609L79.5827 54.5591L79.2063 54.8947L78.83 55.2303L78.4537 55.6032L78.1151 55.9762L77.7388 56.3862L77.4002 56.7965L77.0615 57.2068L76.7229 57.6541L76.422 58.1018L76.1211 58.5865L75.8198 59.0712L75.5563 59.5563L75.2927 60.0784L75.0291 60.6004L74.8036 61.1225L74.5777 61.6446L74.3523 62.1667L74.1264 62.7261L73.9382 63.2855L73.7501 63.845L73.5996 64.4044L73.4492 64.9639L73.2987 65.5233L73.186 66.0827L73.0732 66.6422L72.9978 67.2016L72.9224 67.7611L72.8847 68.3205L72.7342 68.4322L72.5838 68.5814L72.4333 68.7305L72.2829 68.8796L72.1324 69.0287L71.982 69.1778L71.8315 69.3269L71.6811 69.476L71.5306 69.6625L71.3802 69.849L71.2297 70.0354L71.0792 70.2219L70.9288 70.4084L70.816 70.5949L70.6656 70.8187L70.5528 71.0422L70.4401 71.2661L70.327 71.4896L70.2142 71.7134L70.1015 71.9369L69.9887 72.1607L69.8756 72.3842L69.7629 72.6081L69.6501 72.8315L69.5374 73.0554L69.462 73.2789L69.3865 73.5027L69.3111 73.7262L69.2357 73.9501L69.1607 74.2113L69.0853 74.4347L69.0476 74.6586H69.0099H68.9721H68.9344H68.8967H68.859H68.8213L68.7836 74.696H68.7459H68.7082L68.6705 74.7333H68.6328L68.5951 74.7707H68.5574L68.5197 74.8081L68.482 74.8454L68.4443 74.8828L68.2938 74.9949L68.1433 75.1067L67.9929 75.2184L67.8424 75.3301L67.692 75.4793L67.5415 75.6284L67.3911 75.7775L67.2406 75.9266L67.0902 76.0757L66.9771 76.2248L66.8266 76.4113L66.7135 76.5978L66.6007 76.7843L66.488 76.9707L66.3752 77.1572L66.2621 77.3807L66.1494 77.6045L66.0366 77.828L65.9239 78.0519L65.8485 78.2754L65.7731 78.4992L65.6976 78.7227L65.6222 78.9465L65.5468 79.17L65.5091 79.3939L65.4714 79.6173L65.4337 79.8412L65.396 80.0647L65.3598 80.2896V80.5131V80.737V80.9608V81.1843V81.4078V81.6316L65.3975 81.8181L65.4352 82.0046L65.4729 82.1911L65.5106 82.3402L65.5483 82.4893L65.6237 82.6384L65.6991 82.7875L65.7746 82.9366L65.85 83.0483L65.9254 83.1601L66.0381 83.2718L66.1509 83.3839L66.2636 83.4957L71.1554 86.2925C70.5909 85.8452 70.2527 84.9872 70.2527 83.8313C70.2527 81.4818 71.6448 78.7967 73.3756 77.7899C73.6015 77.6408 73.827 77.5664 74.0528 77.4917C74.6173 74.9557 76.0845 72.4571 77.8534 71.1891C78.3047 65.2225 81.8421 58.7708 86.1313 56.3469C89.9318 54.1839 93.1302 55.7875 94.146 59.9644C94.9737 58.8082 95.9899 57.8388 97.0058 57.242C98.2475 56.5334 99.3764 56.4217 100.317 56.7946C100.28 56.7946 100.242 56.7573 100.204 56.7573L95.2365 53.8494ZM51.3247 103.858C51.8515 103.15 52.4533 102.553 53.0932 102.18C53.8081 101.77 54.4853 101.695 55.0498 101.882L52.0396 100.166L51.8892 100.129L51.7387 100.092H51.5883H51.4378H51.2873H51.1369L50.9864 100.129L50.836 100.166L50.6478 100.204L50.4974 100.279L50.3092 100.353L50.1211 100.465L50.046 100.502L50.0083 100.54L49.9706 100.577L49.8952 100.614L49.8575 100.652L49.8198 100.689L49.7444 100.727L49.7067 100.764L49.669 100.801L49.6312 100.839L49.5558 100.876L49.5181 100.913L49.4804 100.951L49.4427 100.988L49.405 101.026L46.5453 99.3846L46.3571 99.3472L46.2067 99.3099L46.0185 99.2725L45.8303 99.2351H45.6422H45.454H45.2659L45.0777 99.2725L44.8522 99.3099L44.6263 99.3472L44.4008 99.422L44.175 99.4967L43.9495 99.6084L43.7236 99.7202L43.4981 99.8319L43.2346 99.981L43.0091 100.13L42.7455 100.317L42.5196 100.503L42.2941 100.727L42.0683 100.95L41.8428 101.174L41.6169 101.398L41.3914 101.659L41.1655 101.92L40.94 102.181L40.7142 102.443L40.526 102.704L40.3379 103.002L40.1497 103.3L39.9615 103.599L39.8111 103.897L39.6606 104.195L39.5102 104.531L39.3597 104.867L39.2093 105.202L39.0965 105.538L38.9838 105.873L38.871 106.209L38.7579 106.544L38.6452 106.88L38.5697 107.216L38.4947 107.551L38.4193 107.924L38.3816 108.26L38.3439 108.595L38.3062 108.931L38.1934 109.006L38.0807 109.08L37.9679 109.155L37.8548 109.267L37.7421 109.379L37.6293 109.49L37.5166 109.602L37.4412 109.714L37.3284 109.826L37.253 109.938L37.1776 110.049L37.0648 110.162L36.9894 110.273L36.914 110.385L36.8386 110.497L36.7632 110.609L36.6882 110.721L36.6127 110.87L36.5373 110.982L36.4619 111.131L36.4242 111.28L36.3488 111.429L36.3111 111.578L36.2734 111.727L36.2357 111.876L36.198 112.025L36.1603 112.174L36.1226 112.323L36.0848 112.472L36.0471 112.622L36.0094 112.77L35.9717 112.92H35.934H35.8963H35.8586H35.8209H35.7832H35.7466H35.7089H35.6712H35.6335H35.5958H35.5581H35.5204H35.4827H35.445H35.4072L35.2945 112.994L35.1818 113.031L35.069 113.106L34.9559 113.181L34.8808 113.255L34.7677 113.367L34.6927 113.442L34.5796 113.554L34.5041 113.665L34.4291 113.778L34.3537 113.889L34.2783 114.001L34.2029 114.114L34.1275 114.226L34.052 114.337L33.977 114.449L33.9016 114.561L33.8639 114.71L33.8262 114.822L33.7885 114.972L33.7508 115.12L33.7131 115.269L33.6754 115.419L33.6376 115.567L33.5999 115.717L33.5622 115.865L33.5245 116.015L33.4868 116.164V116.313V116.462V116.611V116.76V116.909V117.021V117.133V117.245L33.5245 117.357L33.5622 117.469L33.5999 117.581L33.6376 117.693L33.6754 117.805L33.7131 117.916L33.7508 117.991L33.7885 118.066L33.8262 118.14L33.8639 118.178L33.9016 118.252L33.977 118.29L36.9872 120.005C36.6486 119.744 36.4227 119.185 36.4227 118.476C36.4227 117.022 37.2881 115.381 38.3416 114.747C38.4921 114.673 38.6425 114.598 38.7557 114.561C39.132 112.994 39.9974 111.465 41.0886 110.682C41.3522 106.99 43.5347 103.037 46.2063 101.508C48.7281 100.278 50.6852 101.285 51.3247 103.858ZM73.0359 154.538L73.1113 154.464L73.149 154.389V154.315V151.555H74.6166H74.767H74.9175L75.0302 151.518L75.1433 151.48L75.2561 151.443L75.3315 151.368L75.3692 151.294L75.4069 151.182V148.384V147.303C75.4069 147.564 75.0683 147.751 74.6166 147.751H71.2678L71.2301 147.788C71.0419 148.124 70.8538 148.422 70.5905 148.72L70.5528 148.758L72.9235 150.175C73.2244 150.362 73.2244 150.623 72.9235 150.809L69.5747 152.786C69.2738 152.972 68.7844 152.972 68.4835 152.786L66.1128 151.368L65.9997 151.406C65.5106 151.555 64.9838 151.667 64.4571 151.779H64.3443V153.793C64.3443 154.054 64.0057 154.24 63.5917 154.24H58.888C58.474 154.24 58.1354 154.017 58.1354 153.793V151.779H58.0227C57.4959 151.667 56.9691 151.555 56.4423 151.406L56.3673 151.368L53.9966 152.786C53.6957 152.972 53.2067 152.972 52.9054 152.786L49.5566 150.809C49.2557 150.623 49.2557 150.362 49.5566 150.175L51.9272 148.758L51.8895 148.72C51.626 148.422 51.4382 148.124 51.25 147.788L51.2123 147.751H47.8258C47.4118 147.751 47.0732 147.527 47.0732 147.303V148.273V151.07V151.182L47.1109 151.256L47.1863 151.331L47.2617 151.368L47.3744 151.405L47.4872 151.443H47.6376H47.7881H49.293V154.203V154.277L49.3307 154.352L49.4058 154.426L49.5189 154.501L52.8677 156.477L52.9804 156.515L53.1309 156.552L53.2813 156.59H53.4318H53.5822L53.7327 156.552L53.8458 156.515L53.9585 156.477L56.3292 155.06L56.4046 155.098L56.5174 155.135L56.6301 155.173L56.7432 155.21L56.856 155.248L56.9687 155.285H57.0815L57.1946 155.322L57.3074 155.36L57.4201 155.397H57.5332L57.646 155.435L57.7587 155.472H57.8715L57.9846 155.51H58.0973L58.2101 155.547H58.3228V157.561V157.635L58.3605 157.71L58.4359 157.784L58.5487 157.859L58.6614 157.896L58.7742 157.934L58.9246 157.971H59.0751H63.7787H63.9292L64.0796 157.934L64.2301 157.896L64.3428 157.859L64.4556 157.784L64.531 157.71L64.5687 157.635V157.561V155.547H64.6814L64.7942 155.51H64.9069L65.02 155.472H65.1328L65.2455 155.435L65.3583 155.397H65.4714L65.5841 155.36L65.6969 155.322L65.8096 155.285H65.9228L66.0355 155.248L66.1483 155.21L66.261 155.173L66.3364 155.135L66.4492 155.098L66.5623 155.06L68.9329 156.477L69.0457 156.515L69.1962 156.552L69.3466 156.59H69.4971H69.6475L69.798 156.552L69.9107 156.515L70.0235 156.477L73.3723 154.501L73.0359 154.538ZM55.8024 147.788L55.8779 147.714L56.0283 147.565L56.2165 147.416L56.4046 147.267L56.6305 147.118L56.856 146.969L57.0819 146.857L57.3074 146.745L57.5332 146.633L57.7964 146.521L58.06 146.409L58.3236 146.334L58.5871 146.26L58.8507 146.185L59.1516 146.111L59.4529 146.073L59.7538 146.036L60.0551 145.998L60.356 145.961L60.6569 145.924H60.9582H61.2591H61.5977H61.8986L62.1995 145.961L62.5008 145.998L62.8017 146.036L63.1026 146.073L63.4039 146.111L63.6675 146.185L63.9684 146.26L64.2319 146.334L64.4955 146.409L64.7591 146.521L65.0227 146.633L65.2482 146.745L65.474 146.857L65.6995 146.969L65.9254 147.118L66.1135 147.267L66.3017 147.416L66.4899 147.565L66.6403 147.714L66.7157 147.788C67.2425 147.229 67.5811 146.595 67.5811 145.924C67.5811 143.835 64.7591 142.157 61.2595 142.157C57.7598 142.157 54.9378 143.835 54.9378 145.924C54.9744 146.595 55.2757 147.229 55.8024 147.788ZM72.9231 141.635L70.5525 143.052L70.5902 143.09C70.8537 143.388 71.0415 143.724 71.2297 144.022L71.2674 144.06H73.149V141.3V141.225L73.1113 141.151L73.0359 141.077L72.9231 141.002C73.224 141.15 73.224 141.449 72.9231 141.635ZM49.4054 141.337V144.059H51.287L51.3247 144.021C51.4751 143.723 51.701 143.387 51.9642 143.089L52.0019 143.052L49.6312 141.635C49.5185 141.561 49.4435 141.449 49.4054 141.337ZM86.3564 161.363H84.4748L84.4371 161.4C84.324 161.586 84.2112 161.773 84.0608 161.922L84.0231 161.959L85.3775 162.743C85.5657 162.854 85.5657 163.003 85.3775 163.116L83.4959 164.234C83.3455 164.346 83.0446 164.346 82.8937 164.234L81.5393 163.414L81.5016 163.451C81.2007 163.526 80.9371 163.6 80.5985 163.675H80.5608V164.831C80.5608 164.98 80.3726 165.092 80.1468 165.092H77.4752C77.212 165.092 77.0238 164.98 77.0238 164.831V163.675H76.9861C76.6852 163.637 76.3839 163.563 76.1207 163.451L76.083 163.414L74.7286 164.234C74.5404 164.346 74.2772 164.346 74.0891 164.234L72.2075 163.116C72.0193 163.003 72.0193 162.854 72.2075 162.743L73.5619 161.959L73.5242 161.922C73.3738 161.773 73.2606 161.586 73.1479 161.4V161.363H71.229C71.0035 161.363 70.7776 161.25 70.7776 161.102V161.624V163.227V163.265L70.8153 163.302L70.853 163.339L70.8907 163.377L70.9284 163.415L71.0038 163.452H71.0792H71.1543H71.9823V165.018V165.056L72.02 165.093L72.0577 165.13L72.0955 165.168L73.9771 166.287L74.0521 166.324L74.1275 166.361H74.2029H74.2783H74.3538H74.4292L74.5042 166.324L74.5796 166.287L75.9341 165.503H75.9718H76.0095H76.0472H76.0849H76.1226H76.1603H76.198H76.2357H76.2734H76.3111H76.3488H76.3865H76.4243H76.462H76.4997H76.5374H76.5751H76.6128V166.659V166.697L76.6505 166.734L76.6882 166.772L76.7259 166.809L76.8013 166.847L76.8767 166.884H76.9521H77.0649H79.7365H79.8115H79.8869L79.9623 166.847L80.0377 166.809L80.0755 166.772L80.1132 166.734V166.697V166.659V165.503H80.1509H80.1886H80.2263H80.264H80.3017H80.3394H80.3771H80.4148H80.4525H80.4902H80.5279H80.5656H80.6033H80.6411H80.6788H80.7165H80.7542H80.7919L82.1463 166.287L82.184 166.324L82.2595 166.361H82.3349H82.4103H82.4853H82.5607L82.6361 166.324L82.7116 166.287L84.5932 165.168L84.6309 165.13L84.6686 165.093L84.7063 165.056V165.018V163.452H85.534H85.6467H85.7221L85.7975 163.415L85.8352 163.377L85.873 163.339L85.9107 163.302L85.9484 163.265V163.227V161.624V161.102C86.8078 161.25 86.62 161.363 86.3564 161.363ZM75.6701 161.363L75.7078 161.325L75.8206 161.25L75.9333 161.176L76.0464 161.102L76.1592 161.027L76.2719 160.953L76.3847 160.878L76.4978 160.803L76.6483 160.729L76.7987 160.691L76.9492 160.654L77.0996 160.617L77.2501 160.579L77.4005 160.542L77.551 160.504L77.7014 160.467L77.8519 160.429H78.04L78.2282 160.392H78.4164H78.6045H78.7927H78.9808H79.169H79.3572L79.5076 160.429H79.6958L79.8462 160.467L79.9967 160.504L80.1471 160.542L80.2976 160.579L80.448 160.617L80.5985 160.654L80.749 160.691L80.8994 160.729L81.0499 160.803L81.1626 160.878L81.2754 160.953L81.3885 161.027L81.5012 161.102L81.614 161.176L81.7267 161.25L81.8398 161.325L81.8775 161.363C82.1784 161.064 82.367 160.691 82.367 160.318C82.367 159.125 80.7489 158.193 78.7923 158.193C76.798 158.193 75.2176 159.163 75.2176 160.318C75.2184 160.691 75.3688 161.064 75.6701 161.363ZM72.0577 157.633V157.671V159.237H73.149V159.2C73.2617 159.013 73.3745 158.827 73.5253 158.677L73.563 158.64L72.2086 157.857C72.0578 157.82 72.02 157.708 72.0577 157.633ZM85.3779 157.857L84.0235 158.64L84.0612 158.678C84.2116 158.827 84.3247 159.013 84.4375 159.2L84.4752 159.237H85.5287V157.671V157.634L85.491 157.596C85.5661 157.708 85.5287 157.82 85.3779 157.857ZM86.7701 148.497L87.5227 148.534V147.453C87.5227 147.491 87.485 147.528 87.4473 147.565L86.5065 148.124V148.162C86.62 148.236 86.695 148.385 86.7701 148.497ZM88.0872 149.951H86.7701V149.988C86.695 150.1 86.6196 150.25 86.5069 150.362V150.399L87.4477 150.959C87.5604 151.033 87.5604 151.145 87.4477 151.219L86.1306 152.003C86.0178 152.077 85.8296 152.077 85.7169 152.003L84.7761 151.443H84.7384C84.5502 151.518 84.3244 151.555 84.1362 151.592H84.0985V152.375C84.0985 152.487 83.948 152.562 83.7972 152.562H81.9537C81.8032 152.562 81.6528 152.487 81.6528 152.375V151.592H81.6151C81.3896 151.555 81.2014 151.518 81.0133 151.443H80.9756L80.0348 152.003C79.922 152.077 79.7335 152.077 79.6207 152.003L78.304 151.219C78.1909 151.145 78.1909 151.033 78.304 150.959L79.2448 150.399V150.362C79.132 150.25 79.0566 150.138 78.9812 149.988V149.951H77.6641C77.5136 149.951 77.3632 149.877 77.3632 149.765V150.137V151.219V151.257V151.294L77.4009 151.331H77.4386L77.4763 151.369H77.514H77.5517H77.5894H78.1539V152.45V152.488L78.1916 152.525L78.2293 152.563L78.267 152.6L79.5841 153.383H79.6219L79.6596 153.421H79.6973H79.735H79.7727H79.8104L79.8481 153.383H79.8858L80.8266 152.824H80.8643H80.902H80.9397H80.9774H81.0133H81.051H81.0887H81.1264H81.1641H81.2018H81.2395H81.2772H81.3149H81.3526H81.3903H81.428H81.4658H81.5035V153.607V153.644V153.682L81.5412 153.719L81.5789 153.757H81.6166H81.6543H81.692H81.7297H83.5732H83.6109H83.6486H83.6863H83.724L83.7618 153.719L83.7995 153.682V153.644V153.607V152.824H83.8372H83.8749H83.9126H83.9503H83.988H84.0257H84.0634H84.1011H84.1388H84.1765H84.2142H84.2519H84.2896H84.3273H84.3651H84.4028H84.4405H84.4782L85.419 153.383H85.4567L85.4944 153.421H85.5321H85.5698H85.6075H85.6452L85.6829 153.383H85.7206L87.0374 152.6L87.0751 152.563L87.1128 152.525L87.1505 152.488V152.525V151.444H87.715H87.7527H87.7904H87.8281L87.8658 151.406H87.9035L87.9412 151.369V151.331V151.294V150.213V149.84C88.3881 149.877 88.238 149.951 88.0872 149.951ZM78.9812 148.497C79.0566 148.385 79.1317 148.236 79.2448 148.124V148.087L78.304 147.527C78.2663 147.49 78.2286 147.452 78.2286 147.415V148.497H78.9812V148.497ZM82.8568 147.788C81.5023 147.788 80.3734 148.46 80.3734 149.243C80.3734 149.504 80.4861 149.765 80.712 149.989L80.7497 149.951L80.7874 149.914L80.8628 149.84L80.9382 149.802L81.0136 149.765L81.0887 149.727L81.1641 149.69L81.2772 149.652L81.39 149.615L81.5027 149.577L81.6155 149.54L81.7286 149.503L81.8413 149.465L81.9541 149.427L82.0668 149.39L82.1799 149.353H82.2927H82.4054H82.5182H82.6313H82.744H82.8945H83.0072H83.12H83.2327H83.3459H83.4586H83.5714L83.6841 149.39L83.7972 149.427L83.91 149.465L84.0227 149.503L84.1355 149.54L84.2486 149.577L84.3613 149.615L84.4741 149.652L84.5868 149.69L84.6622 149.727L84.7376 149.765L84.8131 149.802L84.8885 149.84L84.9639 149.914L85.0016 149.951L85.0393 149.989C85.2652 149.765 85.3779 149.504 85.3779 149.243C85.3406 148.423 84.2116 147.788 82.8568 147.788ZM84.9266 150.063L84.9643 150.026L85.002 149.988C84.9643 150.026 84.9266 150.026 84.9266 150.063ZM80.7497 150.026L80.7874 150.063C80.7874 150.026 80.7497 150.026 80.7497 150.026Z" fill="#C4C4C4"/>
<path d="M160.559 105.015V136.601C160.559 136.713 160.521 136.862 160.408 136.9L152.845 141.225C152.657 141.337 152.393 141.337 152.205 141.225L148.104 138.876V121.162C148.104 121.05 148.066 120.938 147.954 120.863L145.169 119.298V105.425C145.169 105.536 145.244 105.648 145.319 105.686L152.205 109.602C152.393 109.714 152.657 109.714 152.845 109.602L160.408 105.276C160.483 105.201 160.559 105.127 160.559 105.015ZM126.092 56.5722L127.183 56.2739C127.183 56.2739 127.86 57.0942 128.048 57.5046C128.236 57.9149 128.123 59.0334 128.123 59.1081C128.386 58.7352 128.65 58.3996 128.876 58.064C128.876 58.0266 128.914 58.0266 128.914 57.9893C128.951 57.9149 129.027 57.8401 129.064 57.8028C129.44 57.3181 129.817 56.8704 130.155 56.4978C130.155 56.4978 130.155 56.4978 130.118 56.4978H130.08C130.042 56.5352 129.967 56.5352 129.929 56.5352C129.177 56.6843 127.22 56.4234 126.693 56.0878C126.167 55.7522 126.317 55.0811 126.317 55.0811L125.452 55.6405L125.15 56.8341L126.092 56.5722ZM135.461 135.296L127.898 139.622C127.672 139.734 127.446 139.734 127.221 139.622L120.372 135.706C120.259 135.632 120.222 135.52 120.222 135.408V151.257C120.222 151.369 120.259 151.48 120.372 151.555L127.221 155.471C127.446 155.583 127.672 155.583 127.898 155.471L135.461 151.145C135.574 151.071 135.611 150.959 135.611 150.847V145.999V135.035C135.611 135.147 135.574 135.259 135.461 135.296Z" fill="#C4C4C4"/>
<path d="M100.316 191.83L12.8311 141.859V146.819L100.316 197.238L211.131 133.655V127.129L100.316 191.83Z" fill="#6BA7D0"/>
<path d="M134.295 51.0155C134.295 51.0529 134.295 51.0902 134.295 51.1276C134.295 51.165 134.295 51.202 134.295 51.2393C134.295 51.2767 134.295 51.3141 134.295 51.3511C134.295 51.4258 134.257 51.5002 134.257 51.5749C134.257 51.6123 134.257 51.6497 134.219 51.6497C134.144 51.8732 134.069 52.1344 133.918 52.3582C133.316 53.3654 131.773 53.6262 131.773 53.6262L131.058 55.4163C131.058 55.4163 130.908 55.7892 130.644 56.0875C130.607 56.1248 130.531 56.1992 130.494 56.2366C130.456 56.2739 130.456 56.2739 130.419 56.3113C130.381 56.3487 130.306 56.3857 130.269 56.3857C130.269 56.3857 130.23 56.3857 130.23 56.423C130.193 56.423 130.193 56.4604 130.155 56.4604C130.118 56.4978 130.042 56.4978 130.005 56.4978C129.252 56.6469 127.296 56.3857 126.769 56.0505C126.242 55.7149 126.393 55.0437 126.393 55.0437L127.371 53.8874C126.43 53.4027 126.656 53.5518 126.28 50.9415C126.054 49.3005 126.957 47.7343 127.597 46.7646L128.349 46.2425C128.349 46.2425 128.124 47.0258 129.139 47.4357C130.118 47.8461 132.752 47.2493 132.752 47.2493C132.752 47.2493 132.714 48.1443 132.187 49.1141C131.66 50.1208 132.375 51.5379 132.375 51.5379L132.677 51.687C132.677 51.687 132.677 51.6497 132.714 51.0902C132.752 50.5308 133.166 50.4191 133.805 50.3443C133.881 50.3443 133.919 50.3443 133.956 50.3443H133.994C134.032 50.3443 134.069 50.3817 134.107 50.4191C134.107 50.4191 134.107 50.4191 134.144 50.4564C134.182 50.4938 134.22 50.4938 134.22 50.5312C134.22 50.5312 134.22 50.5685 134.258 50.5685C134.295 50.6059 134.295 50.6433 134.333 50.7176C134.333 50.755 134.333 50.755 134.333 50.7924C134.333 50.8298 134.333 50.8671 134.37 50.9041C134.295 50.9411 134.295 50.9781 134.295 51.0155ZM154.802 54.3348C154.237 53.738 154.689 53.5141 154.425 53.1041C154.387 53.0668 154.35 53.0294 154.312 52.955C153.823 52.433 152.205 53.5145 152.205 53.5145C152.205 53.5145 151.49 53.0671 151.039 53.7757C150.625 54.4842 149.533 55.6405 149.533 55.6405L149.609 55.827L150.7 58.4003C150.7 58.4003 153.936 57.2441 154.764 56.6476C155.629 56.0871 155.441 54.9682 154.802 54.3348ZM111.304 42.8115C111.078 42.7741 110.927 42.8115 110.927 42.8115C110.927 42.8115 111.191 41.73 110.626 41.4318C110.062 41.1705 109.723 41.7303 109.723 41.7303C109.723 41.7303 108.82 41.7677 108.632 42.1033C108.632 42.1033 107.955 42.0286 107.842 42.3645C107.842 42.3645 107.127 42.3645 107.089 42.9983C107.051 43.6321 107.428 44.5272 108.03 44.8631L109.159 46.2802C109.159 46.2802 109.61 44.9749 111.078 44.6767C111.266 44.6393 111.454 44.6019 111.68 44.6393C111.68 44.6393 111.943 44.2663 111.793 43.7069C111.567 43.1467 111.529 42.8859 111.304 42.8115Z" fill="#FFD2BB"/>
<path d="M84.9643 149.952V149.989L84.9266 150.027C84.8889 150.064 84.8512 150.101 84.7761 150.138L84.7011 150.176L84.6257 150.213L84.588 150.251C84.5503 150.251 84.5503 150.288 84.5126 150.288L84.4375 150.326L84.3244 150.363L84.2116 150.401L84.0989 150.438L84.0235 150.475H83.9858L83.9104 150.513L83.7976 150.551L83.6845 150.588L83.5717 150.625H83.459H83.3463H83.2331H83.1204H83.0076H82.8945H82.7441H82.6313H82.5182H82.4055H82.2927H82.18L82.0668 150.588L81.9541 150.551L81.8413 150.513H81.7659C81.7282 150.513 81.6905 150.475 81.6905 150.475L81.6528 150.438L81.5397 150.401L81.4269 150.363L81.3142 150.326L81.2765 150.288C81.2388 150.288 81.2015 150.251 81.1637 150.251L81.126 150.213L81.0506 150.176L80.9752 150.138C80.9375 150.101 80.8625 150.064 80.8248 150.027L80.7871 149.989L80.7493 149.952L80.7871 149.914L80.8248 149.877L80.9002 149.802L80.9756 149.765L81.051 149.727L81.1264 149.69L81.2018 149.653L81.3146 149.615L81.4273 149.577L81.5401 149.54L81.6532 149.503L81.7659 149.465L81.8787 149.428L81.9914 149.39L82.1045 149.353L82.2173 149.315H82.33H82.4428H82.5559H82.6687H82.7814H82.9319H83.0446H83.1573H83.2705H83.3832H83.496H83.6087L83.7218 149.353L83.8346 149.39L83.9473 149.428L84.0601 149.465L84.1732 149.503L84.2859 149.54L84.3987 149.577L84.5114 149.615L84.6245 149.653L84.7 149.69L84.775 149.727L84.8504 149.765L84.9258 149.802L85.0012 149.877L84.9643 149.952ZM118.905 81.4834L111.04 85.9585L110.627 86.4059C110.627 86.7788 110.589 87.0397 110.589 87.0397L110.062 87.2635C110.025 87.7109 109.912 88.6806 109.648 89.4636C109.272 90.5077 107.541 91.4775 107.09 90.2838C107.09 90.2838 106.713 89.5753 106.375 88.6059L81.5778 102.74L95.6883 110.795C95.726 110.683 104.568 96.6615 118.905 81.4834ZM66.5265 147.565L66.3383 147.416L66.1501 147.267L65.962 147.118L65.7361 146.969L65.5106 146.857L65.2848 146.745L65.0593 146.633L64.7957 146.521L64.5321 146.409L64.2685 146.334L64.005 146.26L63.7041 146.186L63.4405 146.111L63.1396 146.074L62.8383 146.036L62.5374 145.998L62.2365 145.961L61.9352 145.924H61.6343H61.2957H60.9571H60.6562L60.3553 145.961L60.054 145.998L59.7531 146.036L59.4522 146.074L59.1509 146.111L58.85 146.186L58.5864 146.26L58.3228 146.334L58.0593 146.409L57.7957 146.521L57.5325 146.633L57.3066 146.745L57.0808 146.857L56.8553 146.969L56.6294 147.118L56.4039 147.267L56.2157 147.416L56.0276 147.565L55.8771 147.714L55.8017 147.789C55.8394 147.826 55.9148 147.901 55.9522 147.938L56.0276 148.012L56.1403 148.124C56.178 148.161 56.2531 148.198 56.2908 148.273L56.3658 148.348L56.5917 148.497L56.8176 148.646C57.0808 148.795 57.382 148.944 57.7206 149.093H57.7584H57.7961C58.8123 149.503 60.0163 149.727 61.2957 149.727C62.3492 149.727 63.3651 149.578 64.2308 149.317L64.3059 149.28H64.3436C64.494 149.242 64.6072 149.168 64.7576 149.131L64.8327 149.093L64.9458 149.056C65.2844 148.907 65.623 148.758 65.9239 148.571L65.9993 148.533L66.1875 148.385L66.3379 148.272C66.3756 148.235 66.4133 148.198 66.4507 148.16L66.5638 148.086L66.6388 148.049C66.7143 148.011 66.752 147.937 66.827 147.862L66.752 147.787L66.5265 147.565ZM211.131 127.129L100.316 191.831L12.8311 141.859L57.7591 116.277L56.5924 118.253L63.629 122.281L109.159 148.311C114.841 134.364 127.446 109.639 142.686 87.5621L211.131 127.129ZM69.6117 156.59L72.9605 154.613L73.0736 154.539L73.149 154.464L73.1867 154.39V154.315V151.555H74.6543H74.8048H74.9552L75.0683 151.518L75.1811 151.481L75.2938 151.443L75.3692 151.369L75.4069 151.294L75.4447 151.182V148.385V147.303V144.507C75.4447 144.432 75.4069 144.32 75.3319 144.283V144.245H75.2942C75.2188 144.208 75.1437 144.171 75.0687 144.134L74.9933 144.096H74.8805C74.8051 144.096 74.7301 144.059 74.6547 144.059H73.1871V141.299V141.224L73.1494 141.15L73.0744 141.076L72.9612 141.001L69.6124 139.024L69.4997 138.987L69.3869 138.949C69.3492 138.949 69.3492 138.949 69.3115 138.949H69.1988H69.1611C69.0857 138.949 69.0483 138.949 68.9729 138.949H68.8975H68.8225C68.7848 138.949 68.7471 138.949 68.7093 138.987L68.5966 139.024L68.4839 139.062L66.1132 140.479L66.0004 140.441L65.8877 140.404L65.8123 140.366L65.6995 140.329L65.5868 140.292L65.4737 140.254H65.3986C65.3232 140.217 65.2105 140.217 65.1351 140.179H65.0596H65.0219C64.9842 140.179 64.9469 140.179 64.9092 140.142H64.8715L64.7584 140.105H64.6833C64.6833 140.105 64.6833 140.105 64.6456 140.105L64.5702 140.067H64.5325C64.4571 140.067 64.4197 140.03 64.382 140.03H64.2693V137.979V137.904C64.2693 137.867 64.2316 137.83 64.1939 137.755L64.1562 137.718C64.0057 137.606 63.7799 137.531 63.5167 137.531H58.813C58.399 137.531 58.0604 137.755 58.0604 137.979V139.992H57.9476C57.9099 139.992 57.8349 140.03 57.7972 140.03H57.7218L57.6467 140.067H57.609H57.5336L57.4209 140.105C57.3832 140.105 57.3081 140.142 57.2704 140.142H57.2327H57.1946C57.0815 140.179 57.0065 140.179 56.8933 140.217H56.8556L56.7429 140.254L56.6298 140.292L56.517 140.329L56.4043 140.367L56.2915 140.404L56.2161 140.441L53.8455 139.024L53.7327 138.987L53.62 138.95C53.5823 138.95 53.5823 138.95 53.5445 138.95H53.4318H53.3941C53.3191 138.95 53.2813 138.95 53.2059 138.95H53.1309H53.0555C53.0178 138.95 52.9801 138.95 52.9424 138.987L52.8296 139.024L52.7169 139.062L49.3681 141.038L49.2553 141.113C49.1422 141.188 49.1049 141.299 49.1422 141.411V144.134H47.6373C47.5619 144.134 47.4868 144.134 47.4491 144.134H47.3737L47.2983 144.171C47.2229 144.208 47.1479 144.208 47.1101 144.245L47.0347 144.283L46.9593 144.357L46.9216 144.432V144.544V147.341V148.311V151.108V151.22L46.9593 151.294L47.0347 151.369L47.1101 151.406L47.2229 151.444L47.3356 151.481H47.4861H47.6366H49.1415V154.241V154.315L49.1792 154.39L49.2546 154.464L49.3673 154.539L52.7161 156.515L52.8289 156.553L52.9793 156.59L53.1298 156.628H53.2802H53.4307L53.5811 156.59L53.6939 156.553L53.8066 156.515L56.1773 155.098L56.2527 155.136L56.3655 155.173L56.4786 155.211L56.5913 155.248L56.7041 155.285L56.8168 155.323H56.9299L57.0427 155.361L57.1554 155.398L57.2682 155.435H57.3813L57.494 155.473L57.6068 155.51H57.7195L57.8327 155.548H57.9454L58.0581 155.585H58.1709V157.599V157.673L58.2086 157.748L58.284 157.823L58.3968 157.897L58.5095 157.934L58.6226 157.972L58.7731 158.009H58.9235H63.6272H63.7776L63.9281 157.972L64.0785 157.934L64.1913 157.897L64.304 157.823L64.3794 157.748L64.4171 157.673V157.599V155.585H64.5299L64.6426 155.548H64.7554L64.8685 155.51H64.9812L65.094 155.473L65.2067 155.435H65.3199L65.4326 155.398L65.5453 155.361L65.6585 155.323H65.7712L65.884 155.285L65.9967 155.248L66.1098 155.211L66.1849 155.173L66.298 155.136L66.4107 155.098L68.7814 156.515L68.8941 156.553L69.0446 156.59L69.1951 156.628H69.3455H69.496L69.6464 156.59L69.7592 156.553L69.6117 156.59ZM86.8078 159.536V159.499C86.8078 159.461 86.7701 159.461 86.7701 159.461L86.7324 159.424H86.6947L86.657 159.386L86.6193 159.349H86.5816C86.5061 159.311 86.4688 159.311 86.3934 159.311H85.5657V157.745V157.708L85.528 157.67C85.528 157.67 85.528 157.67 85.528 157.633L85.4903 157.595L85.4526 157.558L83.571 156.439L83.4956 156.402H83.4579C83.3825 156.364 83.3448 156.364 83.2697 156.364C83.1943 156.364 83.1566 156.364 83.0816 156.402H83.0065L82.9688 156.439L81.6144 157.222H81.5767C81.5012 157.222 81.4639 157.185 81.3885 157.185H81.3508H81.3131H81.2754H81.2377H81.2H81.1623H81.1245H81.0868H81.0491C80.9737 157.147 80.8987 157.147 80.7856 157.147H80.7479V156.029V155.991V155.954L80.7102 155.916L80.6724 155.879C80.6724 155.879 80.6724 155.879 80.6347 155.879L80.597 155.842H80.5593C80.5216 155.842 80.5216 155.842 80.4843 155.842H80.4466H80.1457H77.4741H77.3614L77.2859 155.879H77.2482H77.2105L77.1351 155.916L77.0974 155.954L77.0597 155.991L77.022 156.029V156.066V157.185H76.9843C76.9089 157.185 76.8338 157.222 76.7207 157.222H76.683H76.6453H76.6076H76.5699H76.5322H76.4945H76.4568H76.4191L76.3813 157.26C76.3436 157.26 76.3436 157.26 76.3059 157.26H76.272H76.2346H76.1969L74.8425 156.477L74.7671 156.439H74.7293C74.6539 156.402 74.6166 156.402 74.5412 156.402C74.4658 156.402 74.4281 156.402 74.353 156.439H74.3153L74.2399 156.477L72.3587 157.595L72.321 157.633L72.2833 157.67C72.2833 157.67 72.2833 157.67 72.2833 157.708L72.2456 157.745V157.783V159.349H71.4179C71.3425 159.349 71.2674 159.349 71.2297 159.386H71.192L71.1543 159.424C71.1543 159.424 71.1166 159.424 71.1166 159.461H71.0789L71.0412 159.499L71.0035 159.536V159.573V159.611V161.214V161.736V163.34V163.377L71.0412 163.415L71.0789 163.452L71.1166 163.49L71.1543 163.527L71.2297 163.565H71.3051H71.3805H72.2082V165.131V165.168L72.2459 165.206L72.2836 165.243L72.3213 165.281L74.2029 166.399L74.2784 166.437L74.3538 166.474H74.4288H74.5042H74.5796H74.6551L74.7305 166.437L74.8059 166.399L76.1603 165.616H76.198H76.2357H76.2735H76.3112H76.3489H76.3866H76.4243H76.462H76.4997H76.5374H76.5751H76.6128H76.6505H76.6882H76.7259H76.7636H76.8013H76.8391V166.772V166.81L76.8768 166.847L76.9145 166.885L76.9522 166.922L77.0272 166.959L77.1026 166.997H77.178H77.2908H79.9624H80.0378H80.1132L80.1882 166.959L80.2636 166.922L80.3013 166.885L80.3391 166.847V166.81V166.772V165.616H80.3768H80.4145H80.4522H80.4899H80.5276H80.5653H80.603H80.6407H80.6784H80.7161H80.7538H80.7915H80.8292H80.867H80.9047H80.9424H80.9801H81.0133L82.3678 166.399L82.4055 166.437L82.4809 166.474H82.5563H82.6317H82.7071H82.7822L82.8576 166.437L82.933 166.399L84.8146 165.281L84.8523 165.243L84.89 165.206L84.9277 165.168V165.131V163.565H85.7554H85.8685H85.9435L86.019 163.527L86.0567 163.49L86.0944 163.452L86.1321 163.415L86.1698 163.377V163.34V161.736V161.103V159.536H86.8078V159.536ZM88.3881 148.721C88.3881 148.684 88.3881 148.647 88.3504 148.647V148.609L88.3127 148.571H88.275H88.2373H88.1996H88.1619H88.1242H87.5597V147.49V147.453L87.522 147.415C87.522 147.378 87.4843 147.378 87.4466 147.341L86.1295 146.558C86.0917 146.558 86.054 146.52 86.0167 146.52C85.979 146.52 85.979 146.52 85.9413 146.52H85.9036H85.8659C85.8282 146.52 85.8282 146.52 85.7905 146.52H85.7528C85.7151 146.52 85.715 146.52 85.6773 146.558L84.7365 147.117H84.6988H84.6611H84.6234H84.5857H84.548H84.5103H84.4726H84.4349H84.3972H84.3595H84.3218H84.2841H84.2464H84.2087H84.1709H84.1332H84.0955H84.0578V146.334C84.0578 146.297 84.0201 146.26 84.0201 146.26C83.9824 146.222 83.8697 146.185 83.7565 146.185H81.9127C81.7999 146.185 81.7245 146.222 81.6495 146.26C81.6117 146.297 81.6117 146.334 81.6117 146.334V147.117H81.574H81.5363H81.4986H81.4609H81.4232H81.3855H81.3478H81.3101H81.2724H81.2347H81.197H81.1593H81.1216H81.0839H81.0461H81.0133H80.9756L80.0348 146.558C79.9971 146.558 79.9971 146.52 79.9594 146.52H79.9217H79.884C79.8463 146.52 79.8463 146.52 79.8085 146.52H79.7708H79.7331C79.6954 146.52 79.6954 146.52 79.6581 146.52C79.6204 146.52 79.5827 146.558 79.545 146.558L78.2282 147.341C78.1905 147.341 78.1905 147.378 78.1528 147.415L78.1151 147.453V147.49V148.571H77.5506H77.5129H77.4752H77.4375H77.3998H77.3621L77.3244 148.609V148.647C77.2867 148.684 77.2867 148.684 77.2867 148.721V149.802V150.175V151.257V151.295V151.332L77.3244 151.369H77.3621L77.3998 151.407H77.4375H77.4752H77.5129H78.0774V152.488V152.526L78.1151 152.563L78.1528 152.601L78.1905 152.638L79.5076 153.421H79.5453L79.5831 153.459H79.6208H79.6585H79.6962H79.7339L79.7716 153.421H79.8093L80.7501 152.862H80.7878H80.8255H80.8632H80.9009H80.9386H80.9763H81.0133H81.051H81.0887H81.1264H81.1641H81.2018H81.2395H81.2772H81.3149H81.3527H81.3904H81.4281V153.645V153.682V153.72L81.4658 153.757L81.5035 153.795H81.5412H81.5789H81.6166H81.6543H83.4978H83.5355H83.5732H83.6109H83.6487L83.6864 153.757L83.7241 153.72V153.682V153.645V152.862H83.7618H83.7995H83.8372H83.8749H83.9126H83.9503H83.988H84.0257H84.0634H84.1011H84.1388H84.1766H84.2143H84.252H84.2897H84.3274H84.3651H84.4028L85.3436 153.421H85.3813L85.419 153.459H85.4567H85.4944H85.5321H85.5698L85.6075 153.421H85.6452L86.962 152.638L86.9997 152.601L87.0374 152.563L87.0751 152.526V151.444H87.6396H87.6773H87.715H87.7527L87.7904 151.407H87.8281L87.8658 151.369V151.332V151.295V150.213V149.84V148.721H88.3881V148.721ZM113.11 163.563C113.035 163.452 112.96 163.303 112.884 163.19C112.809 163.041 112.734 162.93 112.621 162.781C110.476 159.536 105.885 156.963 102.085 156.963C100.091 156.963 98.6985 157.634 98.0586 158.79L97.3813 159.983L97.2686 160.207L97.1932 160.431L97.1178 160.654L97.0801 160.915L97.0424 161.176V161.214C96.1393 161.437 95.2739 161.773 94.5212 162.221C92.7905 163.19 91.9624 164.495 91.9624 165.801C91.9624 165.838 91.9624 165.875 91.9624 165.913V167.143V167.404V167.554C91.9247 167.703 91.9247 167.814 91.9247 167.963C91.9247 168.001 91.9247 168.038 91.9247 168.076V169.306V169.567V169.716C91.9247 169.865 91.887 169.977 91.887 170.126C91.887 170.164 91.887 170.201 91.887 170.238V171.469V171.73L91.9247 171.991L91.9624 172.214L92.0378 172.475L92.1506 172.699L92.2633 172.923L92.3764 173.146L92.5269 173.37L92.6773 173.593L92.8655 173.817L93.091 174.04L93.3169 174.264L93.5804 174.488L93.844 174.674L94.1449 174.898L94.4458 175.084L94.7844 175.271L95.1231 175.42L95.4994 175.569L95.8757 175.718L96.252 175.867L96.6283 175.979L97.0047 176.091L97.4183 176.203L97.8323 176.277L98.2464 176.352L98.66 176.426L99.074 176.464L99.4877 176.501L99.9017 176.539H100.316H100.729H101.143H101.557L101.971 176.501L102.385 176.464L102.799 176.426L103.213 176.389L103.626 176.314L104.04 176.24L104.417 176.128L104.793 176.016L105.169 175.904L105.546 175.792L105.922 175.643L106.261 175.494L106.599 175.345L106.901 175.158L107.202 174.972L107.502 174.785L107.766 174.599L107.992 174.375L108.217 174.189L108.406 173.965L108.594 173.741L108.744 173.518L108.895 173.294L109.045 173.071L109.158 172.847L109.271 172.624L109.346 172.4L109.384 172.177L109.422 171.953V171.729V170.648H109.535L109.836 170.61L110.137 170.536L110.4 170.461L110.664 170.387L110.927 170.275L111.191 170.163L111.417 170.014L111.642 169.865L111.83 169.716L112.019 169.567L112.169 169.418L112.32 169.231L112.47 169.045L113.147 167.851C113.975 166.659 113.938 165.204 113.11 163.563ZM160.559 136.564V104.978C160.559 104.866 160.521 104.754 160.409 104.679L153.523 100.801C153.335 100.689 153.071 100.689 152.846 100.801L145.32 105.126C145.207 105.201 145.17 105.313 145.17 105.425V119.298L141.068 116.948C140.843 116.836 140.617 116.836 140.391 116.948L132.828 121.237C132.715 121.311 132.677 121.423 132.677 121.535V133.171L128.576 130.821C128.35 130.709 128.125 130.709 127.899 130.821L120.373 135.147C120.26 135.221 120.223 135.333 120.223 135.445V151.294C120.223 151.406 120.261 151.518 120.373 151.592L127.222 155.508C127.447 155.62 127.673 155.62 127.899 155.508L135.462 151.183C135.575 151.108 135.613 150.996 135.613 150.884V146.036L139.677 148.385C139.902 148.497 140.128 148.497 140.354 148.385L147.917 144.06C148.03 143.985 148.067 143.873 148.067 143.761V138.913L152.169 141.263C152.357 141.375 152.62 141.375 152.809 141.263L160.372 136.937C160.521 136.825 160.559 136.713 160.559 136.564ZM81.7659 161.251L81.6532 161.177L81.5404 161.102L81.4273 161.027L81.3146 160.953L81.2018 160.878L81.0887 160.804L80.9383 160.729L80.7878 160.692L80.6373 160.655L80.4869 160.617L80.3361 160.58L80.1856 160.542L80.0352 160.505L79.8847 160.468L79.7343 160.43H79.5461L79.3956 160.393H79.2075H79.0193H78.8312H78.643H78.4548H78.2667L78.0785 160.43H77.8904L77.7399 160.468L77.5895 160.505L77.439 160.542L77.2882 160.58L77.1377 160.618L76.9873 160.655L76.8368 160.692L76.6864 160.73L76.5359 160.804L76.4232 160.879L76.3104 160.953L76.1973 161.028L76.0091 161.103L75.8964 161.177L75.7836 161.251L75.6705 161.326L75.6328 161.363C75.8587 161.625 76.1973 161.811 76.5736 161.998H76.6113H76.649C76.7621 162.035 76.8749 162.109 77.0253 162.146H77.0631L77.1385 162.184C77.3266 162.221 77.5148 162.296 77.7029 162.333H77.7784C77.8911 162.371 78.0419 162.371 78.1547 162.371H78.2301H78.4183H78.4937C78.6064 162.371 78.6818 162.371 78.7946 162.371C78.9073 162.371 79.0204 162.371 79.0955 162.371H79.1709H79.3214C79.4718 162.371 79.6223 162.333 79.7727 162.296H79.8481C80.0363 162.258 80.2244 162.221 80.4126 162.147L80.488 162.109H80.5257C80.6762 162.072 80.7893 161.998 80.902 161.96H80.9397H80.9775C81.3538 161.774 81.6924 161.587 81.9183 161.326L81.8805 161.289L81.7659 161.251Z" fill="#FF4C2E"/>
<path d="M117.287 68.8039L116.647 66.6408L125.151 57.7653L126.054 56.5717L127.145 56.2734L127.635 56.9072L126.92 58.5108L120.561 67.4985L117.287 68.8039ZM127.446 77.3065C127.296 77.2321 127.145 77.12 126.957 77.0082C126.919 76.9709 126.882 76.9335 126.807 76.8965C126.694 76.8218 126.581 76.7474 126.468 76.6353C126.43 76.5979 126.393 76.5605 126.318 76.5235C126.205 76.4114 126.092 76.3371 125.979 76.225C125.941 76.1876 125.904 76.1502 125.866 76.1132C124.286 74.5844 122.969 72.4213 121.689 71.079C121.351 70.706 120.974 70.3704 120.636 70.1466C118.641 68.916 116.76 71.1537 116.76 71.1537L114.917 70.2213L111.831 68.6551C109.912 68.3195 108.407 67.6853 106.789 69.401C105.509 70.706 101.37 77.3068 99.564 80.1784L102.348 83.1991C104.268 80.7005 108.67 75.2185 109.761 75.2933C111.191 75.405 111.642 75.6662 112.545 75.9645L108.293 82.267C108.293 82.267 109.121 81.782 109.949 82.4162C110.551 82.9012 110.589 85.2134 110.551 86.3692L110.965 85.9219L118.829 77.3819C118.829 77.3819 119.619 78.4634 120.673 79.545C121.388 80.2909 122.253 81.0368 122.968 81.3724C124.736 82.1183 127.145 80.7012 127.671 80.5521C127.935 80.44 128.086 79.0233 128.123 77.7179C127.973 77.5673 127.71 77.4556 127.446 77.3065Z" fill="#E84393"/>
<path d="M97.0053 81.4459C98.322 81.8933 98.7738 81.5951 98.7738 81.5951L101.483 84.4666C101.483 84.4666 100.768 86.2193 100.091 86.5175C99.4137 86.8161 98.4352 86.5549 97.6452 85.2869C96.8549 84.0189 95.9144 83.6086 95.9144 83.6086C93.2428 82.7136 93.2428 80.1032 93.807 79.842C94.4091 79.5812 95.6886 80.9609 97.0053 81.4459ZM107.052 90.2838C107.503 91.4774 109.235 90.5076 109.611 89.4635C109.874 88.7176 109.987 87.7482 110.025 87.2635C110.025 87.1144 110.025 87.0022 110.025 87.0022C110.025 87.0022 110.138 85.5104 109.799 84.2428C109.498 83.1613 108.558 82.4901 108.332 82.341L108.294 82.3036C108.294 82.3036 107.579 81.5203 106.187 83.8325C105.359 85.1748 105.811 87.1887 106.3 88.5685C106.676 89.5756 107.052 90.2838 107.052 90.2838ZM88.5392 46.6149L89.5928 47.2117C89.5551 47.2117 89.5551 47.1743 89.5551 47.1743L89.5174 47.137C89.5174 47.137 89.5174 47.137 89.5174 47.0996C89.5174 47.0622 89.5174 47.0249 89.5174 47.0249V39.9767C89.5174 39.7529 89.6301 39.5664 89.8183 39.4547L96.3281 35.7254C96.3658 35.6881 96.4412 35.6881 96.4785 35.6881C96.5159 35.6881 96.5913 35.6881 96.629 35.7254L95.5754 35.1286C95.4627 35.0912 95.3873 35.0912 95.2745 35.1286L88.7647 38.8578C88.5765 38.97 88.4634 39.1564 88.4634 39.3799V46.428C88.3884 46.5032 88.4261 46.5402 88.5392 46.6149ZM65.3978 55.4531L66.9027 56.3107C66.9027 56.3107 66.865 56.3107 66.865 56.2734C66.865 56.2734 66.865 56.2734 66.865 56.236C66.865 56.236 66.865 56.236 66.865 56.1986V56.1613V45.8686C66.865 45.5704 67.0154 45.2718 67.279 45.1227L76.799 39.6781C76.8367 39.6408 76.8744 39.6408 76.9118 39.6408C77.0249 39.6034 77.1376 39.6408 77.213 39.6781L75.7078 38.8205C75.5573 38.7457 75.4442 38.7457 75.2564 38.8205L65.7364 44.265C65.4732 44.4141 65.3227 44.6754 65.3227 45.0109V55.3036C65.2096 55.2666 65.2473 55.3783 65.3978 55.4531ZM111.868 68.6917L114.954 70.2579C114.578 66.5287 121.652 58.1378 121.652 58.1378C121.652 58.1378 120.711 59.2563 119.544 60.8599C119.544 60.8599 121.238 56.8324 121.501 56.5712C121.764 56.3104 122.856 56.3104 122.856 56.3104L122.329 55.3032C122.329 55.3032 123.307 54.5947 124.135 54.5573C124.963 54.5199 126.318 55.042 126.318 55.042C126.318 55.042 124.624 53.8114 124.474 53.737C124.324 53.6623 121.539 53.5132 119.244 52.0961C116.948 50.679 114.276 48.3295 113.486 47.1736C112.696 46.0173 111.643 44.675 111.643 44.675C111.643 44.675 111.868 44.9732 112.169 45.3835C111.793 45.4209 111.342 45.4579 111.04 45.5326C110.439 45.7191 109.648 47.0245 109.611 47.0615C110.702 48.7024 113.261 52.4317 114.615 53.8114C116.421 55.5641 120.335 58.0253 120.335 58.0253C120.335 58.0253 111.793 65.8194 107.466 65.2226L111.341 68.4297L111.868 68.6917ZM100.467 163.19C98.9996 160.654 100.166 158.604 103.064 158.604C105.886 158.604 109.272 160.505 110.853 162.892C110.89 163.004 110.966 163.079 111.041 163.19C111.078 163.303 111.154 163.377 111.191 163.452C112.433 165.838 111.229 167.74 108.407 167.74C105.472 167.777 101.935 165.726 100.467 163.19ZM100.73 163.488C102.085 165.8 105.321 167.665 107.993 167.665C110.552 167.665 111.643 165.912 110.514 163.749C110.476 163.675 110.439 163.6 110.364 163.488C110.326 163.376 110.251 163.302 110.213 163.227C108.783 161.064 105.66 159.312 103.101 159.312C100.467 159.274 99.376 161.176 100.73 163.488ZM186.334 44.3401C182.873 45.3099 169.251 49.5238 152.431 60.9724C151.942 61.308 151.415 61.6436 150.926 62.0165L150.889 62.0539C150.399 62.3895 149.91 62.7624 149.384 63.098L149.346 63.1354C145.809 65.6714 142.121 68.5426 138.396 71.7497C138.321 71.8245 138.246 71.8618 138.171 71.9362C137.719 72.3092 137.305 72.6821 136.853 73.0925C136.741 73.2042 136.59 73.3163 136.477 73.4281C136.063 73.801 135.649 74.174 135.235 74.5469C135.085 74.696 134.934 74.8452 134.746 74.9943C134.37 75.3672 133.956 75.7028 133.58 76.0758C133.391 76.2249 133.241 76.4114 133.053 76.5605C132.677 76.9334 132.3 77.269 131.887 77.642C131.698 77.8285 131.51 78.0149 131.322 78.2014C131.247 78.2762 131.209 78.3135 131.134 78.3879C130.419 76.9334 129.44 74.3231 130.231 71.9362C130.494 71.1903 130.607 70.5939 130.645 70.0344C130.833 68.0205 130.005 67.1255 131.585 64.9625C133.58 62.2404 134.445 61.2332 134.445 61.2332C134.445 61.2332 137.681 61.5688 141.557 61.1959C144.341 60.9346 147.427 60.3008 149.835 58.9211C148.894 57.8769 148.405 55.863 148.405 55.863C148.443 55.863 148.443 55.863 148.443 55.863C146.675 56.1616 143.062 56.6837 141.218 56.7207C138.697 56.7207 130.569 56.0869 130.569 56.0869C130.569 56.0869 130.983 56.1243 131.698 56.1986C131.698 56.1986 130.532 57.6531 130.87 58.8094L129.704 58.4364L130.231 60.3756L124.887 64.7012C123.608 67.1998 122.253 69.9223 121.689 71.0408C122.968 72.3832 124.286 74.5466 125.866 76.0754C125.904 76.1128 125.941 76.1498 125.979 76.1871C126.092 76.2989 126.204 76.3736 126.318 76.4854C126.355 76.5227 126.393 76.5601 126.468 76.5971C126.581 76.6718 126.694 76.7836 126.807 76.8583C126.844 76.8957 126.882 76.9331 126.957 76.9704C127.107 77.0822 127.258 77.1939 127.446 77.2687C128.801 78.0146 129.854 78.5736 130.607 78.9096C130.494 79.0217 130.344 79.1708 130.23 79.2826C130.042 79.469 129.854 79.6555 129.666 79.842C129.29 80.215 128.913 80.5879 128.537 80.9982C128.349 81.1847 128.161 81.3712 127.973 81.5577C127.597 81.9677 127.22 82.341 126.806 82.7509C126.618 82.9374 126.468 83.1239 126.28 83.3104C125.866 83.7203 125.49 84.168 125.075 84.5784C124.962 84.7275 124.812 84.8392 124.699 84.9883C123.307 86.5172 121.914 88.0837 120.522 89.7243C120.372 89.9108 120.221 90.0599 120.071 90.2464C119.732 90.6567 119.356 91.0667 119.017 91.5144C118.792 91.7756 118.566 92.0365 118.34 92.2977C118.002 92.7076 117.7 93.081 117.362 93.4909C117.136 93.7895 116.872 94.0877 116.647 94.386C116.346 94.7963 116.007 95.1693 115.706 95.5796C115.443 95.9152 115.179 96.2508 114.953 96.549C114.652 96.9593 114.351 97.3323 114.05 97.7426C113.787 98.0782 113.523 98.4512 113.26 98.7867C112.959 99.1971 112.658 99.57 112.395 99.9804C112.131 100.353 111.868 100.726 111.604 101.099C111.303 101.509 111.04 101.882 110.739 102.292C110.476 102.665 110.175 103.075 109.911 103.486C109.648 103.896 109.347 104.269 109.084 104.679C108.782 105.089 108.519 105.5 108.256 105.947C107.992 106.357 107.729 106.73 107.466 107.14C107.164 107.588 106.864 108.035 106.563 108.52C106.337 108.893 106.073 109.266 105.848 109.639C105.509 110.161 105.17 110.683 104.869 111.205C104.681 111.54 104.455 111.839 104.267 112.174C103.74 113.032 103.213 113.927 102.687 114.785L95.6501 110.757L81.5396 102.702L76.6478 99.9053L73.4495 105.425L63.6659 122.244L109.196 148.273C114.878 134.326 127.483 109.601 142.723 87.5247C156.495 67.5362 172.411 49.7103 187.237 44.0793C187.2 44.1163 186.899 44.191 186.334 44.3401ZM113.298 167.702L112.621 168.896L112.471 169.082L112.321 169.269L112.17 169.418L111.982 169.567L111.794 169.716L111.568 169.865L111.342 170.014L111.079 170.126L110.815 170.238L110.552 170.313L110.288 170.387L109.987 170.462L109.686 170.499H109.573V171.581V171.804L109.535 172.028L109.498 172.251L109.422 172.475L109.31 172.698L109.197 172.922L109.046 173.146L108.896 173.369L108.746 173.593L108.557 173.816L108.369 174.04L108.143 174.226L107.918 174.45L107.654 174.636L107.353 174.823L107.052 175.009L106.751 175.196L106.413 175.345L106.074 175.494L105.698 175.643L105.321 175.755L104.945 175.867L104.569 175.979L104.192 176.091L103.778 176.166L103.364 176.24L102.951 176.277L102.537 176.315L102.123 176.352L101.709 176.39H101.295H100.881H100.467H100.054L99.6395 176.352L99.2255 176.315L98.8119 176.277L98.3978 176.203L97.9842 176.129L97.5702 176.054L97.1561 175.942L96.7798 175.83L96.4035 175.718L96.0272 175.569L95.6508 175.42L95.2745 175.271L94.9359 175.122L94.5973 174.935L94.2964 174.749L93.9951 174.525L93.7319 174.339L93.4683 174.115L93.2425 173.892L93.017 173.668L92.8288 173.445L92.6784 173.221L92.5279 172.997L92.4152 172.774L92.1897 172.662L92.0765 172.438L92.0011 172.177L91.9634 171.953L91.9257 171.693V171.431V170.201C91.9257 170.163 91.9257 170.126 91.9257 170.089C91.9257 169.94 91.9257 169.828 91.9634 169.679V169.53V169.269V168.038C91.9634 168.001 91.9634 167.964 91.9634 167.926C91.9634 167.777 91.9634 167.665 92.0011 167.516V167.367V167.106V165.876C92.0011 165.838 92.0011 165.801 92.0011 165.764C92.0011 165.838 92.0011 165.913 92.0011 166.025C92.0011 166.099 92.0011 166.174 92.0389 166.248C92.0389 166.323 92.0765 166.397 92.0765 166.509C92.0765 166.584 92.1143 166.658 92.152 166.733C92.1897 166.808 92.1897 166.882 92.2647 166.994C92.3024 167.068 92.3401 167.143 92.3778 167.217C92.4155 167.292 92.4529 167.367 92.4906 167.441C92.5283 167.516 92.6033 167.59 92.641 167.664C92.6787 167.739 92.7538 167.814 92.7915 167.888C92.8669 167.963 92.9042 168.037 92.9796 168.112C93.0174 168.149 93.0551 168.186 93.0928 168.224C93.1305 168.261 93.1678 168.298 93.2055 168.336C93.2809 168.41 93.356 168.485 93.431 168.559C93.5064 168.634 93.5815 168.708 93.6946 168.783C93.77 168.857 93.8827 168.932 93.9582 169.006C94.0709 169.081 94.1463 169.118 94.2591 169.193C94.3722 169.267 94.4849 169.305 94.5603 169.379C94.6731 169.417 94.7858 169.492 94.8989 169.566C95.0117 169.603 95.1244 169.678 95.2376 169.715C95.3507 169.752 95.4634 169.827 95.6139 169.864C95.727 169.901 95.8398 169.976 95.9902 170.013C96.103 170.051 96.2538 170.125 96.3665 170.162C96.4793 170.2 96.6301 170.237 96.7428 170.274C96.8183 170.311 96.8556 170.311 96.931 170.311C97.0064 170.349 97.0438 170.349 97.1192 170.349C97.2319 170.387 97.3827 170.424 97.5332 170.461C97.6459 170.498 97.7968 170.535 97.9468 170.573C98.06 170.61 98.2104 170.61 98.3609 170.647C98.5113 170.684 98.6245 170.685 98.7749 170.722C98.8499 170.722 98.9253 170.76 99.0004 170.76C99.0754 170.76 99.1508 170.797 99.2263 170.797C99.3767 170.797 99.4895 170.834 99.6399 170.834C99.7904 170.834 99.9412 170.872 100.054 170.872C100.204 170.872 100.318 170.872 100.468 170.909C100.543 170.909 100.618 170.909 100.693 170.909C100.769 170.909 100.844 170.909 100.919 170.909C100.994 170.909 101.069 170.909 101.145 170.909C101.22 170.909 101.295 170.909 101.37 170.909C101.521 170.909 101.634 170.909 101.784 170.909C101.935 170.909 102.048 170.872 102.198 170.872C102.349 170.872 102.462 170.834 102.612 170.834C102.762 170.834 102.876 170.797 103.026 170.797C103.176 170.797 103.29 170.76 103.44 170.722C103.553 170.722 103.703 170.685 103.854 170.648C104.004 170.611 104.117 170.61 104.268 170.573C104.418 170.536 104.531 170.499 104.644 170.461C104.795 170.424 104.908 170.387 105.02 170.349C105.171 170.312 105.284 170.275 105.397 170.237C105.472 170.2 105.547 170.2 105.585 170.163L105.284 170.088L104.908 169.939L104.531 169.79L104.155 169.641L103.779 169.455L103.44 169.306C102.65 169.492 101.784 169.567 100.919 169.567C101.747 169.567 102.612 169.455 103.365 169.268L102.989 169.045L102.612 168.821L102.236 168.598L101.897 168.374L101.521 168.15L101.183 167.889L100.844 167.628L100.543 167.367L100.242 167.106L99.9408 166.845L99.6395 166.584L99.3763 166.286L99.1128 165.987L98.8492 165.689L98.5856 165.39L98.3598 165.092L98.1343 164.793L97.9461 164.495L97.7579 164.159L97.6075 163.861L97.4947 163.562L97.4193 163.414C97.1558 163.525 96.8548 163.637 96.629 163.786C94.296 165.129 94.3337 167.255 96.6667 168.597C97.5698 169.119 98.6987 169.418 99.865 169.567C98.5479 169.455 97.3062 169.082 96.2904 168.522C93.7315 167.068 93.7315 164.719 96.2527 163.264C96.5536 163.078 96.8922 162.929 97.2685 162.817L97.2308 162.668L97.1931 162.369L97.1554 162.071V161.81V161.549L97.1931 161.325V161.288L97.2308 161.027L97.2685 160.766L97.3439 160.542L97.4193 160.318L97.5321 160.095L98.2093 158.901C98.1716 158.976 98.1339 159.05 98.0962 159.125C98.0585 159.2 98.0208 159.274 97.9834 159.349C97.9457 159.423 97.9457 159.498 97.908 159.572C97.8703 159.647 97.8703 159.721 97.8326 159.796C97.8326 159.87 97.7949 159.982 97.7949 160.057C97.7949 160.131 97.7949 160.206 97.7949 160.318C97.7949 160.355 97.7949 160.392 97.7949 160.467C97.7949 160.504 97.7949 160.542 97.7949 160.579C97.7949 160.691 97.7949 160.765 97.7949 160.84C97.7949 160.952 97.7949 161.026 97.8326 161.138C97.8326 161.251 97.8703 161.325 97.8703 161.437C97.8703 161.549 97.908 161.623 97.9457 161.735C97.9834 161.847 97.9834 161.922 98.0585 162.034C98.0585 162.071 98.0962 162.146 98.0962 162.183C98.0962 162.22 98.1339 162.295 98.1339 162.332C98.1339 162.369 98.1716 162.406 98.1716 162.444C98.2093 162.518 98.2093 162.593 98.247 162.667C98.2847 162.705 98.2847 162.779 98.3224 162.816C98.3601 162.854 98.3601 162.928 98.3978 162.965C98.4355 163.003 98.4355 163.078 98.4732 163.115C98.511 163.152 98.5483 163.226 98.5483 163.264C98.6237 163.375 98.6614 163.487 98.7364 163.562C98.8115 163.674 98.8869 163.786 98.9619 163.86C99.0373 163.973 99.1124 164.084 99.1878 164.159C99.2628 164.271 99.3383 164.383 99.4133 164.457C99.4887 164.569 99.6015 164.681 99.6769 164.756C99.7523 164.868 99.865 164.979 99.9404 165.054C99.9781 165.092 100.053 165.166 100.091 165.203C100.129 165.241 100.204 165.315 100.241 165.352C100.317 165.464 100.43 165.539 100.543 165.614C100.655 165.725 100.731 165.8 100.844 165.874C100.956 165.987 101.069 166.061 101.144 166.136C101.257 166.21 101.37 166.322 101.483 166.396C101.521 166.434 101.596 166.471 101.634 166.509C101.671 166.546 101.746 166.583 101.784 166.62C101.897 166.695 102.01 166.769 102.123 166.882C102.235 166.956 102.348 167.031 102.461 167.105C102.574 167.18 102.687 167.254 102.838 167.328C102.95 167.403 103.063 167.478 103.214 167.552C103.327 167.627 103.477 167.701 103.59 167.776C103.703 167.813 103.854 167.888 103.966 167.962C104.042 168 104.08 168.037 104.155 168.037C104.23 168.074 104.268 168.111 104.343 168.111C104.456 168.186 104.606 168.223 104.719 168.298C104.795 168.335 104.832 168.335 104.907 168.372C104.945 168.41 105.02 168.41 105.095 168.447H105.133C105.246 168.484 105.359 168.521 105.472 168.596C105.585 168.633 105.735 168.67 105.848 168.745C105.961 168.783 106.112 168.82 106.224 168.857C106.3 168.857 106.375 168.894 106.413 168.894C106.488 168.894 106.563 168.932 106.601 168.932C106.751 168.969 106.864 169.006 107.014 169.044C107.127 169.081 107.278 169.081 107.391 169.118C107.504 169.156 107.654 169.156 107.767 169.193C107.805 169.193 107.88 169.23 107.955 169.23C107.993 169.23 108.068 169.268 108.143 169.268C108.256 169.268 108.407 169.305 108.52 169.305C108.632 169.305 108.783 169.305 108.896 169.343C109.009 169.343 109.16 169.343 109.272 169.343C109.31 169.343 109.385 169.343 109.423 169.343C109.498 169.343 109.535 169.343 109.611 169.343C109.724 169.343 109.837 169.343 109.95 169.305C110.062 169.305 110.175 169.305 110.25 169.268C110.363 169.268 110.476 169.23 110.551 169.23C110.664 169.193 110.739 169.193 110.853 169.156C110.965 169.118 111.041 169.118 111.154 169.081C111.229 169.044 111.342 169.044 111.417 169.007C111.492 168.97 111.605 168.932 111.681 168.895C111.756 168.857 111.831 168.82 111.906 168.783C111.982 168.745 112.057 168.708 112.132 168.634C112.207 168.596 112.282 168.559 112.358 168.485C112.433 168.447 112.471 168.373 112.546 168.336C112.584 168.298 112.659 168.224 112.734 168.187C112.772 168.149 112.847 168.075 112.885 168.037C112.922 167.963 112.997 167.926 113.035 167.851C113.186 167.851 113.261 167.777 113.298 167.702ZM92.0385 170.798C92.0385 170.76 92.0008 170.723 92.0008 170.686C92.0008 170.648 91.9631 170.611 91.9631 170.574C92.0008 170.648 92.0008 170.723 92.0385 170.798ZM92.4525 171.767C92.4525 171.73 92.4148 171.693 92.4148 171.655C92.3771 171.618 92.3771 171.581 92.3394 171.543C92.3771 171.618 92.4148 171.693 92.4525 171.767ZM92.4525 169.604C92.4525 169.567 92.4148 169.53 92.4148 169.492C92.3771 169.455 92.3771 169.418 92.3394 169.381C92.3771 169.455 92.4148 169.53 92.4525 169.604ZM92.9793 172.439C92.9416 172.401 92.9039 172.364 92.8665 172.326C92.8288 172.289 92.7911 172.252 92.7538 172.215C92.7161 172.177 92.7161 172.14 92.6784 172.103C92.6407 172.065 92.6407 172.028 92.603 171.991C92.6407 172.065 92.7157 172.14 92.7534 172.214C92.8288 172.289 92.9039 172.364 92.9793 172.439ZM93.4306 170.723C93.3929 170.686 93.3552 170.648 93.3179 170.611C93.2806 170.574 93.2425 170.536 93.2051 170.499C93.2425 170.574 93.3556 170.648 93.4306 170.723ZM94.0705 173.371C94.0328 173.333 93.9578 173.333 93.9201 173.259C93.8824 173.221 93.807 173.184 93.7696 173.147C93.7323 173.109 93.6569 173.072 93.6192 173.035C93.5815 172.997 93.5441 172.96 93.5064 172.923C93.4687 172.885 93.3937 172.848 93.3937 172.811C93.4691 172.886 93.5441 172.96 93.6572 173.034C93.7327 173.109 93.8454 173.146 93.9208 173.221C93.9951 173.334 94.0328 173.334 94.0705 173.371ZM94.4091 173.557C94.3714 173.52 94.2964 173.52 94.2587 173.483C94.2964 173.52 94.3337 173.557 94.4091 173.557ZM95.9518 172.178C95.914 172.14 95.839 172.14 95.7636 172.103C95.7259 172.103 95.6508 172.066 95.5754 172.029C95.5377 172.029 95.5 171.991 95.4627 171.991C95.425 171.991 95.425 171.953 95.3873 171.953C95.3496 171.953 95.2745 171.916 95.1991 171.879C95.2745 171.916 95.3873 171.953 95.4627 171.991C95.5004 171.991 95.5381 172.029 95.5754 172.029C95.6886 172.066 95.8013 172.103 95.9518 172.178ZM96.7044 174.601C96.629 174.564 96.5913 174.564 96.5162 174.527C96.4412 174.527 96.4035 174.489 96.3281 174.489C96.2904 174.452 96.2153 174.452 96.1399 174.415C96.0645 174.378 96.0272 174.377 95.9518 174.34C96.0645 174.378 96.2153 174.452 96.3281 174.489C96.4412 174.489 96.5539 174.527 96.7044 174.601ZM97.4947 174.788C97.4193 174.788 97.3443 174.75 97.3066 174.75C97.2312 174.75 97.1938 174.713 97.1184 174.713C97.2312 174.713 97.3443 174.751 97.4947 174.788ZM97.4947 172.625C97.4193 172.625 97.3443 172.588 97.3066 172.588C97.3443 172.588 97.4193 172.588 97.4947 172.625ZM98.6987 175.012C98.6233 175.012 98.5483 174.974 98.4729 174.974C98.3975 174.974 98.3224 174.974 98.2474 174.937C98.4355 174.974 98.5856 175.012 98.6987 175.012ZM98.6987 172.849C98.6233 172.849 98.5483 172.849 98.4729 172.811C98.3975 172.811 98.3224 172.774 98.2474 172.774C98.4355 172.812 98.5856 172.849 98.6987 172.849ZM99.1124 172.886C99.037 172.886 98.9619 172.886 98.8869 172.849C98.9996 172.886 99.0374 172.886 99.1124 172.886ZM100.392 175.161C100.317 175.161 100.241 175.161 100.166 175.161C100.091 175.161 100.016 175.161 99.9404 175.161C100.091 175.161 100.241 175.161 100.392 175.161ZM101.22 175.161C101.144 175.161 101.069 175.161 100.994 175.161H100.956C101.032 175.161 101.144 175.161 101.22 175.161ZM102.085 175.124C102.01 175.124 101.935 175.124 101.86 175.124C101.785 175.124 101.709 175.124 101.634 175.124C101.784 175.124 101.935 175.124 102.085 175.124ZM102.499 172.923C102.424 172.923 102.349 172.923 102.273 172.923C102.198 172.923 102.123 172.923 102.048 172.961C101.973 172.961 101.897 172.961 101.822 172.961C101.747 172.961 101.672 172.961 101.597 172.961C101.522 172.961 101.446 172.961 101.371 172.961C101.295 172.961 101.22 172.961 101.145 172.961C101.296 172.961 101.409 172.961 101.559 172.961C101.709 172.961 101.822 172.961 101.973 172.923C102.236 172.923 102.348 172.923 102.499 172.923ZM104.117 174.788C104.042 174.788 103.967 174.825 103.891 174.825C103.854 174.825 103.779 174.863 103.703 174.863C103.628 174.863 103.553 174.9 103.478 174.9C103.402 174.9 103.327 174.938 103.29 174.938C103.215 174.938 103.139 174.938 103.064 174.975C102.989 174.975 102.914 175.012 102.839 175.012C102.989 175.012 103.102 174.975 103.252 174.975C103.365 174.938 103.516 174.938 103.666 174.901C103.854 174.863 104.004 174.825 104.117 174.788ZM104.531 172.551C104.493 172.551 104.418 172.588 104.343 172.588C104.267 172.625 104.23 172.625 104.155 172.625C104.079 172.625 104.004 172.663 103.929 172.663C103.891 172.663 103.816 172.7 103.741 172.7C103.666 172.7 103.591 172.738 103.515 172.738C103.44 172.738 103.365 172.775 103.327 172.775C103.252 172.775 103.176 172.775 103.101 172.813C103.026 172.813 102.951 172.813 102.876 172.85C103.026 172.85 103.139 172.813 103.289 172.813C103.402 172.775 103.553 172.775 103.703 172.738C103.854 172.701 103.967 172.701 104.117 172.664C104.268 172.625 104.381 172.588 104.531 172.551ZM106.375 171.879C106.337 171.916 106.262 171.916 106.224 171.953C106.149 171.991 106.112 171.991 106.074 172.028H106.036C105.999 172.066 105.923 172.066 105.848 172.103C105.773 172.14 105.735 172.14 105.66 172.177C105.584 172.215 105.547 172.215 105.472 172.252C105.434 172.289 105.359 172.289 105.284 172.326C105.396 172.289 105.547 172.252 105.66 172.177C105.773 172.14 105.885 172.103 106.036 172.028C106.036 172.028 106.036 172.028 106.074 172.028C106.149 171.991 106.262 171.953 106.375 171.879ZM107.353 173.52C107.316 173.557 107.24 173.557 107.203 173.594C107.165 173.632 107.09 173.669 107.052 173.707C107.127 173.632 107.24 173.594 107.353 173.52ZM107.617 171.171C107.654 171.133 107.692 171.096 107.73 171.058C107.73 171.096 107.654 171.133 107.617 171.171ZM107.767 173.259C107.729 173.297 107.692 173.334 107.654 173.371C107.654 173.296 107.73 173.259 107.767 173.259ZM108.143 170.761C108.106 170.798 108.068 170.835 108.031 170.872C107.993 170.91 107.955 170.947 107.918 170.984C107.955 170.909 108.068 170.835 108.143 170.761ZM109.535 170.761C109.535 170.798 109.535 170.835 109.498 170.872C109.498 170.91 109.498 170.947 109.46 170.984C109.46 171.022 109.422 171.059 109.422 171.096C109.422 171.134 109.422 171.171 109.385 171.208C109.385 171.246 109.347 171.283 109.347 171.32C109.347 171.358 109.309 171.395 109.309 171.432C109.347 171.358 109.385 171.283 109.422 171.209C109.46 171.134 109.46 171.06 109.497 170.985C109.498 170.909 109.535 170.835 109.535 170.761ZM49.9705 45.7946C49.707 45.6455 49.4811 45.6455 49.2179 45.7946L32.2854 55.4905C31.7959 55.789 31.5327 56.199 31.5327 56.7958V75.069C31.5327 75.3676 31.6458 75.5541 31.909 75.7402L34.5806 77.269C34.5429 77.269 34.5429 77.2317 34.5052 77.2317C34.5052 77.2317 34.5052 77.2317 34.5052 77.1943V77.1569V77.1195V77.0822V77.0448V77.0074V58.7342C34.5052 58.1748 34.8065 57.6901 35.2955 57.4289L52.2281 47.733C52.3785 47.6583 52.529 47.6209 52.7171 47.6583C52.8299 47.6583 52.943 47.6957 53.0184 47.733L49.9705 45.7946ZM59.302 74.4348L52.7922 78.1641C52.604 78.2758 52.5286 78.4623 52.4913 78.6861V85.7342C52.4913 85.8464 52.529 85.9207 52.6417 85.9955L53.6202 86.5549C53.6202 86.5549 53.6202 86.5549 53.6202 86.5175V79.4694C53.6202 79.2459 53.733 79.0594 53.9215 78.9473L60.4313 75.2181C60.469 75.1807 60.5064 75.1807 60.5818 75.1807H60.6195C60.6572 75.1807 60.6949 75.1807 60.7322 75.2181L59.6787 74.6213C59.4528 74.3601 59.4147 74.3601 59.302 74.4348Z" fill="#FBC02D"/>
<path d="M129.064 47.4355C130.042 47.8458 132.677 47.249 132.677 47.249C132.677 47.249 132.639 48.144 132.112 49.1138C131.585 50.1206 132.3 51.5377 132.3 51.5377L132.602 51.6868C132.602 51.6868 132.602 51.6494 132.639 51.09C132.677 50.5305 133.091 50.4188 133.731 50.344C133.806 50.344 133.843 50.344 133.881 50.344H133.919C133.956 50.344 133.994 50.3814 134.032 50.4188C134.032 50.4188 134.032 50.4188 134.07 50.4561C134.107 50.4935 134.145 50.4935 134.145 50.5309C134.145 50.5309 134.145 50.5683 134.182 50.5683C134.22 50.6056 134.22 50.643 134.258 50.7174C134.258 50.7547 134.258 50.7547 134.258 50.7921C134.258 50.8295 134.258 50.8668 134.295 50.9038C134.295 50.9412 134.295 50.9786 134.295 51.0156C134.295 51.053 134.295 51.0903 134.295 51.1277C134.295 51.1651 134.295 51.2021 134.295 51.2394C134.295 51.2768 134.295 51.3142 134.295 51.3512C134.295 51.4259 134.258 51.5003 134.258 51.575C134.258 51.6124 134.258 51.6498 134.22 51.6498C134.22 51.6871 134.22 51.7241 134.182 51.7241C135.311 50.3818 135.085 46.4287 133.505 46.2048C131.737 43.8553 127.898 45.1607 127.522 45.8693C127.146 46.5778 127.522 46.7643 127.522 46.7643L128.275 46.2422C128.274 46.2422 128.048 47.0255 129.064 47.4355Z" fill="#1F2D3E"/>
</svg>
