<svg width="224" height="222" viewBox="0 0 224 222" fill="none" xmlns="http://www.w3.org/2000/svg">
<path d="M117.061 108.818C116.835 109.713 116.647 110.608 116.459 111.503C116.647 110.608 116.835 109.713 117.061 108.818Z" fill="#B2E1ED"/>
<path d="M52.7922 113.891C56.2164 114.226 58.4739 114.45 59.7911 113.145C60.4683 112.474 60.8069 111.802 60.7692 111.131C60.6941 109.863 59.4898 108.856 59.4524 108.856L59.4901 108.782C58.8506 108.446 58.2861 108.073 57.7594 107.625C57.3453 107.29 56.9317 106.842 56.5177 106.32L43.7993 113.592C47.3736 113.368 50.3461 113.667 52.7922 113.891Z" fill="#B2E1ED"/>
<path d="M187.087 86.6295C187.087 86.6295 163.908 88.8669 154.877 110.869C154.501 111.839 154.125 112.771 153.824 113.703C152.469 117.954 151.943 122.094 151.943 125.935C151.98 134.96 155.028 142.568 157.248 146.856C157.098 146.744 156.985 146.633 156.872 146.521C156.834 146.483 156.797 146.446 156.759 146.409C156.683 146.334 156.608 146.26 156.533 146.185C156.495 146.148 156.458 146.111 156.42 146.073C156.345 145.999 156.307 145.961 156.232 145.887C156.194 145.849 156.157 145.812 156.119 145.775C156.081 145.737 156.006 145.663 155.969 145.626C155.931 145.589 155.894 145.551 155.894 145.551C155.856 145.514 155.818 145.477 155.78 145.439C155.743 145.402 155.743 145.402 155.705 145.364C155.668 145.327 155.63 145.29 155.592 145.253L155.555 145.215C155.479 145.141 155.441 145.103 155.441 145.103C148.217 132.424 131.472 118.887 119.394 110.198C119.695 109.527 119.883 109.116 119.883 109.116V100.129L110.664 94.9453C110.664 94.9453 108.557 97.3318 106.186 101.247C105.848 101.024 105.66 100.912 105.66 100.912C105.66 100.912 99.2629 93.8637 102.123 82.4152C102.348 81.4828 102.649 80.5878 103.026 79.7301C106.977 70.2577 117.588 66.6406 117.588 66.6406C117.588 66.6406 118.829 67.6474 121.389 69.251C123.722 70.7054 127.183 72.6072 131.811 74.6955L131.736 74.7703L133.617 75.777L133.843 75.5906C134.107 75.7023 134.332 75.8144 134.596 75.9261C133.429 76.4108 132.451 76.8585 131.999 77.1568C130.381 78.2383 126.393 93.4534 126.393 93.4534C126.393 93.4534 126.13 94.2367 125.753 94.684C125.377 95.094 122.818 96.6606 122.028 96.9962C121.238 97.3691 121.764 98.0403 122.253 98.1524C122.743 98.2642 126.129 97.593 127.032 97.2948C127.935 96.9965 128.5 96.2133 128.5 95.915C128.5 95.6168 128.952 94.125 128.952 94.125L135.122 83.1238L138.433 81.7067C138.433 81.7067 135.912 83.9814 135.799 84.5035C135.686 85.0256 133.805 98.861 133.805 98.861L133.542 100.166C133.542 100.166 131.021 102.18 129.854 102.404C128.725 102.628 128.499 103.261 128.613 103.523C128.725 103.783 129.591 104.529 131.623 104.418C133.655 104.306 135.95 101.695 135.95 101.695L136.251 99.7186L140.842 87.0021C140.842 87.0021 147.051 83.3102 149.91 81.2963C152.883 82.154 156.119 82.9746 159.543 83.7576C159.656 83.944 159.807 84.0932 159.995 84.0932C160.145 84.0932 160.333 84.0558 160.559 83.9814C162.817 84.4661 165.187 84.9512 167.633 85.3985C169.816 85.8088 172.111 86.1818 174.444 86.517C174.782 86.5544 175.084 86.5918 175.385 86.6291C175.648 86.6665 175.949 86.7039 176.213 86.7039C176.438 86.7412 176.627 86.7412 176.852 86.7782C176.89 86.7782 176.966 86.7782 177.003 86.7782C177.492 86.8156 177.944 86.853 178.395 86.853C178.658 86.853 178.884 86.853 179.148 86.8904C179.185 86.8904 179.26 86.8904 179.298 86.8904C179.486 86.8904 179.674 86.8904 179.863 86.8904C179.9 86.8904 179.9 86.8904 179.938 86.8904C180.163 86.8904 180.351 86.8904 180.578 86.8904C180.615 86.8904 180.69 86.8904 180.728 86.8904C180.916 86.8904 181.104 86.8904 181.33 86.8904C181.555 86.8904 181.781 86.8904 182.007 86.853C182.082 86.853 182.12 86.853 182.195 86.853C182.458 86.853 182.722 86.8156 183.023 86.8156C183.173 86.8156 183.324 86.8156 183.475 86.7782C183.964 86.7409 184.49 86.7409 185.055 86.7039C185.13 86.7039 185.243 86.7039 185.318 86.7039C185.544 86.7039 185.77 86.6665 185.995 86.6665C186.259 86.6665 186.56 86.6291 186.86 86.6291C186.974 86.6295 187.049 86.6295 187.087 86.6295ZM186.146 86.6669C186.108 86.6669 186.108 86.6669 186.071 86.6669C186.108 86.6669 186.108 86.6669 186.146 86.6669ZM180.539 112.883L180.502 112.958C180.427 112.921 180.351 112.921 180.276 112.921C180.201 112.921 180.126 112.921 180.05 112.921C179.712 112.921 179.411 112.921 179.148 112.921C179.072 112.921 178.959 112.921 178.884 112.921C178.884 112.921 178.809 112.921 178.621 112.958C178.546 112.958 178.433 112.995 178.32 112.995C177.943 113.07 177.341 113.219 176.702 113.443C176.4 113.555 176.1 113.667 175.799 113.816C175.234 114.077 174.67 114.412 174.105 114.823C173.955 114.935 173.842 115.009 173.691 115.121C173.428 115.345 173.165 115.606 172.901 115.867C172.187 116.613 171.547 117.545 171.058 118.701C170.381 120.305 170.268 121.871 170.418 123.251C170.606 125.041 171.208 126.496 171.66 127.391C171.735 127.465 171.848 127.54 171.961 127.651C167.935 125.414 159.28 121.275 153.975 123.96C153.975 123.512 154.012 123.065 154.05 122.617C154.05 122.505 154.05 122.431 154.088 122.319C154.125 121.983 154.163 121.647 154.2 121.274C154.2 121.125 154.239 121.014 154.239 120.865C154.276 120.678 154.276 120.491 154.314 120.268C154.351 120.044 154.389 119.858 154.389 119.634C154.427 119.41 154.464 119.186 154.502 118.963C154.539 118.739 154.577 118.515 154.615 118.292C154.653 118.142 154.653 117.993 154.69 117.844C154.765 117.509 154.84 117.173 154.915 116.875C154.953 116.763 154.991 116.614 154.991 116.502C155.066 116.166 155.179 115.793 155.254 115.458C155.254 115.383 155.292 115.346 155.292 115.271C155.405 114.935 155.48 114.6 155.593 114.264C155.631 114.189 155.631 114.078 155.668 114.003C155.781 113.63 155.932 113.257 156.045 112.884C156.082 112.81 156.12 112.736 156.12 112.661C156.27 112.251 156.421 111.878 156.571 111.467C156.722 111.094 156.872 110.721 157.061 110.349C157.098 110.237 157.174 110.125 157.211 110.013C157.324 109.752 157.436 109.491 157.587 109.267C157.625 109.155 157.7 109.043 157.738 108.932C157.888 108.67 158.001 108.41 158.151 108.111C158.189 108.037 158.227 107.962 158.265 107.887C158.453 107.552 158.641 107.216 158.829 106.881C158.867 106.806 158.904 106.769 158.942 106.694C159.092 106.433 159.243 106.172 159.431 105.911C159.507 105.836 159.544 105.724 159.619 105.65C159.77 105.426 159.921 105.165 160.071 104.941C160.109 104.866 160.184 104.792 160.222 104.718C160.635 104.121 161.087 103.524 161.501 102.965C161.539 102.928 161.576 102.853 161.614 102.816C161.802 102.592 161.99 102.368 162.178 102.107C162.216 102.07 162.254 101.995 162.329 101.958C162.555 101.697 162.78 101.436 163.006 101.175C163.495 100.653 163.984 100.131 164.473 99.6087C164.511 99.5714 164.511 99.5714 164.549 99.534C164.774 99.3101 165.038 99.0867 165.264 98.8628C165.264 98.8628 165.264 98.8628 165.302 98.8255C166.091 98.1169 166.882 97.4457 167.672 96.8115C167.784 98.4136 168.762 107.774 180.539 112.883ZM171.358 127.166C171.321 127.166 171.321 127.129 171.358 127.166C171.321 127.129 171.321 127.166 171.358 127.166C171.358 127.166 171.358 127.203 171.358 127.166C171.358 127.203 171.358 127.203 171.358 127.166C171.358 127.203 171.358 127.203 171.358 127.166C171.358 127.203 171.358 127.166 171.358 127.166ZM171.245 127.055L171.283 127.092C171.283 127.092 171.283 127.092 171.283 127.055C171.245 127.055 171.245 127.055 171.245 127.055Z" fill="#FBBB1B"/>
<path d="M200.445 138.541C181.593 162.37 164.133 149.952 158.828 145.104C156.645 140.815 153.598 133.096 153.936 124.034C159.242 121.349 167.896 125.488 171.923 127.726C173.578 129.068 177.83 131.567 182.421 125.787C186.974 120.044 183.173 113.667 180.501 112.996L180.539 112.921C168.762 107.812 167.784 98.452 167.708 96.9232C176.739 89.9121 186.71 88.9426 186.71 88.9426C188.027 88.9053 189.532 88.8309 191.263 88.8309C201.536 88.8302 219.033 115.047 200.445 138.541ZM99.6393 123.176L99.9402 135.818L116.196 145.514L116.121 132.872L99.6393 123.176ZM119.319 101.696C119.131 102.143 118.98 102.553 118.829 103.001C118.792 103.076 118.792 103.113 118.754 103.188C118.604 103.598 118.453 104.045 118.303 104.456C118.265 104.53 118.265 104.605 118.228 104.642C118.077 105.052 117.964 105.462 117.851 105.873C117.814 105.947 117.814 105.984 117.776 106.059C117.663 106.469 117.513 106.88 117.4 107.327C117.4 107.365 117.362 107.439 117.362 107.476C117.249 107.849 117.174 108.222 117.061 108.595C117.061 108.632 117.023 108.707 117.023 108.744C117.023 108.781 117.023 108.781 117.023 108.819C116.797 109.714 116.609 110.609 116.421 111.504C116.421 111.504 116.421 111.504 116.421 111.541C116.346 111.988 116.271 112.398 116.196 112.846C116.196 112.884 116.196 112.884 116.196 112.921C116.12 113.33 116.045 113.778 116.007 114.188V114.226C115.932 114.636 115.894 115.084 115.819 115.494C115.819 115.494 115.819 115.494 115.819 115.532C115.556 117.657 115.405 119.671 115.368 121.498C115.405 119.074 118.227 112.81 119.432 110.274C119.733 109.602 119.921 109.192 119.921 109.192V100.204C119.733 100.652 119.544 101.099 119.356 101.584C119.356 101.621 119.319 101.658 119.319 101.696ZM72.7728 63.9188C72.5473 63.9188 72.3591 63.9188 72.1333 63.9562C72.0956 63.9562 72.0205 63.9562 71.9828 63.9562C71.7569 63.9562 71.5688 63.9936 71.3806 64.0309C71.3429 64.0309 71.3052 64.0309 71.2679 64.0683C71.0797 64.1057 70.9293 64.143 70.7411 64.1804C70.7034 64.1804 70.6284 64.2178 70.5906 64.2178C70.4025 64.2551 70.2143 64.3295 70.0262 64.3669C69.9508 64.3669 69.9134 64.4043 69.838 64.4413C69.6876 64.4786 69.5371 64.5534 69.3866 64.5904C69.3489 64.6277 69.2739 64.6277 69.2362 64.6651C69.048 64.7398 68.8976 64.8142 68.7094 64.889C68.6344 64.9263 68.559 64.9633 68.4839 65.0007C68.3335 65.0754 68.183 65.1498 68.0699 65.2242C67.9945 65.2615 67.8817 65.3359 67.8063 65.3733C67.6936 65.448 67.5808 65.5224 67.4677 65.5971C67.3923 65.6345 67.3173 65.7089 67.2418 65.7462C67.0914 65.858 66.9409 65.9701 66.7905 66.0445C66.7151 66.1192 66.64 66.1566 66.5269 66.2309C66.4515 66.3057 66.3388 66.3801 66.2633 66.4548C66.1879 66.5295 66.1129 66.6039 66.0378 66.6413C66.0756 66.6413 76.95 65.2989 80.7128 77.083C84.4757 88.9045 78.9821 101.845 74.542 104.232C71.2305 106.022 67.8063 105.724 66.3014 105.462C66.5269 105.649 66.7528 105.835 66.9786 105.984C67.0164 106.022 67.0541 106.022 67.0914 106.059C67.2796 106.208 67.5054 106.32 67.6936 106.469C67.7313 106.507 67.769 106.507 67.8063 106.544C67.9194 106.619 68.0322 106.656 68.1449 106.73C68.2204 106.768 68.2954 106.805 68.3708 106.843C68.5213 106.917 68.6717 106.992 68.8222 107.066C68.9349 107.103 69.0103 107.141 69.1231 107.215C69.1985 107.252 69.3112 107.29 69.3866 107.327C69.5371 107.402 69.7253 107.439 69.8757 107.513C69.9511 107.551 70.0262 107.551 70.1016 107.588C70.2897 107.625 70.4402 107.7 70.6284 107.737C70.6661 107.737 70.7038 107.775 70.7788 107.775C70.967 107.812 71.1174 107.849 71.3056 107.886C71.3433 107.886 71.4183 107.886 71.456 107.924C71.6442 107.961 71.8697 107.961 72.0578 107.998C72.0956 107.998 72.1333 107.998 72.2083 107.998C72.4342 107.998 72.6223 108.036 72.8478 108.036C80.6371 108.036 86.9583 98.1908 86.9583 85.9963C86.921 73.7641 80.562 63.9188 72.7728 63.9188ZM54.9745 62.7999C55.614 62.949 58.0224 62.6508 59.7532 62.3526C59.8659 62.3526 59.979 62.3152 60.0541 62.3152C60.0918 62.3152 60.0918 62.3152 60.1295 62.3152C60.2426 62.3152 60.3176 62.2779 60.4308 62.2779H60.4685C60.5439 62.2779 60.6566 62.2405 60.732 62.2405C60.7697 62.2405 60.7697 62.2405 60.8074 62.2405C60.8829 62.2405 60.9579 62.2031 61.0329 62.2031C61.0329 62.2031 61.0329 62.2031 61.0706 62.2031C61.1461 62.2031 61.1834 62.1658 61.2588 62.1658H61.2965C61.3342 62.1658 61.3719 62.1658 61.4093 62.1284H61.447C61.5224 62.1284 61.5597 62.091 61.5597 62.091C61.5597 62.091 61.5597 62.091 61.5974 62.091C61.7102 62.0536 62.1992 61.9419 62.8391 61.7554C64.3067 61.3455 66.6397 60.6369 67.2415 60.3383C68.1446 59.8536 68.6336 57.0938 68.295 55.8262C68.3704 56.1618 68.1069 56.5721 67.5801 56.9824C67.3542 57.1689 67.1287 57.318 66.8274 57.5045C66.677 57.5792 66.5262 57.691 66.3761 57.7657C65.059 58.4743 63.14 59.1454 60.9952 59.6675C58.5495 60.2643 56.3293 60.4878 54.7867 60.4134C54.4481 60.3761 54.1472 60.3387 53.8836 60.3017C53.47 60.227 53.1687 60.1152 52.9805 59.9287C52.8301 59.817 52.755 59.7049 52.7169 59.5558C52.6415 59.5558 53.9964 62.5391 54.9745 62.7999ZM75.9711 109.863C75.2185 110.087 74.4658 110.273 73.6759 110.31C73.6382 110.31 73.6382 110.31 73.6008 110.31C73.3373 110.348 73.0741 110.348 72.7728 110.348C68.4455 110.348 64.5322 107.625 61.7102 103.187C61.522 102.926 61.3716 102.628 61.1834 102.33C60.8448 101.733 60.5439 101.136 60.2426 100.54C59.9413 99.9058 59.6781 99.2716 59.4145 98.6004C58.8878 97.258 58.4364 95.8409 58.0978 94.3491C57.9096 93.6032 57.7592 92.8203 57.6464 92.0743C57.3078 90.1352 57.157 88.0839 57.157 85.9582C57.157 85.5853 57.157 85.1749 57.1947 84.802C57.1947 84.6902 57.1947 84.5408 57.1947 84.429C57.1947 84.1678 57.2324 83.907 57.2324 83.6457C57.2324 83.4966 57.2701 83.3475 57.2701 83.2358C57.2701 82.9746 57.3078 82.7507 57.3452 82.5272C57.3452 82.3781 57.3829 82.2286 57.3829 82.0799C57.4206 81.8187 57.4206 81.5948 57.4583 81.334C57.4583 81.2222 57.496 81.0728 57.496 80.961C57.5337 80.6628 57.5714 80.3642 57.6087 80.066C57.6087 79.9912 57.6464 79.9169 57.6464 79.8425C57.7218 79.4695 57.7592 79.134 57.8346 78.761C57.8723 78.6489 57.8723 78.5371 57.91 78.4254C57.9477 78.2016 58.0228 77.9407 58.0605 77.7169C58.0982 77.5677 58.1359 77.4556 58.1736 77.3065C58.2113 77.083 58.2863 76.8966 58.324 76.6727C58.3617 76.5236 58.3994 76.4115 58.4372 76.2628C58.5122 76.0389 58.5499 75.8524 58.6253 75.6659C58.663 75.5168 58.7004 75.4047 58.7381 75.2556C58.8135 75.0321 58.8885 74.8083 58.9636 74.6218C59.0013 74.5101 59.039 74.3983 59.0767 74.2862C59.1894 73.9876 59.3022 73.6524 59.4153 73.3538C59.453 73.2421 59.4907 73.1303 59.5284 73.0182C59.6038 72.8317 59.6789 72.6083 59.792 72.4218C59.8297 72.2727 59.9047 72.1606 59.9801 72.0488C60.0556 71.8997 60.1306 71.7132 60.2056 71.5638C60.2807 71.4143 60.3184 71.3025 60.3938 71.1538C60.4692 71.0047 60.5442 70.8552 60.6197 70.7065C60.6951 70.5574 60.7701 70.4452 60.8078 70.2961C60.8832 70.147 60.9583 69.9979 61.0714 69.8488C61.1468 69.7371 61.2219 69.5876 61.2969 69.4758C61.41 69.2894 61.5228 69.1029 61.6355 68.9538C61.7482 68.7673 61.8614 68.5808 61.9741 68.4317C62.0495 68.2826 62.1623 68.1705 62.2377 68.0214C62.3131 67.9096 62.4258 67.7605 62.5013 67.6484C62.5763 67.5367 62.6894 67.4249 62.7648 67.3128C62.8399 67.2007 62.953 67.089 63.028 66.9399C63.1034 66.8281 63.2162 66.7164 63.2916 66.6416C63.4047 66.5299 63.4798 66.4182 63.5929 66.3061C63.6683 66.1943 63.7811 66.1196 63.8565 66.0078C63.9692 65.8961 64.0446 65.7844 64.1574 65.6722C64.2328 65.5979 64.3455 65.4858 64.4209 65.411C64.6464 65.1875 64.8346 65.0011 65.0605 64.8146C65.1359 64.7398 65.2109 64.6655 65.286 64.5907C65.3991 64.479 65.5118 64.4043 65.6246 64.2925C65.7 64.2178 65.8127 64.1434 65.8881 64.0687C66.0009 63.9943 66.114 63.8822 66.2645 63.8078C66.3399 63.7331 66.4526 63.6957 66.528 63.6213C66.6408 63.5466 66.7539 63.4722 66.9044 63.3601C66.9798 63.2857 67.0925 63.2484 67.1679 63.1736C67.281 63.0993 67.4315 63.0245 67.5442 62.9502C67.6197 62.9128 67.7324 62.8384 67.8078 62.801C68.1464 62.6146 68.4473 62.4655 68.7863 62.3163C68.7863 62.3163 68.7863 62.3163 68.824 62.3163C67.1683 62.7263 65.174 63.3605 63.1046 64.2555C62.1261 64.7032 61.1102 65.1879 60.1321 65.7474C57.1596 67.4627 54.3376 69.8869 52.6064 73.1684C46.3979 85.1021 51.8538 100.615 56.5951 106.284C57.0092 106.806 57.4228 107.216 57.8368 107.589C58.3636 108.037 58.9281 108.409 59.5676 108.745L59.5299 108.82C59.5299 108.82 60.7716 109.827 60.8466 111.095C60.8844 111.766 60.5457 112.438 59.8681 113.109C58.5137 114.414 56.2558 114.19 52.8693 113.855C50.4236 113.631 47.4507 113.332 43.9514 113.556C41.3549 113.743 38.4578 114.19 35.2595 115.197C29.0133 117.136 28.0348 119.56 28.2983 121.276C28.336 121.649 28.4865 121.984 28.6369 122.32C30.7817 126.497 41.9948 129.182 58.062 129.219C69.9149 129.256 71.9843 131.68 72.3229 132.687C73.0378 134.85 69.3127 138.206 67.9583 139.213L69.3127 141.04C69.99 140.555 75.8602 136.118 74.5054 132.015C73.4142 128.659 68.0333 127.018 58.0997 126.981C38.7965 126.907 31.459 123.215 30.6686 121.201C30.6309 121.126 30.5932 121.052 30.5932 120.977C30.4805 120.157 31.7972 118.702 35.9741 117.397C36.8772 117.136 37.7425 116.875 38.5706 116.689C44.3651 115.309 48.956 115.756 52.7184 116.129C56.4813 116.502 59.4541 116.8 61.5612 114.712C62.7279 113.556 63.292 112.326 63.2169 110.945C63.2169 110.647 63.1415 110.349 63.0665 110.05C67.881 111.429 73.7886 110.944 75.9711 109.863Z" fill="#C6CEC8"/>
<path d="M72.773 61.5321C71.3808 61.5321 70.0264 61.8303 68.7469 62.3524C68.4083 62.5015 68.0697 62.6506 67.7684 62.8371C67.693 62.8744 67.5803 62.9118 67.5049 62.9862C67.3921 63.0609 67.2413 63.1353 67.1285 63.21C67.0531 63.2474 66.9404 63.3218 66.865 63.3965C66.7522 63.4712 66.6014 63.5456 66.4886 63.6577C66.4132 63.7321 66.3005 63.7695 66.2251 63.8442C66.1123 63.9189 65.9992 64.0307 65.8488 64.1054C65.7733 64.1802 65.6606 64.2545 65.5852 64.3289C65.4721 64.4406 65.3593 64.5154 65.2466 64.6271C65.1711 64.7019 65.0961 64.7762 65.0207 64.851C64.7952 65.0374 64.607 65.2613 64.3812 65.4478C64.3061 65.5225 64.193 65.6343 64.1176 65.709C64.0049 65.8207 63.9294 65.9325 63.8167 66.0446C63.7413 66.1567 63.6285 66.2311 63.5531 66.3432C63.4404 66.4549 63.365 66.5667 63.2522 66.6788C63.1768 66.7905 63.0641 66.9022 62.9886 66.977C62.8759 67.0887 62.8005 67.2005 62.7251 67.3499C62.6497 67.4617 62.5369 67.5738 62.4615 67.6855C62.3861 67.7973 62.2733 67.909 62.1979 68.0585C62.0852 68.2076 62.0098 68.3197 61.9343 68.4688C61.8216 68.6553 61.7089 68.8044 61.5957 68.9909C61.4826 69.1774 61.3699 69.3265 61.2571 69.513C61.1817 69.6247 61.1067 69.7742 61.0313 69.8859C60.9562 70.035 60.8808 70.1845 60.7677 70.3333C60.6926 70.4454 60.6172 70.5945 60.5795 70.7436C60.5041 70.8927 60.4291 71.0418 60.354 71.1909C60.279 71.34 60.2413 71.4521 60.1659 71.6009C60.0905 71.75 60.0154 71.9365 59.94 72.0859C59.8646 72.1977 59.8273 72.3472 59.7518 72.4589C59.6764 72.6454 59.6014 72.8692 59.4883 73.0557C59.4506 73.1675 59.4129 73.2792 59.3755 73.3913C59.2628 73.6895 59.1497 73.9877 59.0369 74.3237C58.9992 74.4354 58.9615 74.5476 58.9242 74.6593C58.8487 74.8828 58.7737 75.1066 58.6983 75.2931C58.6606 75.4422 58.6233 75.5543 58.5855 75.7031C58.5101 75.8895 58.4728 76.1134 58.3974 76.2999C58.3597 76.449 58.322 76.5611 58.2846 76.7102C58.2469 76.9337 58.1719 77.1202 58.1342 77.344C58.0965 77.4931 58.0588 77.6052 58.0214 77.754C57.9837 77.9778 57.9087 78.239 57.871 78.4625C57.8333 78.5743 57.8333 78.6864 57.7956 78.7981C57.7205 79.1337 57.6451 79.5067 57.6074 79.8796C57.6074 79.9544 57.5697 80.0287 57.5697 80.1035C57.532 80.4017 57.4943 80.6999 57.457 80.9985C57.457 81.1102 57.4193 81.2594 57.4193 81.3715C57.3815 81.6327 57.3438 81.8562 57.3438 82.1174C57.3438 82.2665 57.3061 82.4156 57.3061 82.5647C57.2684 82.7886 57.2684 83.0494 57.2307 83.2733C57.2307 83.4224 57.193 83.5715 57.193 83.6836C57.193 83.9444 57.1553 84.2057 57.1553 84.4665C57.1553 84.5786 57.1553 84.7277 57.1553 84.8395C57.1553 85.2124 57.1176 85.6228 57.1176 85.9957C57.1176 88.084 57.3058 90.1353 57.6067 92.1115C57.7198 92.8947 57.8702 93.6403 58.058 94.3862C58.3966 95.8781 58.8484 97.2952 59.3751 98.6375C59.6387 99.3087 59.9019 99.9425 60.2028 100.577C60.5037 101.211 60.805 101.807 61.1436 102.367C61.2941 102.665 61.4822 102.926 61.6704 103.224C64.4928 107.625 68.4061 110.385 72.733 110.385C72.9966 110.385 73.2598 110.385 73.5607 110.347C73.5984 110.347 73.5984 110.347 73.6361 110.347C74.4265 110.273 75.1787 110.123 75.9314 109.9C82.5916 107.774 87.7089 99.0105 88.3488 88.2331C88.3865 87.4872 88.4242 86.7416 88.4242 85.9957C88.4261 72.4585 81.4272 61.5321 72.773 61.5321ZM65.1719 67.3866C64.9083 67.6478 64.6451 67.9086 64.4193 68.2072C64.6451 67.909 64.9087 67.6478 65.1719 67.3866ZM64.4196 68.2072C64.1561 68.5055 63.9302 68.8037 63.7047 69.1023C63.9302 68.804 64.1561 68.5055 64.4196 68.2072ZM63.667 69.1023C63.4415 69.4005 63.2156 69.7361 62.9898 70.072C63.2153 69.7364 63.4411 69.4005 63.667 69.1023ZM62.9898 70.0717C62.7639 70.4073 62.5757 70.7428 62.3502 71.0788C62.538 70.7432 62.7639 70.4076 62.9898 70.0717ZM62.3499 71.1162C62.1617 71.4518 61.9358 71.8247 61.7477 72.1977C61.9358 71.8247 62.124 71.4518 62.3499 71.1162ZM61.7481 72.2347C61.5599 72.6076 61.3717 72.9806 61.2213 73.3532C61.3717 72.9436 61.5599 72.6076 61.7481 72.2347ZM61.1836 73.3909C60.9954 73.7639 60.845 74.1739 60.6945 74.5472C60.845 74.1739 60.9954 73.7639 61.1836 73.3909ZM60.6568 74.6216C60.5063 75.0319 60.3559 75.4048 60.2054 75.8152C60.3559 75.4045 60.506 74.9945 60.6568 74.6216ZM60.2051 75.8892C60.0546 76.2995 59.9415 76.7098 59.8287 77.1198C59.9419 76.7098 60.0546 76.2995 60.2051 75.8892ZM59.791 77.2319C59.6783 77.6419 59.5655 78.0896 59.4524 78.5369C59.5655 78.0896 59.6783 77.6422 59.791 77.2319ZM59.4528 78.5743C59.3401 79.022 59.2646 79.4693 59.1892 79.917C59.2646 79.4693 59.3774 79.022 59.4528 78.5743ZM59.1892 79.9914C59.1138 80.4387 59.0388 80.8864 58.9634 81.3711C59.0011 80.9238 59.0765 80.4391 59.1892 79.9914ZM58.9634 81.4462C58.8883 81.9309 58.8506 82.3786 58.8129 82.8633C58.8129 82.3782 58.8883 81.9309 58.9634 81.4462ZM58.7752 82.9377C58.7375 83.4227 58.6998 83.9074 58.6625 84.3921C58.6998 83.9071 58.7379 83.4224 58.7752 82.9377ZM58.6998 84.4295C58.6621 84.9516 58.6621 85.4363 58.6621 85.9584V85.9957V85.9584C58.6625 85.4363 58.6625 84.9142 58.6998 84.4295ZM59.3774 92.9317C59.4151 93.0809 59.4528 93.193 59.4528 93.3421C59.4147 93.193 59.4147 93.0439 59.3774 92.9317ZM58.6625 86.7416C58.6625 86.8534 58.6625 86.9281 58.6625 87.0399C58.6625 86.9651 58.6625 86.8534 58.6625 86.7416ZM58.6998 87.5619C58.6998 87.6737 58.6998 87.7858 58.7375 87.8975C58.6998 87.7858 58.6998 87.6737 58.6998 87.5619ZM58.7379 88.3452C58.7379 88.457 58.7756 88.5687 58.7756 88.7182C58.7379 88.6061 58.7379 88.494 58.7379 88.3452ZM58.8129 89.1281C58.8129 89.2403 58.8506 89.3894 58.8506 89.5011C58.8129 89.389 58.8129 89.2773 58.8129 89.1281ZM58.8883 89.9111C58.8883 90.0228 58.926 90.1723 58.926 90.284C58.9257 90.1723 58.8883 90.0605 58.8883 89.9111ZM58.9634 90.6944C58.9634 90.8061 59.0011 90.9556 59.0388 91.0673C59.0011 90.9556 59.0011 90.8061 58.9634 90.6944ZM59.1138 91.4403C59.1515 91.5524 59.1515 91.7015 59.1892 91.8132C59.1515 91.7011 59.1138 91.5894 59.1138 91.4403ZM59.2269 92.1862C59.2646 92.3353 59.2646 92.4474 59.3023 92.5962C59.2646 92.447 59.2646 92.3353 59.2269 92.1862ZM60.13 95.6916C60.1677 95.8407 60.2431 95.9898 60.2805 96.1389C60.2051 95.9898 60.1677 95.8407 60.13 95.6916ZM59.5278 93.6407C59.5655 93.7898 59.6029 93.9019 59.6406 94.051C59.6029 93.9015 59.5655 93.7898 59.5278 93.6407ZM59.716 94.3492C59.7537 94.4983 59.791 94.6104 59.8287 94.7592C59.791 94.6101 59.7537 94.498 59.716 94.3492ZM59.9042 95.0204C59.9419 95.1695 59.9796 95.319 60.0169 95.4307C59.9796 95.3186 59.9419 95.1695 59.9042 95.0204ZM72.773 107.961C72.5475 107.961 72.3216 107.961 72.1334 107.923C72.0957 107.923 72.058 107.923 71.983 107.923C71.7948 107.923 71.569 107.886 71.3808 107.849C71.3431 107.849 71.2681 107.849 71.2303 107.811C71.0422 107.774 70.8917 107.737 70.7036 107.7C70.6659 107.7 70.6285 107.662 70.5531 107.662C70.365 107.625 70.2145 107.587 70.0264 107.513C69.9509 107.476 69.8759 107.476 69.8005 107.438C69.65 107.401 69.4619 107.327 69.3114 107.252C69.236 107.214 69.1233 107.177 69.0478 107.14C68.9351 107.103 68.8597 107.065 68.7469 106.991C68.5965 106.916 68.4457 106.842 68.2956 106.768C68.2202 106.73 68.1451 106.693 68.0697 106.655C67.957 106.581 67.8442 106.544 67.7311 106.469C67.6934 106.432 67.6557 106.432 67.618 106.395C67.4298 106.282 67.2043 106.133 67.0162 105.984C66.9785 105.947 66.9407 105.947 66.903 105.909C66.6775 105.76 66.4894 105.611 66.2635 105.425L66.2258 105.387C64.1183 103.672 62.3502 101.173 61.0331 98.1154C62.3502 101.173 64.1187 103.672 66.2258 105.387C67.7307 105.649 71.1176 105.909 74.4664 104.157C78.9442 101.77 84.4378 88.8299 80.6376 77.0081C76.8748 65.2983 66.1508 66.5289 65.9626 66.5663C65.699 66.7901 65.4358 67.0514 65.1723 67.3122C65.4358 67.0514 65.699 66.7901 65.9626 66.5663C66.0003 66.5663 66.0003 66.5289 66.038 66.5289C66.1134 66.4915 66.1508 66.4168 66.2262 66.3798C66.3016 66.3051 66.4143 66.2307 66.4898 66.1563C66.5652 66.0816 66.6402 66.0442 66.7533 65.9698C66.9038 65.8577 67.0542 65.746 67.2047 65.6713C67.2797 65.6339 67.3551 65.5595 67.4302 65.5221C67.5429 65.4478 67.6561 65.373 67.7688 65.2987C67.8442 65.2613 67.957 65.1869 68.0324 65.1496C68.1828 65.0752 68.3333 65.0004 68.446 64.9261C68.5214 64.8887 68.5965 64.8513 68.6719 64.8143C68.8601 64.7396 69.0105 64.6652 69.1987 64.5905C69.2364 64.5531 69.3114 64.5531 69.3491 64.5157C69.4996 64.441 69.6504 64.404 69.8005 64.3666C69.8759 64.3293 69.9136 64.3293 69.9886 64.2919C70.1768 64.2172 70.365 64.1802 70.5531 64.1428C70.5908 64.1428 70.6659 64.1054 70.7036 64.1054C70.8917 64.068 71.0422 64.0307 71.2303 63.9937C71.2681 63.9937 71.3058 63.9937 71.3431 63.9563C71.5313 63.9189 71.7571 63.9189 71.9453 63.8816C71.983 63.8816 72.058 63.8816 72.0957 63.8816C72.3212 63.8816 72.5094 63.8442 72.7353 63.8442C80.5241 63.8442 86.8458 73.6892 86.8458 85.8836C86.9212 98.1154 80.5622 107.961 72.773 107.961ZM60.3178 96.3628C60.3555 96.5119 60.4309 96.6613 60.4683 96.8101C60.4309 96.6613 60.3932 96.5119 60.3178 96.3628ZM60.5437 96.9966C60.6191 97.1457 60.6564 97.3322 60.7318 97.4816C60.6945 97.3325 60.6191 97.146 60.5437 96.9966ZM60.8073 97.5934C60.8827 97.7799 60.9577 97.929 61.0327 98.1154C60.92 97.929 60.845 97.7799 60.8073 97.5934ZM68.4079 71.4144L69.8001 88.6061L77.8525 82.9377L68.5584 91.7015L68.4079 71.4144ZM182.421 125.749C177.83 131.529 173.579 129.068 171.923 127.688C171.81 127.614 171.735 127.502 171.622 127.427C171.17 126.532 170.568 125.04 170.38 123.288C170.23 121.908 170.38 120.342 171.02 118.738C171.509 117.582 172.149 116.649 172.864 115.904C173.127 115.643 173.39 115.382 173.654 115.158C173.767 115.046 173.917 114.934 174.067 114.859C174.632 114.449 175.196 114.113 175.761 113.853C176.062 113.703 176.363 113.591 176.664 113.48C177.341 113.218 177.906 113.107 178.282 113.032C178.395 112.995 178.507 112.995 178.583 112.995C178.733 112.957 178.846 112.957 178.846 112.957C178.921 112.957 179.034 112.957 179.11 112.957C179.373 112.957 179.674 112.957 180.013 112.957C180.088 112.957 180.163 112.957 180.238 112.957C180.314 112.957 180.389 112.995 180.464 112.995C183.174 113.629 186.974 120.006 182.421 125.749ZM60.9577 59.6303C58.512 60.2267 56.2918 60.4506 54.7492 60.3762C54.4106 60.3388 54.1097 60.3014 53.8461 60.2644C53.4321 60.1897 53.1311 60.078 52.943 59.8915C52.7925 59.7794 52.7171 59.6676 52.6794 59.5185C52.4158 58.437 55.6896 56.6843 60.0169 55.6402C64.3442 54.596 68.0693 54.6334 68.3325 55.7149C68.4079 56.0505 68.1444 56.4608 67.6176 56.8712C67.3921 57.0577 67.1662 57.2068 66.865 57.3932C66.7145 57.4676 66.5641 57.5797 66.4136 57.6541C65.0214 58.4366 63.1025 59.1078 60.9577 59.6303ZM210.153 110.236C208.008 96.6613 198.601 86.5178 191.979 86.5178C190.097 86.5178 188.517 86.5552 187.087 86.6299C187.087 86.6299 163.908 88.8673 154.877 110.87C154.501 111.839 154.125 112.772 153.824 113.704C152.469 117.955 151.942 122.094 151.942 125.936C151.98 134.961 155.028 142.568 157.248 146.857C157.511 147.08 157.775 147.342 158.076 147.565C159.28 148.609 160.936 149.84 162.892 150.996C171.396 156.03 186.184 159.648 201.875 139.771C205.939 134.624 208.422 129.329 209.664 124.183C210.228 121.759 210.567 119.372 210.642 117.06C210.642 114.748 210.492 112.436 210.153 110.236ZM185.807 88.9417C185.394 88.979 184.98 88.979 184.603 89.0164C185.018 88.979 185.394 88.979 185.807 88.9417ZM157.248 143.537C157.361 143.649 157.812 144.134 158.527 144.842C157.775 144.134 157.361 143.649 157.248 143.537ZM200.445 138.541C181.593 162.37 164.134 149.952 158.828 145.104C156.646 140.815 153.598 133.096 153.936 124.034C153.936 123.586 153.974 123.139 154.011 122.691C154.011 122.579 154.011 122.505 154.049 122.393C154.087 122.057 154.125 121.721 154.162 121.348C154.162 121.2 154.2 121.088 154.2 120.939C154.238 120.752 154.238 120.566 154.275 120.342C154.313 120.118 154.35 119.932 154.35 119.708C154.388 119.484 154.426 119.26 154.464 119.037C154.501 118.813 154.539 118.589 154.576 118.366C154.614 118.217 154.614 118.067 154.652 117.918C154.727 117.583 154.802 117.247 154.877 116.949C154.915 116.837 154.953 116.688 154.953 116.576C155.028 116.24 155.141 115.867 155.216 115.532C155.216 115.457 155.254 115.42 155.254 115.345C155.367 115.01 155.442 114.674 155.555 114.338C155.592 114.264 155.592 114.152 155.63 114.077C155.743 113.704 155.893 113.331 156.006 112.958C156.044 112.884 156.082 112.81 156.082 112.735C156.232 112.325 156.382 111.952 156.533 111.541C156.683 111.169 156.834 110.796 157.022 110.423C157.06 110.311 157.135 110.199 157.173 110.087C157.286 109.826 157.398 109.565 157.549 109.341C157.587 109.229 157.662 109.118 157.7 109.006C157.85 108.744 157.963 108.484 158.113 108.185C158.151 108.111 158.188 108.036 158.226 107.962C158.415 107.626 158.603 107.29 158.791 106.955C158.829 106.88 158.866 106.843 158.904 106.768C159.054 106.507 159.205 106.246 159.393 105.985C159.468 105.91 159.506 105.798 159.581 105.724C159.732 105.5 159.882 105.239 160.033 105.015C160.071 104.94 160.146 104.866 160.183 104.792C160.597 104.195 161.048 103.598 161.463 103.039C161.5 103.002 161.538 102.927 161.576 102.89C161.764 102.666 161.952 102.443 162.14 102.181C162.178 102.144 162.215 102.07 162.29 102.032C162.516 101.771 162.742 101.51 162.968 101.249C163.457 100.727 163.946 100.205 164.435 99.6828C164.473 99.6454 164.473 99.6454 164.51 99.6084C164.736 99.3845 165 99.1607 165.225 98.9372C165.225 98.9372 165.225 98.9372 165.263 98.8998C166.053 98.1913 166.843 97.5201 167.634 96.8859C176.665 89.8752 186.636 88.9054 186.636 88.9054C187.953 88.868 189.458 88.7937 191.189 88.7937C201.536 88.8299 219.033 115.046 200.445 138.541ZM110.702 95.0204L119.921 100.204C119.733 100.651 119.545 101.099 119.356 101.584C119.356 101.621 119.319 101.659 119.319 101.696C119.131 102.143 118.98 102.553 118.829 103.001C118.792 103.075 118.792 103.113 118.754 103.187C118.604 103.597 118.453 104.045 118.302 104.455C118.265 104.53 118.265 104.605 118.227 104.642C118.077 105.052 117.964 105.462 117.851 105.872C117.813 105.947 117.813 105.984 117.776 106.059C117.663 106.469 117.512 106.879 117.399 107.327C117.399 107.364 117.362 107.439 117.362 107.476C117.249 107.849 117.174 108.222 117.061 108.595C117.061 108.632 117.023 108.706 117.023 108.744C117.023 108.781 117.023 108.781 117.023 108.818C116.797 109.713 116.609 110.608 116.421 111.504C116.421 111.504 116.421 111.504 116.421 111.541C116.346 111.988 116.27 112.398 116.195 112.846C116.195 112.883 116.195 112.883 116.195 112.921C116.12 113.33 116.045 113.778 116.007 114.188V114.226C115.932 114.636 115.894 115.084 115.819 115.494C115.819 115.494 115.819 115.494 115.819 115.531C114.577 125.526 116.12 132.947 116.12 132.947L99.6388 123.251C99.3379 114.636 103.025 106.655 106.224 101.397C108.595 97.4069 110.702 95.0204 110.702 95.0204Z" fill="#E1F6F1"/>
<path d="M216.775 113.816V120.118L209.588 124.22C210.153 121.796 210.491 119.41 210.567 117.097L216.248 113.778L216.775 113.816ZM104.982 178.406L18.2119 128.845V134.476L105.509 183.888L162.854 151.034C160.898 149.878 159.28 148.647 158.038 147.603L104.982 178.406Z" fill="#FF4C2E"/>
<path d="M144.981 51.202L146.072 53.3651L145.733 53.9615C145.433 54.5583 144.943 54.9686 144.417 55.1921C144.191 55.2669 144.003 55.3412 143.777 55.416C143.664 55.4533 143.551 55.4533 143.476 55.4903C143.25 55.5277 143.062 55.5277 142.874 55.5277C142.799 55.5277 142.686 55.5277 142.61 55.5277C142.197 55.5277 141.896 55.4903 141.896 55.4903L141.821 54.5579L141.745 53.7376C141.745 53.7376 140.353 53.8124 139.638 51.6867C138.885 49.5981 138.848 45.0859 138.848 45.0859C138.848 45.0859 142.46 46.0557 142.46 48.3678C142.46 48.3678 143.476 47.3611 144.078 47.9575C144.68 48.5543 143.702 51.0529 143.702 51.0529C143.702 51.0529 143.814 51.4259 144.981 51.202ZM162.891 78.8355C162.891 78.649 162.026 77.754 161.838 77.3066L159.806 77.6796L159.656 77.717C159.656 77.717 160.296 78.9102 160.107 79.3206C159.994 79.5818 159.769 80.1408 159.618 80.6255C159.543 80.9241 159.468 81.2224 159.468 81.4088C159.506 81.9309 159.919 82.0426 160.183 82.2665C160.446 82.5277 159.581 82.9377 159.468 83.0498C159.393 83.1242 159.468 83.4597 159.618 83.721C159.731 83.9074 159.882 84.0566 160.07 84.0566C160.22 84.0566 160.408 84.0192 160.634 83.9448C161.274 83.6836 162.064 83.0872 162.403 82.2291C162.44 82.1544 162.44 82.08 162.478 82.0056C162.854 80.8494 162.891 79.0593 162.891 78.8355Z" fill="#FFD2BB"/>
<path d="M160.22 82.3038C160.484 82.565 159.618 82.9749 159.506 83.0871C159.43 83.1618 159.506 83.4974 159.656 83.7582C156.232 82.9753 152.996 82.1547 150.023 81.297C150.475 80.9614 150.851 80.7002 151.114 80.4767C152.093 79.6564 152.431 77.9407 152.582 76.4863L159.656 80.6258C159.581 80.924 159.506 81.2223 159.506 81.4087C159.506 81.9682 159.957 82.0803 160.22 82.3038ZM134.633 75.9642C137.568 74.7336 141.67 73.2791 141.67 73.2791L141.444 69.9976L140.391 69.3638L139.901 70.4079L133.881 75.5916C134.144 75.7407 134.408 75.8524 134.633 75.9642ZM160.672 83.9821C162.93 84.4668 165.3 84.9519 167.746 85.3992L162.403 82.2668C162.064 83.1244 161.312 83.7582 160.672 83.9821ZM137.192 68.7296C137.192 68.7296 137.23 68.2822 137.305 67.6111L130.946 63.8818L121.426 69.3264C123.759 70.7809 127.221 72.6827 131.849 74.7709L137.192 68.7296ZM210.153 110.236C210.491 112.436 210.642 114.748 210.567 117.135L216.248 113.816L210.153 110.236ZM115.405 120.006V120.044C115.405 120.043 115.405 120.043 115.405 120.006ZM115.405 120.081C115.367 120.528 115.367 120.976 115.367 121.423C115.368 120.976 115.405 120.528 115.405 120.081ZM115.368 121.46C115.368 121.423 115.368 121.423 115.368 121.46C115.368 121.423 115.368 121.423 115.368 121.423C115.368 121.423 115.368 121.423 115.368 121.46ZM115.405 120.006C115.443 119.559 115.443 119.111 115.481 118.664C115.481 119.111 115.443 119.559 115.405 120.006ZM151.942 125.936C151.942 127.055 152.017 128.173 152.093 129.255C152.017 128.173 151.942 127.055 151.942 125.936ZM115.819 115.457C115.744 115.942 115.706 116.426 115.669 116.911C115.706 116.426 115.782 115.941 115.819 115.457ZM152.093 129.255C152.733 136.825 155.291 143.09 157.21 146.894C157.06 146.782 156.947 146.67 156.834 146.558C156.947 146.67 157.097 146.782 157.21 146.894C157.06 146.782 156.947 146.67 156.834 146.558C156.796 146.521 156.759 146.484 156.721 146.447C156.646 146.372 156.57 146.297 156.495 146.223C156.458 146.185 156.42 146.148 156.382 146.111C156.307 146.036 156.232 145.962 156.194 145.925C156.156 145.887 156.156 145.887 156.119 145.85C156.044 145.775 156.006 145.738 155.931 145.663C155.893 145.626 155.893 145.626 155.856 145.589C155.818 145.515 155.743 145.477 155.705 145.44L155.667 145.402C155.63 145.365 155.555 145.29 155.555 145.253C155.555 145.253 155.555 145.253 155.555 145.216C155.479 145.142 155.441 145.104 155.441 145.104C148.217 132.425 131.472 118.888 119.394 110.198C118.227 112.697 115.405 118.925 115.33 121.386C115.142 128.21 116.12 132.834 116.12 132.834L116.195 145.476L99.9398 135.781L99.6386 123.138C99.3377 114.524 103.025 106.544 106.223 101.285C105.885 101.062 105.697 100.95 105.697 100.95C105.697 100.95 99.2999 93.9014 102.16 82.4525C102.386 81.5201 102.686 80.6254 103.063 79.7674L88.3501 88.1583C87.7106 98.9356 82.5929 107.699 75.933 109.825C73.7505 110.907 67.8429 111.429 62.9134 110.086C62.9888 110.348 63.0265 110.646 63.0638 110.981C63.1393 112.324 62.5748 113.592 61.4081 114.748C59.3006 116.799 56.3282 116.501 52.5653 116.165C48.8025 115.792 44.2493 115.344 38.4171 116.724L30.5163 121.237C31.3066 123.251 38.6441 126.943 57.9473 127.017C67.881 127.055 73.2618 128.695 74.3531 132.051C75.7075 136.191 69.8376 140.591 69.1604 141.076L67.8059 139.249C69.1604 138.242 72.9236 134.923 72.1709 132.723C71.8323 131.679 69.7626 129.292 57.91 129.255C41.8428 129.18 30.6671 126.495 28.485 122.356L17.6855 128.546L18.2123 128.845L104.982 178.405L158.038 147.602C157.737 147.341 157.473 147.117 157.21 146.894C155.329 143.09 152.732 136.787 152.093 129.255ZM115.669 116.911C115.669 116.986 115.669 117.06 115.631 117.135C115.631 117.06 115.669 116.986 115.669 116.911ZM115.631 117.135C115.593 117.582 115.556 118.03 115.518 118.478C115.556 118.03 115.593 117.582 115.631 117.135ZM115.518 118.478C115.518 118.552 115.518 118.626 115.518 118.701C115.518 118.589 115.518 118.552 115.518 118.478Z" fill="#222AEF"/>
<path d="M152.544 76.5236C152.658 75.2182 152.582 74.1741 152.582 74.1741C146.035 77.3065 141.67 73.3164 141.67 73.3164C141.67 73.3164 137.569 74.7709 134.633 76.0015C133.467 76.4862 132.489 76.9339 132.037 77.2321C130.419 78.3136 126.43 93.5288 126.43 93.5288L129.027 94.1999L135.198 83.1987L138.509 81.7816C138.509 81.7816 135.988 84.0564 135.875 84.5788C135.762 85.1009 133.88 98.9363 133.88 98.9363L136.326 99.794L140.917 87.0774C140.917 87.0774 147.126 83.3852 149.985 81.3717C150.437 81.0361 150.813 80.7749 151.077 80.551C152.055 79.6564 152.394 77.9407 152.544 76.5236Z" fill="#E84393"/>
<path d="M161.914 77.3068L159.806 77.6797L159.656 77.7171L159.43 77.7545L156.608 67.723L150.814 61.719L152.544 74.1374C145.997 77.2698 141.632 73.2797 141.632 73.2797L141.406 69.9982L141.256 67.4622L140.353 69.3644L139.864 70.4085L133.843 75.5922L133.618 75.7787L131.736 74.7719L131.811 74.6972L137.155 68.6558C137.155 68.6558 137.193 68.2085 137.268 67.5369C137.569 64.6284 138.397 57.0952 138.697 56.7222C139.074 56.2749 141.821 54.4101 141.821 54.4101L141.896 55.3425C141.896 55.3425 142.159 55.3798 142.611 55.3798C142.686 55.3798 142.799 55.3798 142.874 55.3798C143.062 55.3798 143.251 55.3425 143.476 55.3425C143.589 55.3425 143.702 55.3051 143.777 55.2677C144.003 55.2304 144.191 55.156 144.417 55.0443C144.944 54.8204 145.433 54.4474 145.734 53.8136L146.072 53.2168C148.707 52.6947 150.287 54.3357 150.287 54.3357L160.484 66.3437L161.914 77.3068ZM126.468 93.4913C126.468 93.4913 126.205 94.2746 125.828 94.7219C125.452 95.1323 122.894 96.6985 122.103 97.0341C121.313 97.407 121.84 98.0782 122.329 98.1903C122.818 98.3021 126.204 97.6309 127.107 97.3327C128.01 97.0344 128.575 96.2511 128.575 95.9529C128.575 95.6547 129.027 94.1629 129.027 94.1629L126.468 93.4913ZM133.617 100.204C133.617 100.204 131.096 102.218 129.93 102.441C128.801 102.665 128.575 103.299 128.688 103.56C128.801 103.821 129.666 104.567 131.698 104.455C133.73 104.343 136.026 101.733 136.026 101.733L136.326 99.7562L133.881 98.8985L133.617 100.204ZM62.8014 61.7187C62.1619 61.9052 61.7102 62.0169 61.5597 62.0543C61.522 62.0543 61.522 62.0543 61.522 62.0543C61.522 62.0543 61.4843 62.0543 61.4089 62.0916H61.3712C61.3335 62.0916 61.2958 62.0916 61.2584 62.129H61.2207C61.183 62.129 61.108 62.1664 61.0326 62.1664C61.0326 62.1664 61.0326 62.1664 60.9949 62.1664C60.9194 62.1664 60.8444 62.2037 60.769 62.2037C60.7313 62.2037 60.7313 62.2037 60.6936 62.2037C60.6185 62.2037 60.5054 62.2411 60.4304 62.2411H60.3927C60.3173 62.2411 60.2045 62.2785 60.0918 62.2785C60.0541 62.2785 60.0541 62.2785 60.0163 62.2785C59.9036 62.2785 59.8282 62.3159 59.7154 62.3159C59.7154 62.3159 59.7154 62.3159 59.6777 62.3159L60.0163 65.7465C60.9949 65.1871 62.0107 64.665 62.9888 64.2547L62.8014 61.7187ZM68.4078 71.4145L68.5582 91.7016L77.8524 82.9378L69.7999 88.6062L68.4078 71.4145Z" fill="#FBC02D"/>
<path d="M142.497 48.2935C142.497 48.2935 143.513 47.2867 144.115 47.8832C144.717 48.48 143.739 50.9786 143.739 50.9786C143.739 50.9786 143.852 51.3886 144.981 51.1651C144.981 51.1651 147.615 48.9277 146.411 45.012C145.206 41.0963 140.653 42.2899 139.337 43.2219C138.02 44.1543 136.665 43.8931 136.665 43.8931C136.665 43.8931 137.455 45.3846 138.885 45.0116C138.885 45.012 142.497 45.9814 142.497 48.2935Z" fill="black"/>
</svg>
